<svg width="530" height="532" viewBox="0 0 530 532" fill="none" xmlns="http://www.w3.org/2000/svg" xmlns:xlink="http://www.w3.org/1999/xlink">
<g clip-path="url(#clip0_96_2)">
<rect x="-24.22" y="-13.32" width="577.2" height="576.96" fill="url(#pattern0)"/>
<path d="M264.46 522.12C405.812 522.12 520.4 407.532 520.4 266.18C520.4 124.828 405.812 10.24 264.46 10.24C123.108 10.24 8.51999 124.828 8.51999 266.18C8.51999 407.532 123.108 522.12 264.46 522.12Z" stroke="#FFE600" stroke-width="5" stroke-miterlimit="10"/>
<path d="M259.25 87.39C259.25 103.67 259.25 119.95 259.25 136.23C259.25 144.98 255.88 148.91 247.18 150.33C236.719 151.987 226.513 154.975 216.81 159.22C210.52 161.99 204.72 160.28 201.01 154.42C183.01 126.073 165.09 97.69 147.25 69.27C143.03 62.55 145.08 55.27 152.18 51.58C179.434 37.2175 209.219 28.2886 239.88 25.29C241.93 25.09 243.98 24.75 246.04 24.67C253.32 24.39 258.57 28.94 258.82 36.22C259.11 44.61 258.95 53.02 258.96 61.42C258.96 70.0867 258.96 78.7533 258.96 87.42L259.25 87.39Z" fill="white"/>
<path d="M205.83 84.85C205.644 84.5991 205.44 84.3618 205.22 84.14C205.027 83.9448 204.808 83.7766 204.57 83.64C204.336 83.5067 204.083 83.409 203.82 83.35C203.517 83.2869 203.209 83.2567 202.9 83.26C202.379 83.2578 201.866 83.3886 201.41 83.64C200.947 83.9082 200.548 84.2732 200.24 84.71C199.893 85.2131 199.633 85.7708 199.47 86.36C199.281 87.0438 199.187 87.7505 199.19 88.46C199.184 89.1737 199.282 89.8844 199.48 90.57C199.635 91.1667 199.9 91.7295 200.26 92.23C200.572 92.6703 200.974 93.0386 201.44 93.31C201.89 93.5693 202.401 93.7039 202.92 93.7C203.536 93.7154 204.144 93.5634 204.68 93.26C205.194 92.9462 205.643 92.5352 206 92.05L207 92.89C206.769 93.199 206.508 93.4838 206.22 93.74C205.932 93.9935 205.616 94.2148 205.28 94.4C204.925 94.5878 204.549 94.7321 204.16 94.83C203.741 94.9321 203.311 94.9825 202.88 94.98C202.388 94.9857 201.898 94.9114 201.43 94.76C200.981 94.6158 200.559 94.3996 200.18 94.12C199.799 93.8381 199.462 93.5011 199.18 93.12C198.878 92.719 198.626 92.2824 198.43 91.82C198.213 91.3191 198.053 90.796 197.95 90.26C197.84 89.6799 197.786 89.0905 197.79 88.5C197.778 87.6186 197.906 86.741 198.17 85.9C198.395 85.1566 198.751 84.4591 199.22 83.84C199.658 83.2737 200.214 82.8096 200.85 82.48C201.495 82.1451 202.213 81.9734 202.94 81.98C203.729 81.9645 204.51 82.1358 205.22 82.48C205.931 82.8303 206.543 83.3528 207 84L205.83 84.85Z" fill="black"/>
<path d="M217.51 94.78H209.63V82.18H217.25V83.46H211V87.46H216V88.7H211V93.51H217.48L217.51 94.78Z" fill="black"/>
<path d="M230.11 88.46C230.122 89.3479 229.994 90.2322 229.73 91.08C229.504 91.8302 229.141 92.532 228.66 93.15C228.211 93.7282 227.635 94.1944 226.975 94.512C226.316 94.8295 225.592 94.9897 224.86 94.98C224.119 94.9906 223.386 94.8262 222.72 94.5C222.08 94.181 221.52 93.7232 221.08 93.16C220.614 92.5609 220.259 91.8836 220.03 91.16C219.537 89.4515 219.537 87.6385 220.03 85.93C220.258 85.1837 220.62 84.4854 221.1 83.87C221.544 83.3037 222.107 82.8426 222.75 82.52C223.414 82.1871 224.148 82.019 224.89 82.03C225.628 82.0206 226.358 82.185 227.02 82.51C227.664 82.8266 228.228 83.2847 228.67 83.85C229.144 84.4468 229.507 85.1243 229.74 85.85C229.996 86.6959 230.121 87.5762 230.11 88.46ZM228.71 88.46C228.718 87.729 228.617 87.001 228.41 86.3C228.242 85.7054 227.968 85.1463 227.6 84.65C227.275 84.2088 226.854 83.8465 226.37 83.59C225.899 83.3412 225.373 83.214 224.84 83.22C224.314 83.2144 223.794 83.3416 223.33 83.59C222.861 83.8312 222.452 84.1726 222.13 84.59C221.778 85.0878 221.514 85.6426 221.35 86.23C221.15 86.929 221.053 87.6531 221.06 88.38C221.051 89.1077 221.152 89.8326 221.36 90.53C221.526 91.1263 221.797 91.6884 222.16 92.19C222.487 92.6261 222.903 92.9875 223.38 93.25C223.853 93.4942 224.378 93.6211 224.91 93.62C225.437 93.6269 225.956 93.4996 226.42 93.25C226.893 93.012 227.307 92.6702 227.63 92.25C227.988 91.7539 228.255 91.1988 228.42 90.61C228.615 89.9237 228.713 89.2134 228.71 88.5V88.46Z" fill="black"/>
<path d="M192.11 168.1C192.201 169.727 191.912 171.352 191.266 172.848C190.62 174.344 189.636 175.67 188.39 176.72C179.721 184.288 172.127 193.005 165.82 202.63C162.26 207.99 156.49 209.51 150.49 206.76C121.997 193.68 93.53 180.553 65.09 167.38C63.22 166.52 61.35 165.64 59.5 164.74C51.41 160.8 49.32 154.13 53.78 146.23C62.1108 131.492 71.9973 117.69 83.27 105.06C93.382 93.64 104.559 83.2095 116.65 73.91C124 68.27 131 69.39 136 77.14C153.9 104.907 171.777 132.7 189.63 160.52C191.255 162.712 192.125 165.372 192.11 168.1Z" fill="white"/>
<path d="M110.46 141.48C110.499 141.996 110.424 142.514 110.241 142.998C110.057 143.481 109.771 143.919 109.4 144.28C108.546 144.943 107.48 145.274 106.4 145.21H101.88V132.6H106.5C106.963 132.6 107.424 132.663 107.87 132.79C108.266 132.907 108.634 133.104 108.95 133.37C109.261 133.644 109.504 133.986 109.66 134.37C109.838 134.815 109.923 135.291 109.91 135.77C109.916 136.085 109.872 136.399 109.78 136.7C109.696 136.963 109.568 137.21 109.4 137.43C109.24 137.64 109.048 137.822 108.83 137.97C108.605 138.126 108.359 138.251 108.1 138.34C108.482 138.44 108.846 138.599 109.18 138.81C109.467 138.988 109.718 139.219 109.92 139.49C110.113 139.76 110.258 140.061 110.35 140.38C110.438 140.74 110.475 141.11 110.46 141.48ZM108.46 135.81C108.465 135.541 108.421 135.273 108.33 135.02C108.251 134.794 108.121 134.589 107.95 134.42C107.769 134.243 107.55 134.109 107.31 134.03C107.014 133.928 106.703 133.88 106.39 133.89H103.24V137.81H106.24C106.58 137.815 106.919 137.761 107.24 137.65C107.494 137.556 107.726 137.409 107.92 137.22C108.091 137.04 108.221 136.825 108.3 136.59C108.399 136.341 108.456 136.078 108.47 135.81H108.46ZM109.06 141.55C109.062 141.191 108.998 140.835 108.87 140.5C108.749 140.203 108.565 139.937 108.33 139.72C108.087 139.502 107.801 139.339 107.49 139.24C107.132 139.124 106.757 139.067 106.38 139.07H103.24V143.93H106.45C106.857 143.943 107.263 143.885 107.65 143.76C107.956 143.67 108.235 143.505 108.46 143.28C108.671 143.074 108.829 142.82 108.92 142.54C109.018 142.219 109.069 141.886 109.07 141.55H109.06Z" fill="black"/>
<path d="M120.52 140.42C120.532 141.144 120.421 141.864 120.19 142.55C120.003 143.126 119.704 143.66 119.31 144.12C118.953 144.547 118.506 144.888 118 145.12C117.489 145.334 116.94 145.445 116.385 145.445C115.83 145.445 115.281 145.334 114.77 145.12C114.272 144.913 113.83 144.591 113.48 144.18C113.096 143.727 112.804 143.204 112.62 142.64C112.2 141.258 112.2 139.782 112.62 138.4C112.807 137.83 113.106 137.303 113.5 136.85C113.867 136.446 114.318 136.125 114.82 135.91C115.332 135.692 115.884 135.583 116.44 135.59C116.988 135.585 117.531 135.687 118.04 135.89C118.537 136.099 118.981 136.417 119.34 136.82C119.722 137.267 120.014 137.783 120.2 138.34C120.415 139.012 120.523 139.714 120.52 140.42ZM119.16 140.42C119.172 139.87 119.105 139.321 118.96 138.79C118.849 138.371 118.659 137.977 118.4 137.63C118.173 137.327 117.874 137.087 117.53 136.93C117.179 136.77 116.796 136.691 116.41 136.7C116.024 136.692 115.641 136.771 115.29 136.93C114.951 137.09 114.655 137.33 114.43 137.63C114.171 137.977 113.981 138.371 113.87 138.79C113.73 139.322 113.663 139.87 113.67 140.42C113.663 140.973 113.73 141.525 113.87 142.06C113.979 142.486 114.169 142.886 114.43 143.24C114.655 143.546 114.95 143.793 115.29 143.96C115.641 144.123 116.023 144.205 116.41 144.2C116.797 144.206 117.18 144.124 117.53 143.96C117.875 143.796 118.174 143.548 118.4 143.24C118.661 142.886 118.851 142.486 118.96 142.06C119.102 141.535 119.169 140.993 119.16 140.45V140.42Z" fill="black"/>
<path d="M128.32 145.21V144.06C128.154 144.247 127.969 144.418 127.77 144.57C127.568 144.739 127.347 144.884 127.11 145C126.857 145.132 126.588 145.233 126.31 145.3C126.005 145.373 125.693 145.41 125.38 145.41C125.008 145.41 124.638 145.36 124.28 145.26C123.912 145.168 123.571 144.993 123.28 144.75C122.976 144.5 122.736 144.181 122.58 143.82C122.396 143.363 122.307 142.873 122.32 142.38C122.308 141.906 122.411 141.436 122.62 141.01C122.814 140.641 123.087 140.32 123.42 140.07C123.772 139.823 124.164 139.64 124.58 139.53C125.023 139.409 125.481 139.349 125.94 139.35C126.385 139.349 126.828 139.403 127.26 139.51C127.607 139.603 127.942 139.733 128.26 139.9V138.78C128.309 138.208 128.129 137.64 127.76 137.2C127.551 137.016 127.307 136.875 127.042 136.788C126.777 136.7 126.498 136.667 126.22 136.69C125.753 136.684 125.288 136.748 124.84 136.88C124.423 137.015 124.021 137.192 123.64 137.41L123.14 136.31C123.594 136.076 124.074 135.894 124.57 135.77C125.135 135.627 125.717 135.556 126.3 135.56C126.766 135.551 127.23 135.608 127.68 135.73C128.05 135.831 128.392 136.016 128.68 136.27C128.979 136.524 129.206 136.851 129.34 137.22C129.512 137.666 129.593 138.142 129.58 138.62V145.21H128.32ZM128.32 140.98C128.171 140.889 128.013 140.812 127.85 140.75C127.676 140.675 127.495 140.619 127.31 140.58C127.104 140.525 126.893 140.489 126.68 140.47C126.44 140.47 126.18 140.47 125.9 140.47C125.317 140.434 124.74 140.604 124.27 140.95C124.072 141.119 123.916 141.332 123.813 141.571C123.711 141.81 123.665 142.07 123.68 142.33C123.675 142.639 123.723 142.947 123.82 143.24C123.91 143.472 124.042 143.686 124.21 143.87C124.384 144.034 124.593 144.156 124.82 144.23C125.075 144.313 125.342 144.353 125.61 144.35C125.897 144.35 126.183 144.313 126.46 144.24C126.975 144.109 127.447 143.848 127.83 143.48C128.014 143.316 128.179 143.132 128.32 142.93V140.98Z" fill="black"/>
<path d="M137.44 137.17C137.246 137.054 137.037 136.963 136.82 136.9C136.556 136.831 136.283 136.797 136.01 136.8C135.715 136.789 135.421 136.853 135.157 136.986C134.893 137.118 134.667 137.316 134.5 137.56C134.109 138.188 133.924 138.922 133.97 139.66V145.21H132.61V135.76H134V136.93C134.106 136.734 134.241 136.556 134.4 136.4C134.562 136.229 134.747 136.081 134.95 135.96C135.154 135.837 135.372 135.74 135.6 135.67C135.836 135.594 136.082 135.557 136.33 135.56C136.625 135.555 136.919 135.575 137.21 135.62C137.415 135.657 137.616 135.714 137.81 135.79L137.44 137.17Z" fill="black"/>
<path d="M145.16 145.21V144.06C144.989 144.243 144.805 144.413 144.61 144.57C144.415 144.739 144.2 144.884 143.97 145C143.732 145.134 143.476 145.235 143.21 145.3C142.919 145.374 142.62 145.411 142.32 145.41C141.865 145.415 141.414 145.319 141 145.13C140.575 144.937 140.204 144.641 139.92 144.27C139.592 143.825 139.348 143.323 139.2 142.79C139.016 142.088 138.929 141.365 138.94 140.64C138.926 139.894 139.02 139.149 139.22 138.43C139.375 137.858 139.633 137.32 139.98 136.84C140.269 136.419 140.657 136.075 141.11 135.84C141.541 135.623 142.018 135.513 142.5 135.52C142.779 135.518 143.058 135.548 143.33 135.61C143.573 135.669 143.807 135.757 144.03 135.87C144.247 135.976 144.449 136.111 144.63 136.27C144.821 136.424 144.998 136.595 145.16 136.78V132.78L146.52 132.02V145.15L145.16 145.21ZM145.16 138.15C145.03 137.945 144.875 137.757 144.7 137.59C144.521 137.418 144.323 137.267 144.11 137.14C143.891 137.01 143.656 136.909 143.41 136.84C143.15 136.763 142.881 136.726 142.61 136.73C142.252 136.715 141.898 136.801 141.587 136.978C141.275 137.154 141.02 137.415 140.85 137.73C140.409 138.634 140.209 139.636 140.27 140.64C140.265 141.185 140.322 141.728 140.44 142.26C140.537 142.669 140.71 143.055 140.95 143.4C141.151 143.675 141.415 143.898 141.72 144.05C142.018 144.185 142.343 144.254 142.67 144.25C142.92 144.255 143.17 144.221 143.41 144.15C143.63 144.086 143.842 143.995 144.04 143.88C144.248 143.762 144.443 143.621 144.62 143.46C144.82 143.29 145.001 143.099 145.16 142.89V138.15Z" fill="black"/>
<path d="M114.68 165.4H106.8V152.8H114.42V154.08H108.2V158H113.2V159.29H108.2V164.09H114.68V165.4Z" fill="black"/>
<path d="M122.37 165.4L120.21 161.62L118 165.4H116.59L119.51 160.52L116.83 156H118.32L120.32 159.45L122.32 156H123.72L121 160.49L123.92 165.4H122.37Z" fill="black"/>
<path d="M133.11 160.4C133.11 160.56 133.11 160.7 133.11 160.81C133.11 160.92 133.11 161.02 133.11 161.14H126.81C126.837 161.602 126.921 162.059 127.06 162.5C127.181 162.86 127.36 163.198 127.59 163.5C127.804 163.775 128.077 163.997 128.39 164.15C128.701 164.303 129.043 164.381 129.39 164.38C129.64 164.396 129.89 164.396 130.14 164.38C130.359 164.341 130.573 164.281 130.78 164.2C130.987 164.123 131.188 164.03 131.38 163.92L132 163.54L132.63 164.54C132.35 164.72 132.08 164.88 131.83 165.02C131.58 165.154 131.319 165.268 131.05 165.36C130.78 165.456 130.503 165.526 130.22 165.57C129.889 165.622 129.555 165.645 129.22 165.64C128.92 165.637 128.622 165.6 128.33 165.53C128.022 165.454 127.726 165.337 127.45 165.18C126.823 164.803 126.316 164.255 125.99 163.6C125.785 163.196 125.637 162.765 125.55 162.32C125.433 161.778 125.376 161.225 125.38 160.67C125.374 159.992 125.475 159.317 125.68 158.67C125.85 158.11 126.124 157.587 126.49 157.13C127.017 156.502 127.736 156.064 128.536 155.883C129.337 155.702 130.174 155.789 130.92 156.13C131.391 156.363 131.799 156.706 132.11 157.13C132.443 157.57 132.691 158.069 132.84 158.6C133.009 159.185 133.1 159.791 133.11 160.4ZM131.86 160.04C131.837 159.613 131.764 159.19 131.64 158.78C131.547 158.419 131.384 158.079 131.16 157.78C130.956 157.506 130.688 157.287 130.38 157.14C130.044 156.978 129.673 156.899 129.3 156.91C128.957 156.9 128.616 156.965 128.3 157.1C128 157.228 127.736 157.427 127.53 157.68C127.289 157.975 127.109 158.315 127 158.68C126.849 159.126 126.758 159.59 126.73 160.06L131.86 160.04Z" fill="black"/>
<path d="M142.15 164.28C141.957 164.482 141.746 164.666 141.52 164.83C141.083 165.17 140.573 165.403 140.03 165.51C139.727 165.572 139.419 165.602 139.11 165.6C138.598 165.601 138.091 165.499 137.62 165.3C137.136 165.096 136.703 164.789 136.35 164.4C135.956 163.953 135.654 163.433 135.46 162.87C135 161.439 135 159.901 135.46 158.47C135.667 157.901 135.983 157.378 136.39 156.93C136.754 156.536 137.201 156.228 137.7 156.03C138.168 155.845 138.667 155.75 139.17 155.75C139.752 155.737 140.33 155.843 140.87 156.06C141.334 156.262 141.765 156.532 142.15 156.86L141.34 157.86C141.183 157.712 141.016 157.575 140.84 157.45C140.671 157.333 140.494 157.23 140.31 157.14C140.127 157.059 139.936 156.999 139.74 156.96C139.523 156.918 139.301 156.898 139.08 156.9C138.733 156.903 138.391 156.986 138.08 157.14C137.758 157.318 137.478 157.563 137.26 157.86C137.008 158.21 136.822 158.603 136.71 159.02C136.566 159.531 136.499 160.06 136.51 160.59C136.504 161.119 136.565 161.646 136.69 162.16C136.792 162.59 136.968 163 137.21 163.37C137.426 163.689 137.714 163.953 138.05 164.14C138.397 164.316 138.781 164.405 139.17 164.4C139.385 164.403 139.6 164.38 139.81 164.33C140 164.288 140.185 164.224 140.36 164.14C140.537 164.05 140.704 163.943 140.86 163.82C141.033 163.692 141.197 163.551 141.35 163.4L142.15 164.28Z" fill="black"/>
<path d="M22.2 261.49C22.6992 234.737 27.6293 208.251 36.79 183.11C39.63 175.39 46.4 172.35 53.84 175.74C84.4467 189.7 115.033 203.7 145.6 217.74C151.37 220.4 154.03 225.58 152.34 231.74C149.202 243.064 147.558 254.75 147.45 266.5C147.45 273.19 143.06 277.5 136.45 278.4L36.79 292.2C29.34 293.2 23.58 288.72 22.79 281.2C22.08 274.66 22.24 268.08 22.2 261.49Z" fill="white"/>
<path d="M64.67 234.64C64.6819 235.414 64.5636 236.185 64.32 236.92C64.1076 237.529 63.7665 238.085 63.32 238.55C62.9112 238.989 62.4088 239.331 61.85 239.55C61.2559 239.774 60.6251 239.886 59.99 239.88C59.228 239.888 58.477 239.699 57.81 239.33C57.1721 238.99 56.6238 238.503 56.21 237.91C55.7638 237.306 55.4255 236.629 55.21 235.91C54.9727 235.084 54.8549 234.229 54.86 233.37C54.8503 232.49 54.9751 231.613 55.23 230.77C55.4627 230.028 55.8213 229.331 56.29 228.71C56.7528 228.136 57.3367 227.672 58 227.35C58.6457 227.017 59.3636 226.849 60.09 226.86C60.878 226.841 61.6593 227.009 62.37 227.35C63.0592 227.708 63.6499 228.23 64.09 228.87L62.98 229.72C62.7913 229.471 62.5876 229.234 62.37 229.01C62.1722 228.82 61.9543 228.652 61.72 228.51C61.4858 228.377 61.233 228.279 60.97 228.22C60.6675 228.157 60.359 228.127 60.05 228.13C59.5291 228.128 59.0163 228.259 58.56 228.51C58.097 228.782 57.698 229.15 57.39 229.59C57.041 230.088 56.7805 230.643 56.62 231.23C56.4259 231.913 56.3316 232.62 56.34 233.33C56.334 234.047 56.4317 234.761 56.63 235.45C56.798 236.042 57.0615 236.603 57.41 237.11C57.7252 237.551 58.1309 237.919 58.6 238.19C59.0493 238.441 59.5555 238.571 60.07 238.57C60.5188 238.603 60.9694 238.535 61.3883 238.371C61.8072 238.206 62.1837 237.95 62.49 237.62C63.0975 236.815 63.3924 235.816 63.32 234.81V234.71H61V233.4H64.64L64.67 234.64Z" fill="black"/>
<path d="M74.36 234.65C74.36 234.82 74.36 234.95 74.36 235.06C74.3698 235.17 74.3698 235.28 74.36 235.39H68C68.0297 235.852 68.1136 236.308 68.25 236.75C68.3728 237.111 68.5553 237.449 68.79 237.75C68.9966 238.03 69.2676 238.257 69.58 238.41C69.893 238.558 70.234 238.636 70.58 238.64C70.8313 238.642 71.0823 238.622 71.33 238.58C71.5487 238.546 71.7632 238.489 71.97 238.41C72.1772 238.333 72.3779 238.239 72.57 238.13C72.77 238.02 72.97 237.89 73.19 237.74L73.82 238.74C73.54 238.92 73.27 239.08 73.02 239.22C72.7685 239.352 72.5078 239.465 72.24 239.56C71.9695 239.652 71.6919 239.722 71.41 239.77C71.0788 239.817 70.7446 239.841 70.41 239.84C70.1134 239.837 69.8181 239.8 69.53 239.73C69.2224 239.648 68.9267 239.527 68.65 239.37C68.3515 239.2 68.0787 238.987 67.84 238.74C67.5752 238.461 67.3528 238.144 67.18 237.8C66.984 237.388 66.8363 236.956 66.74 236.51C66.6255 235.968 66.5718 235.414 66.58 234.86C66.5753 234.183 66.6731 233.508 66.87 232.86C67.0451 232.3 67.3232 231.778 67.69 231.32C68.0184 230.897 68.4391 230.555 68.92 230.32C69.4227 230.092 69.9682 229.975 70.52 229.975C71.0718 229.975 71.6173 230.092 72.12 230.32C72.5892 230.556 72.9967 230.898 73.31 231.32C73.6439 231.758 73.8885 232.258 74.03 232.79C74.2285 233.391 74.3396 234.017 74.36 234.65ZM73.1 234.29C73.074 233.864 73.0036 233.442 72.89 233.03C72.7851 232.671 72.6193 232.333 72.4 232.03C72.1931 231.759 71.9261 231.54 71.62 231.39C71.2822 231.232 70.9128 231.153 70.54 231.16C70.1972 231.154 69.8567 231.218 69.54 231.35C69.2413 231.48 68.9775 231.679 68.77 231.93C68.5311 232.228 68.3481 232.567 68.23 232.93C68.0798 233.373 67.989 233.833 67.96 234.3L73.1 234.29Z" fill="black"/>
<path d="M82.8 239.65V234.13C82.8603 233.342 82.6714 232.555 82.26 231.88C82.0553 231.635 81.7951 231.443 81.5011 231.32C81.2072 231.196 80.8879 231.145 80.57 231.17C80.2555 231.169 79.9436 231.227 79.65 231.34C79.3649 231.46 79.1116 231.645 78.91 231.88C78.6829 232.146 78.5128 232.456 78.41 232.79C78.2818 233.225 78.2211 233.677 78.23 234.13V239.65H76.88V230.21H78.23V231.36C78.3673 231.161 78.5248 230.977 78.7 230.81C79.0711 230.471 79.5216 230.23 80.01 230.11C80.2805 230.036 80.5597 229.999 80.84 230C81.3034 229.996 81.7638 230.074 82.2 230.23C82.5863 230.377 82.9299 230.617 83.2 230.93C83.5089 231.28 83.7376 231.693 83.87 232.14C84.0412 232.711 84.1221 233.304 84.11 233.9V239.65H82.8Z" fill="black"/>
<path d="M94.32 234.65C94.32 234.82 94.32 234.95 94.32 235.06C94.3298 235.17 94.3298 235.28 94.32 235.39H88C88.0297 235.852 88.1136 236.308 88.25 236.75C88.3733 237.109 88.5521 237.446 88.78 237.75C88.9927 238.028 89.2664 238.254 89.58 238.41C89.893 238.558 90.234 238.636 90.58 238.64C90.8313 238.642 91.0823 238.622 91.33 238.58C91.5487 238.546 91.7632 238.489 91.97 238.41C92.1772 238.333 92.3779 238.239 92.57 238.13C92.77 238.02 92.97 237.89 93.19 237.74L93.82 238.74C93.54 238.92 93.27 239.08 93.02 239.22C92.7685 239.352 92.5078 239.465 92.24 239.56C91.9695 239.652 91.6919 239.722 91.41 239.77C91.0788 239.817 90.7446 239.841 90.41 239.84C90.1134 239.837 89.8181 239.8 89.53 239.73C89.2224 239.648 88.9267 239.527 88.65 239.37C88.3515 239.2 88.0787 238.987 87.84 238.74C87.5752 238.461 87.3528 238.144 87.18 237.8C86.984 237.388 86.8363 236.956 86.74 236.51C86.6255 235.968 86.5718 235.414 86.58 234.86C86.5753 234.183 86.6731 233.508 86.87 232.86C87.0451 232.3 87.3232 231.778 87.69 231.32C88.0184 230.897 88.4391 230.555 88.92 230.32C89.4227 230.092 89.9682 229.975 90.52 229.975C91.0718 229.975 91.6173 230.092 92.12 230.32C92.5892 230.556 92.9967 230.898 93.31 231.32C93.6439 231.758 93.8885 232.258 94.03 232.79C94.2149 233.393 94.3126 234.019 94.32 234.65ZM93.06 234.29C93.034 233.864 92.9636 233.442 92.85 233.03C92.7451 232.671 92.5793 232.333 92.36 232.03C92.1531 231.759 91.8861 231.54 91.58 231.39C91.2422 231.232 90.8728 231.153 90.5 231.16C90.1571 231.154 89.8167 231.218 89.5 231.35C89.2013 231.48 88.9375 231.679 88.73 231.93C88.4911 232.228 88.3081 232.567 88.19 232.93C88.0398 233.373 87.949 233.833 87.92 234.3L93.06 234.29Z" fill="black"/>
<path d="M101.66 231.61C101.47 231.495 101.264 231.408 101.05 231.35C100.787 231.276 100.513 231.242 100.24 231.25C99.944 231.237 99.6495 231.299 99.3838 231.43C99.1181 231.561 98.8897 231.757 98.72 232C98.3336 232.633 98.1487 233.369 98.19 234.11V239.65H96.84V230.21H98.19V231.37C98.305 231.178 98.4426 231 98.6 230.84C98.7633 230.673 98.9483 230.528 99.15 230.41C99.3539 230.284 99.5721 230.184 99.8 230.11C100.037 230.039 100.283 230.001 100.53 230C100.825 229.993 101.12 230.017 101.41 230.07C101.616 230.105 101.817 230.162 102.01 230.24L101.66 231.61Z" fill="black"/>
<path d="M109 239.65V238.5C108.831 238.688 108.647 238.862 108.45 239.02C108.246 239.192 108.021 239.336 107.78 239.45C107.527 239.576 107.263 239.676 106.99 239.75C106.685 239.823 106.373 239.86 106.06 239.86C105.688 239.86 105.318 239.81 104.96 239.71C104.592 239.62 104.249 239.445 103.96 239.2C103.661 238.946 103.422 238.628 103.26 238.27C103.066 237.812 102.974 237.317 102.99 236.82C102.981 236.348 103.088 235.881 103.3 235.46C103.494 235.091 103.767 234.77 104.1 234.52C104.447 234.265 104.841 234.082 105.26 233.98C105.703 233.859 106.161 233.798 106.62 233.8C107.065 233.794 107.509 233.848 107.94 233.96C108.289 234.045 108.626 234.176 108.94 234.35V233.23C108.986 232.658 108.806 232.091 108.44 231.65C108.229 231.465 107.983 231.324 107.717 231.237C107.451 231.149 107.169 231.116 106.89 231.14C106.426 231.134 105.965 231.198 105.52 231.33C105.102 231.463 104.7 231.641 104.32 231.86L103.82 230.76C104.275 230.525 104.755 230.34 105.25 230.21C105.822 230.065 106.41 229.995 107 230C107.466 229.994 107.931 230.055 108.38 230.18C108.75 230.282 109.092 230.466 109.38 230.72C109.676 230.972 109.903 231.296 110.04 231.66C110.206 232.107 110.284 232.583 110.27 233.06V239.65H109ZM109 235.43C108.849 235.34 108.692 235.26 108.53 235.19L107.99 235.02C107.779 234.974 107.565 234.94 107.35 234.92C107.094 234.904 106.836 234.904 106.58 234.92C105.994 234.884 105.414 235.054 104.94 235.4C104.745 235.571 104.591 235.784 104.491 236.023C104.39 236.262 104.346 236.521 104.36 236.78C104.355 237.089 104.403 237.397 104.5 237.69C104.583 237.923 104.716 238.134 104.89 238.31C105.061 238.48 105.27 238.607 105.5 238.68C105.755 238.763 106.022 238.803 106.29 238.8C106.848 238.805 107.397 238.66 107.88 238.38C108.108 238.257 108.319 238.105 108.51 237.93C108.694 237.763 108.859 237.575 109 237.37V235.43Z" fill="black"/>
<path d="M113.33 239.65V227.29L114.68 226.53V239.65H113.33Z" fill="black"/>
<path d="M62.14 249.91C61.9573 249.656 61.7532 249.419 61.53 249.2C61.3397 249.009 61.1244 248.844 60.89 248.71C60.6578 248.573 60.4043 248.475 60.14 248.42C59.8386 248.349 59.5296 248.315 59.22 248.32C58.6975 248.315 58.183 248.449 57.73 248.71C57.2611 248.969 56.8602 249.336 56.56 249.78C56.209 250.281 55.9484 250.839 55.79 251.43C55.5952 252.113 55.5009 252.82 55.51 253.53C55.5016 254.243 55.5959 254.954 55.79 255.64C55.958 256.232 56.2215 256.793 56.57 257.3C56.8841 257.738 57.2859 258.106 57.75 258.38C58.2043 258.637 58.7179 258.772 59.24 258.77C59.8555 258.784 60.4635 258.632 61 258.33C61.5208 258.009 61.9784 257.596 62.35 257.11L63.35 257.96C63.1229 258.269 62.8649 258.554 62.58 258.81C62.2903 259.064 61.9714 259.282 61.63 259.46C61.2792 259.651 60.9064 259.799 60.52 259.9C60.0978 260.003 59.6645 260.053 59.23 260.05C58.2652 260.053 57.324 259.752 56.54 259.19C56.159 258.908 55.822 258.571 55.54 258.19C55.2344 257.786 54.9792 257.346 54.78 256.88C54.5624 256.38 54.4046 255.857 54.31 255.32C54.1957 254.74 54.1388 254.151 54.14 253.56C54.1327 252.682 54.2608 251.809 54.52 250.97C54.7464 250.222 55.1055 249.521 55.58 248.9C56.0197 248.335 56.5756 247.871 57.21 247.54C57.8525 247.208 58.5669 247.04 59.29 247.05C60.078 247.031 60.8593 247.199 61.57 247.54C62.2601 247.901 62.8534 248.422 63.3 249.06L62.14 249.91Z" fill="black"/>
<path d="M73.18 255.06C73.1952 255.783 73.087 256.503 72.86 257.19C72.667 257.764 72.3685 258.296 71.98 258.76C71.6196 259.187 71.1687 259.529 70.66 259.76C70.1489 259.982 69.5971 260.094 69.04 260.09C68.4872 260.093 67.9395 259.984 67.43 259.77C66.9347 259.558 66.4938 259.236 66.14 258.83C65.7557 258.379 65.4665 257.855 65.29 257.29C65.0671 256.606 64.959 255.889 64.97 255.17C64.9511 254.433 65.0629 253.698 65.3 253C65.4827 252.428 65.7824 251.9 66.18 251.45C66.5435 251.041 66.9948 250.72 67.5 250.51C68.0088 250.293 68.557 250.184 69.11 250.19C69.661 250.185 70.2077 250.287 70.72 250.49C71.2128 250.702 71.6531 251.019 72.01 251.42C72.3974 251.863 72.6901 252.38 72.87 252.94C73.0904 253.625 73.1952 254.341 73.18 255.06ZM71.83 255.06C71.837 254.51 71.7697 253.962 71.63 253.43C71.5171 253.012 71.3272 252.618 71.07 252.27C70.8434 251.967 70.5442 251.727 70.2 251.57C69.8479 251.412 69.4661 251.33 69.08 251.33C68.6939 251.33 68.3121 251.412 67.96 251.57C67.6158 251.727 67.3166 251.967 67.09 252.27C66.8323 252.617 66.6454 253.011 66.54 253.43C66.3954 253.961 66.3281 254.51 66.34 255.06C66.3281 255.613 66.3954 256.166 66.54 256.7C66.6456 257.125 66.8324 257.526 67.09 257.88C67.316 258.188 67.6149 258.436 67.96 258.6C68.3121 258.758 68.6939 258.84 69.08 258.84C69.4661 258.84 69.8479 258.758 70.2 258.6C70.5451 258.436 70.844 258.188 71.07 257.88C71.3271 257.524 71.5168 257.124 71.63 256.7C71.767 256.174 71.8343 255.633 71.83 255.09V255.06Z" fill="black"/>
<path d="M81.53 259.85V258.69C81.2614 259.107 80.8938 259.45 80.46 259.69C79.8144 260.024 79.0795 260.145 78.3608 260.035C77.6422 259.926 76.9768 259.591 76.46 259.08C75.8325 258.245 75.5272 257.212 75.6 256.17V250.4H77V255.93C76.94 256.713 77.1328 257.495 77.55 258.16C77.7547 258.405 78.0149 258.597 78.3089 258.72C78.6029 258.844 78.9221 258.895 79.24 258.87C79.5645 258.885 79.888 258.824 80.1848 258.692C80.4817 258.56 80.7436 258.361 80.95 258.11C81.4103 257.48 81.6334 256.708 81.58 255.93V250.4H82.93V259.85H81.53Z" fill="black"/>
<path d="M91.79 259.85V254.32C91.8523 253.535 91.6632 252.75 91.25 252.08C91.0463 251.834 90.7866 251.64 90.4925 251.514C90.1985 251.389 89.8787 251.336 89.56 251.36C89.2443 251.357 88.9312 251.418 88.64 251.54C88.3542 251.654 88.1003 251.836 87.9 252.07C87.6708 252.338 87.5004 252.652 87.4 252.99C87.2711 253.421 87.2103 253.87 87.22 254.32V259.85H85.87V250.4H87.22V251.55C87.3539 251.348 87.5117 251.164 87.69 251C88.0611 250.661 88.5116 250.42 89 250.3C89.2709 250.229 89.5501 250.196 89.83 250.2C90.2928 250.192 90.7532 250.267 91.19 250.42C91.5749 250.569 91.918 250.809 92.19 251.12C92.4968 251.471 92.7252 251.884 92.86 252.33C93.0312 252.901 93.1121 253.494 93.1 254.09V259.85H91.79Z" fill="black"/>
<path d="M101.72 251.21L100.97 252.21C100.634 251.932 100.256 251.709 99.85 251.55C99.4512 251.414 99.0313 251.349 98.61 251.36C98.1971 251.335 97.7879 251.451 97.45 251.69C97.3184 251.786 97.2123 251.913 97.1408 252.059C97.0694 252.206 97.0347 252.367 97.04 252.53C97.0345 252.709 97.0687 252.886 97.14 253.05C97.2217 253.216 97.3376 253.362 97.48 253.48C97.6807 253.638 97.8988 253.772 98.13 253.88C98.4 254.02 98.73 254.18 99.13 254.36L100.32 254.94C100.644 255.101 100.943 255.306 101.21 255.55C101.447 255.766 101.638 256.028 101.77 256.32C101.903 256.661 101.968 257.024 101.96 257.39C101.972 257.807 101.875 258.221 101.68 258.59C101.501 258.917 101.252 259.201 100.95 259.42C100.644 259.632 100.306 259.794 99.95 259.9C99.5627 260.008 99.1622 260.062 98.76 260.06C98.1367 260.069 97.518 259.953 96.94 259.72C96.3956 259.508 95.8865 259.215 95.43 258.85L96.22 257.85C96.579 258.175 96.9918 258.436 97.44 258.62C97.8674 258.8 98.3265 258.891 98.79 258.89C99.2991 258.929 99.8064 258.795 100.23 258.51C100.385 258.38 100.508 258.215 100.59 258.03C100.671 257.844 100.709 257.642 100.7 257.44C100.703 257.256 100.662 257.075 100.58 256.91C100.491 256.732 100.365 256.575 100.21 256.45C100.001 256.275 99.7728 256.124 99.53 256C99.24 255.85 98.89 255.69 98.47 255.5C98.0508 255.334 97.6432 255.14 97.25 254.92C96.9447 254.763 96.6649 254.561 96.42 254.32C96.2043 254.118 96.0398 253.868 95.94 253.59C95.8306 253.268 95.7798 252.93 95.79 252.59C95.7879 252.255 95.8614 251.923 96.0051 251.62C96.1488 251.317 96.359 251.051 96.62 250.84C96.9018 250.622 97.2201 250.456 97.56 250.35C97.9415 250.23 98.3401 250.172 98.74 250.18C99.3288 250.169 99.9148 250.264 100.47 250.46C100.927 250.636 101.35 250.89 101.72 251.21Z" fill="black"/>
<path d="M111.53 254.85C111.53 255.01 111.53 255.15 111.53 255.25C111.53 255.35 111.53 255.47 111.53 255.58H105.23C105.251 256.046 105.335 256.507 105.48 256.95C105.598 257.311 105.778 257.649 106.01 257.95C106.22 258.231 106.495 258.457 106.81 258.61C107.123 258.759 107.464 258.837 107.81 258.84C108.065 258.842 108.319 258.822 108.57 258.78C108.789 258.748 109.004 258.691 109.21 258.61C109.415 258.535 109.612 258.441 109.8 258.33C110.014 258.212 110.221 258.082 110.42 257.94L111.06 258.94C110.78 259.12 110.51 259.28 110.25 259.42C110.004 259.556 109.746 259.67 109.48 259.76C109.206 259.851 108.925 259.921 108.64 259.97C108.309 260.017 107.975 260.041 107.64 260.04C107.343 260.037 107.048 260 106.76 259.93C106.452 259.851 106.155 259.73 105.88 259.57C105.585 259.399 105.315 259.187 105.08 258.94C104.815 258.661 104.593 258.344 104.42 258C104.218 257.594 104.067 257.164 103.97 256.72C103.861 256.173 103.807 255.617 103.81 255.06C103.804 254.382 103.906 253.707 104.11 253.06C104.277 252.502 104.553 251.982 104.92 251.53C105.249 251.107 105.669 250.765 106.15 250.53C106.655 250.31 107.199 250.196 107.75 250.196C108.301 250.196 108.845 250.31 109.35 250.53C109.819 250.767 110.226 251.109 110.54 251.53C110.874 251.968 111.118 252.468 111.26 253C111.439 253.6 111.529 254.224 111.53 254.85ZM110.27 254.48C110.244 254.054 110.174 253.632 110.06 253.22C109.954 252.863 109.792 252.526 109.58 252.22C109.37 251.952 109.104 251.733 108.8 251.58C108.462 251.422 108.093 251.343 107.72 251.35C107.377 251.344 107.037 251.409 106.72 251.54C106.423 251.673 106.159 251.871 105.95 252.12C105.713 252.419 105.53 252.758 105.41 253.12C105.268 253.564 105.181 254.024 105.15 254.49L110.27 254.48Z" fill="black"/>
<path d="M114.14 259.85V247.48L115.49 246.72V259.85H114.14Z" fill="black"/>
<path d="M79.45 414.94C75.17 415.12 71.97 413.07 69.57 409.8C49.4502 382.653 35.285 351.566 28 318.57C27.6144 316.961 27.5733 315.289 27.8794 313.662C28.1855 312.036 28.8318 310.493 29.7761 309.135C30.7203 307.776 31.9411 306.632 33.3584 305.778C34.7757 304.924 36.3575 304.38 38 304.18C71.4467 299.24 104.9 294.34 138.36 289.48C144.92 288.48 150.06 291.79 152.02 298.22C155.362 309.217 160.169 319.715 166.31 329.43C169.98 335.26 168.87 340.94 163.18 345.92C146.753 360.293 130.3 374.627 113.82 388.92C105.25 396.38 96.65 403.81 88.12 411.31C85.62 413.53 82.9 415.06 79.45 414.94Z" fill="white"/>
<path d="M90.34 321.26V332.58H88.93V321.26H85.23V320H94.05V321.28L90.34 321.26Z" fill="black"/>
<path d="M99.93 332.58V331.43C99.7588 331.616 99.5751 331.79 99.38 331.95C99.1738 332.118 98.949 332.263 98.71 332.38C98.4579 332.505 98.193 332.602 97.92 332.67C97.6164 332.748 97.3036 332.785 96.99 332.78C96.6183 332.78 96.2482 332.73 95.89 332.63C95.5224 332.543 95.18 332.372 94.89 332.13C94.5884 331.874 94.3491 331.552 94.19 331.19C93.9952 330.736 93.903 330.244 93.92 329.75C93.9052 329.278 94.012 328.809 94.23 328.39C94.4208 328.019 94.6946 327.698 95.03 327.45C95.3779 327.194 95.7717 327.007 96.19 326.9C96.6312 326.788 97.0847 326.73 97.54 326.73C97.9885 326.723 98.4359 326.777 98.87 326.89C99.2177 326.975 99.5535 327.103 99.87 327.27V326.16C99.9157 325.588 99.7363 325.021 99.37 324.58C99.1602 324.393 98.9147 324.251 98.6483 324.161C98.3819 324.072 98.1001 324.037 97.82 324.06C97.3559 324.057 96.8939 324.124 96.45 324.26C96.0305 324.389 95.6277 324.567 95.25 324.79L94.75 323.69C95.2012 323.446 95.6818 323.261 96.18 323.14C96.7454 322.996 97.3268 322.926 97.91 322.93C98.3755 322.926 98.8394 322.983 99.29 323.1C99.657 323.209 99.9974 323.393 100.29 323.64C100.584 323.898 100.811 324.224 100.95 324.59C101.117 325.037 101.195 325.513 101.18 325.99V332.58H99.93ZM99.93 328.35L99.46 328.12C99.284 328.051 99.1036 327.995 98.92 327.95C98.7091 327.9 98.4954 327.864 98.28 327.84C98.0534 327.84 97.7934 327.84 97.5 327.84C96.9174 327.806 96.341 327.975 95.87 328.32C95.674 328.488 95.5197 328.699 95.419 328.937C95.3184 329.175 95.2742 329.432 95.29 329.69C95.2838 329.999 95.3312 330.307 95.43 330.6C95.5068 330.839 95.6407 331.055 95.82 331.23C95.9911 331.4 96.2002 331.527 96.43 331.6C96.6817 331.683 96.9452 331.723 97.21 331.72C97.5002 331.721 97.7893 331.684 98.07 331.61C98.3284 331.537 98.5769 331.433 98.81 331.3C99.0356 331.173 99.2469 331.022 99.44 330.85C99.6244 330.683 99.7888 330.495 99.93 330.29V328.35Z" fill="black"/>
<path d="M109.39 332.58L107.22 328.8L105.05 332.58H103.64L106.56 327.7L103.84 323.13H105.34L107.34 326.58L109.34 323.13H110.75L108 327.67L110.92 332.58H109.39Z" fill="black"/>
<path d="M71.45 352.77V340.17H72.86V351.5H79.09V352.77H71.45Z" fill="black"/>
<path d="M88.62 347.77C88.62 347.94 88.62 348.07 88.62 348.18C88.62 348.29 88.62 348.4 88.62 348.51H82.32C82.3447 348.972 82.4288 349.429 82.57 349.87C82.6894 350.231 82.8686 350.569 83.1 350.87C83.3103 351.151 83.5846 351.377 83.9 351.53C84.2279 351.686 84.5871 351.764 84.95 351.76C85.2013 351.762 85.4522 351.741 85.7 351.7C85.9184 351.665 86.1328 351.608 86.34 351.53C86.5456 351.449 86.746 351.356 86.94 351.25C87.13 351.14 87.34 351.01 87.56 350.86L88.19 351.86C87.91 352.04 87.64 352.2 87.39 352.34C87.1376 352.47 86.8771 352.584 86.61 352.68C86.3391 352.771 86.0616 352.841 85.78 352.89C85.4488 352.937 85.1146 352.96 84.78 352.96C84.4801 352.957 84.1815 352.92 83.89 352.85C83.5831 352.766 83.2875 352.646 83.01 352.49C82.7146 352.319 82.4452 352.107 82.21 351.86C81.9452 351.581 81.7228 351.264 81.55 350.92C81.3497 350.51 81.2018 350.077 81.11 349.63C80.9918 349.088 80.9348 348.535 80.94 347.98C80.9337 347.302 81.035 346.627 81.24 345.98C81.414 345.422 81.6885 344.9 82.05 344.44C82.3883 344.025 82.8156 343.692 83.3004 343.465C83.7852 343.238 84.3149 343.124 84.85 343.13C85.4129 343.121 85.9705 343.241 86.48 343.48C86.9511 343.713 87.3592 344.056 87.67 344.48C88.0034 344.92 88.251 345.419 88.4 345.95C88.5528 346.544 88.6268 347.156 88.62 347.77ZM87.37 347.41C87.3458 346.983 87.2719 346.56 87.15 346.15C87.0536 345.79 86.8908 345.451 86.67 345.15C86.4631 344.879 86.1961 344.66 85.89 344.51C85.5522 344.352 85.1828 344.273 84.81 344.28C84.4674 344.276 84.1274 344.341 83.81 344.47C83.5128 344.603 83.2495 344.801 83.04 345.05C82.8015 345.347 82.6217 345.686 82.51 346.05C82.3598 346.493 82.269 346.953 82.24 347.42L87.37 347.41Z" fill="black"/>
<path d="M96.44 352.77V351.62C96.269 351.806 96.0852 351.98 95.89 352.14C95.6847 352.31 95.4597 352.454 95.22 352.57C94.9636 352.696 94.6957 352.796 94.42 352.87C94.1157 352.945 93.8033 352.982 93.49 352.98C93.1183 352.979 92.7483 352.929 92.39 352.83C92.0234 352.735 91.6821 352.561 91.39 352.32C91.0968 352.062 90.8617 351.745 90.7 351.39C90.5062 350.932 90.4141 350.437 90.43 349.94C90.4181 349.469 90.521 349.002 90.73 348.58C90.9272 348.211 91.2038 347.89 91.54 347.64C91.8859 347.389 92.2761 347.206 92.69 347.1C93.5724 346.874 94.4976 346.874 95.38 347.1C95.729 347.186 96.0652 347.317 96.38 347.49V346.37C96.4257 345.798 96.2463 345.231 95.88 344.79C95.6687 344.606 95.4228 344.466 95.1566 344.378C94.8904 344.291 94.6093 344.257 94.33 344.28C93.8663 344.273 93.4043 344.337 92.96 344.47C92.5389 344.603 92.1332 344.781 91.75 345L91.25 343.9C91.7093 343.667 92.192 343.482 92.69 343.35C93.2552 343.206 93.8367 343.135 94.42 343.14C94.8862 343.134 95.3509 343.195 95.8 343.32C96.1693 343.423 96.511 343.608 96.8 343.86C97.0903 344.118 97.3163 344.439 97.46 344.8C97.6214 345.249 97.6994 345.723 97.69 346.2V352.79L96.44 352.77ZM96.44 348.55C96.2852 348.46 96.1248 348.38 95.96 348.31C95.7863 348.244 95.6094 348.188 95.43 348.14C95.2187 348.095 95.0051 348.061 94.79 348.04C94.5303 348.023 94.2697 348.023 94.01 348.04C93.4272 348.004 92.8503 348.174 92.38 348.52C92.1832 348.69 92.0284 348.902 91.9278 349.142C91.8272 349.381 91.7834 349.641 91.8 349.9C91.7904 350.209 91.8379 350.518 91.94 350.81C92.0193 351.045 92.1529 351.257 92.33 351.43C92.4973 351.6 92.7031 351.727 92.93 351.8C93.1851 351.883 93.4519 351.923 93.72 351.92C94.0102 351.921 94.2993 351.884 94.58 351.81C94.8371 351.734 95.0852 351.63 95.32 351.5C95.5484 351.382 95.7575 351.231 95.94 351.05C96.1275 350.883 96.2953 350.695 96.44 350.49V348.55Z" fill="black"/>
<path d="M106.45 352.77V351.62C106.277 351.803 106.093 351.977 105.9 352.14C105.704 352.307 105.489 352.451 105.26 352.57C105.017 352.694 104.762 352.794 104.5 352.87C104.209 352.943 103.91 352.98 103.61 352.98C103.152 352.981 102.699 352.885 102.28 352.7C101.858 352.505 101.491 352.21 101.21 351.84C100.874 351.396 100.63 350.889 100.49 350.35C100.296 349.65 100.205 348.926 100.22 348.2C100.211 347.457 100.306 346.717 100.5 346C100.655 345.428 100.913 344.89 101.26 344.41C101.554 343.99 101.945 343.647 102.4 343.41C103.088 343.08 103.87 343.002 104.61 343.19C104.854 343.243 105.09 343.331 105.31 343.45C105.529 343.559 105.733 343.693 105.92 343.85C106.109 344.007 106.286 344.177 106.45 344.36V340.36L107.8 339.6V352.72L106.45 352.77ZM106.45 345.77C106.316 345.568 106.162 345.38 105.99 345.21C105.81 345.035 105.608 344.884 105.39 344.76C105.17 344.629 104.935 344.525 104.69 344.45C104.43 344.377 104.16 344.34 103.89 344.34C103.532 344.325 103.178 344.411 102.867 344.588C102.555 344.764 102.3 345.025 102.13 345.34C101.693 346.245 101.494 347.247 101.55 348.25C101.542 348.792 101.602 349.333 101.73 349.86C101.825 350.272 101.998 350.663 102.24 351.01C102.44 351.282 102.7 351.505 103 351.66C103.314 351.8 103.656 351.869 104 351.86C104.25 351.865 104.5 351.832 104.74 351.76C104.961 351.699 105.173 351.608 105.37 351.49C105.579 351.368 105.776 351.228 105.96 351.07C106.15 350.89 106.33 350.699 106.5 350.5L106.45 345.77Z" fill="black"/>
<path d="M118 347.77C118 347.94 118 348.07 118 348.18C118.01 348.29 118.01 348.4 118 348.51H111.7C111.73 348.972 111.814 349.428 111.95 349.87C112.073 350.231 112.255 350.569 112.49 350.87C112.698 351.153 112.973 351.38 113.29 351.53C113.602 351.68 113.944 351.758 114.29 351.76C114.541 351.762 114.792 351.742 115.04 351.7C115.259 351.666 115.473 351.609 115.68 351.53C115.887 351.453 116.088 351.359 116.28 351.25C116.48 351.14 116.68 351.01 116.9 350.86L117.53 351.86C117.25 352.04 116.98 352.2 116.73 352.34C116.479 352.474 116.219 352.587 115.95 352.68C115.679 352.772 115.402 352.843 115.12 352.89C114.789 352.937 114.455 352.961 114.12 352.96C113.823 352.957 113.528 352.92 113.24 352.85C112.932 352.768 112.637 352.647 112.36 352.49C112.061 352.32 111.789 352.107 111.55 351.86C111.285 351.581 111.063 351.264 110.89 350.92C110.694 350.508 110.546 350.076 110.45 349.63C110.335 349.088 110.282 348.534 110.29 347.98C110.285 347.303 110.383 346.628 110.58 345.98C110.757 345.421 111.035 344.899 111.4 344.44C111.728 344.017 112.149 343.675 112.63 343.44C113.133 343.212 113.678 343.095 114.23 343.095C114.782 343.095 115.327 343.212 115.83 343.44C116.299 343.676 116.707 344.018 117.02 344.44C117.354 344.878 117.598 345.378 117.74 345.91C117.915 346.514 118.002 347.141 118 347.77ZM116.74 347.41C116.714 346.984 116.644 346.562 116.53 346.15C116.425 345.791 116.259 345.453 116.04 345.15C115.833 344.879 115.566 344.66 115.26 344.51C114.922 344.352 114.553 344.273 114.18 344.28C113.837 344.274 113.497 344.338 113.18 344.47C112.881 344.6 112.617 344.799 112.41 345.05C112.171 345.348 111.988 345.687 111.87 346.05C111.72 346.493 111.629 346.953 111.6 347.42L116.74 347.41Z" fill="black"/>
<path d="M125.34 344.73C125.145 344.617 124.937 344.53 124.72 344.47C124.457 344.396 124.184 344.362 123.91 344.37C123.615 344.357 123.322 344.419 123.058 344.55C122.794 344.681 122.568 344.877 122.4 345.12C122.005 345.75 121.817 346.488 121.86 347.23V352.77H120.51V343.33H121.86V344.49C121.975 344.298 122.113 344.12 122.27 343.96C122.435 343.795 122.62 343.651 122.82 343.53C123.024 343.404 123.242 343.304 123.47 343.23C123.707 343.159 123.953 343.121 124.2 343.12C124.495 343.118 124.789 343.142 125.08 343.19C125.286 343.225 125.487 343.282 125.68 343.36L125.34 344.73Z" fill="black"/>
<path d="M182.62 493.25C181 493.291 179.393 492.948 177.93 492.25C147.231 480.499 119.258 462.596 95.73 439.64C89.73 433.79 89.88 426.54 96.07 421.09C121.17 399.03 146.293 377 171.44 355C177.28 349.88 182.91 349.93 188.8 354.88C196.778 361.656 205.639 367.318 215.14 371.71C222.97 375.3 225.21 380.38 222.76 388.66C213.427 420.18 204.11 451.693 194.81 483.2C192.84 489.82 188.74 493.27 182.62 493.25Z" fill="white"/>
<path d="M153.75 413.69C153.561 413.441 153.358 413.204 153.14 412.98C152.942 412.79 152.724 412.622 152.49 412.48C152.255 412.35 152.003 412.256 151.74 412.2C151.439 412.128 151.13 412.095 150.82 412.1C150.299 412.095 149.785 412.226 149.33 412.48C148.867 412.752 148.468 413.12 148.16 413.56C147.809 414.061 147.548 414.619 147.39 415.21C147.194 415.893 147.1 416.6 147.11 417.31C147.102 418.023 147.196 418.734 147.39 419.42C147.558 420.012 147.821 420.573 148.17 421.08C148.485 421.521 148.891 421.889 149.36 422.16C149.81 422.417 150.321 422.548 150.84 422.54C151.455 422.557 152.062 422.408 152.6 422.11C153.123 421.793 153.582 421.379 153.95 420.89L154.95 421.74C154.266 422.7 153.263 423.384 152.12 423.67C151.699 423.781 151.265 423.835 150.83 423.83C150.337 423.832 149.848 423.754 149.38 423.6C148.938 423.453 148.52 423.241 148.14 422.97C147.759 422.688 147.422 422.351 147.14 421.97C146.834 421.566 146.579 421.126 146.38 420.66C146.167 420.159 146.009 419.636 145.91 419.1C145.796 418.52 145.739 417.931 145.74 417.34C145.733 416.459 145.861 415.582 146.12 414.74C146.349 413.996 146.708 413.299 147.18 412.68C147.62 412.115 148.176 411.651 148.81 411.32C149.456 410.987 150.174 410.819 150.9 410.83C151.688 410.811 152.469 410.979 153.18 411.32C153.867 411.681 154.457 412.202 154.9 412.84L153.75 413.69Z" fill="black"/>
<path d="M164.64 423.63L161.94 418.26H158.94V423.63H157.53V411H162.53C163.052 410.994 163.571 411.069 164.07 411.22C164.524 411.349 164.946 411.57 165.31 411.87C165.665 412.174 165.948 412.553 166.14 412.98C166.354 413.482 166.459 414.024 166.45 414.57C166.458 415.023 166.384 415.474 166.23 415.9C166.097 416.267 165.897 416.606 165.64 416.9C165.375 417.205 165.056 417.459 164.7 417.65C164.318 417.859 163.907 418.007 163.48 418.09L166.25 423.57L164.64 423.63ZM164.87 413.57C164.745 413.277 164.549 413.019 164.3 412.82C164.05 412.623 163.76 412.483 163.45 412.41C163.122 412.338 162.786 412.305 162.45 412.31H159V417H162.35C162.72 417.004 163.089 416.963 163.45 416.88C163.771 416.815 164.074 416.682 164.34 416.49C164.596 416.294 164.793 416.031 164.91 415.73C165.044 415.383 165.109 415.012 165.1 414.64C165.09 414.272 165.012 413.91 164.87 413.57Z" fill="black"/>
<path d="M179.16 417.31C179.172 418.198 179.044 419.082 178.78 419.93C178.552 420.676 178.189 421.374 177.71 421.99C177.265 422.559 176.698 423.02 176.05 423.34C175.386 423.672 174.652 423.84 173.91 423.83C173.169 423.841 172.436 423.676 171.77 423.35C171.133 423.028 170.573 422.57 170.13 422.01C169.678 421.391 169.34 420.697 169.13 419.96C168.637 418.248 168.637 416.432 169.13 414.72C169.362 413.975 169.724 413.278 170.2 412.66C170.644 412.094 171.207 411.633 171.85 411.31C172.84 410.82 173.968 410.685 175.046 410.927C176.123 411.169 177.085 411.774 177.77 412.64C178.249 413.252 178.612 413.947 178.84 414.69C179.079 415.542 179.187 416.426 179.16 417.31ZM177.76 417.31C177.769 416.582 177.668 415.857 177.46 415.16C177.297 414.564 177.022 414.004 176.65 413.51C176.328 413.069 175.911 412.707 175.43 412.45C174.955 412.199 174.427 412.069 173.89 412.07C173.364 412.069 172.846 412.196 172.38 412.44C171.914 412.685 171.505 413.026 171.18 413.44C170.828 413.938 170.564 414.493 170.4 415.08C170.2 415.779 170.103 416.503 170.11 417.23C170.102 417.958 170.203 418.682 170.41 419.38C170.578 419.975 170.852 420.534 171.22 421.03C171.538 421.47 171.952 421.833 172.43 422.09C172.896 422.323 173.409 422.445 173.93 422.445C174.451 422.445 174.964 422.323 175.43 422.09C175.91 421.84 176.325 421.48 176.64 421.04C176.999 420.545 177.267 419.99 177.43 419.4C177.635 418.732 177.746 418.039 177.76 417.34V417.31Z" fill="black"/>
<path d="M144.6 445.8C144.26 445.58 143.91 445.33 143.54 445.04C143.17 444.746 142.816 444.432 142.48 444.1C142.123 443.741 141.789 443.361 141.48 442.96C141.166 442.545 140.895 442.099 140.67 441.63C140.441 441.149 140.26 440.647 140.13 440.13C139.992 439.577 139.924 439.01 139.93 438.44C139.923 437.844 139.99 437.249 140.13 436.67C140.257 436.133 140.438 435.61 140.67 435.11C140.894 434.631 141.166 434.175 141.48 433.75C141.789 433.349 142.123 432.969 142.48 432.61C142.816 432.278 143.17 431.964 143.54 431.67C143.879 431.401 144.233 431.15 144.6 430.92L145.11 431.5C144.595 431.922 144.108 432.377 143.65 432.86C143.207 433.322 142.821 433.836 142.5 434.39C142.166 434.953 141.911 435.558 141.74 436.19C141.554 436.884 141.463 437.601 141.47 438.32C141.461 439.065 141.552 439.809 141.74 440.53C141.909 441.165 142.164 441.775 142.5 442.34C142.821 442.891 143.207 443.401 143.65 443.86C144.111 444.337 144.598 444.788 145.11 445.21L144.6 445.8Z" fill="black"/>
<path d="M154.41 443.82L151.72 438.46H148.72V443.82H147.31V431.21H152.31C152.835 431.209 153.357 431.283 153.86 431.43C154.313 431.561 154.735 431.782 155.1 432.08C155.457 432.386 155.741 432.769 155.93 433.2C156.141 433.699 156.244 434.238 156.23 434.78C156.236 435.232 156.165 435.682 156.02 436.11C155.888 436.493 155.688 436.848 155.43 437.16C155.162 437.459 154.844 437.71 154.49 437.9C154.104 438.107 153.69 438.256 153.26 438.34L156.04 443.82H154.41ZM154.64 433.77C154.525 433.471 154.332 433.208 154.08 433.01C153.83 432.816 153.539 432.679 153.23 432.61C152.903 432.53 152.567 432.493 152.23 432.5H148.7V437.19H152.05C152.419 437.192 152.788 437.155 153.15 437.08C153.468 437.009 153.767 436.873 154.03 436.68C154.289 436.489 154.49 436.229 154.61 435.93C154.744 435.583 154.808 435.212 154.8 434.84C154.819 434.476 154.764 434.112 154.64 433.77Z" fill="black"/>
<path d="M160.87 431.72C160.867 431.847 160.84 431.973 160.79 432.09C160.739 432.202 160.668 432.304 160.58 432.39C160.497 432.482 160.395 432.554 160.28 432.6C160.17 432.648 160.05 432.672 159.93 432.67C159.793 432.673 159.658 432.649 159.53 432.6C159.414 432.55 159.309 432.479 159.22 432.39C159.132 432.304 159.061 432.202 159.01 432.09C158.96 431.973 158.933 431.847 158.93 431.72C158.932 431.589 158.959 431.46 159.01 431.34C159.111 431.107 159.297 430.921 159.53 430.82C159.658 430.771 159.793 430.747 159.93 430.75C160.05 430.748 160.17 430.772 160.28 430.82C160.395 430.866 160.497 430.938 160.58 431.03C160.669 431.119 160.74 431.224 160.79 431.34C160.841 431.46 160.868 431.589 160.87 431.72ZM159.22 443.82V434.37H160.58V443.82H159.22Z" fill="black"/>
<path d="M169.27 435.18L168.51 436.18C168.173 435.903 167.795 435.681 167.39 435.52C166.995 435.383 166.578 435.318 166.16 435.33C165.747 435.303 165.337 435.42 165 435.66C164.867 435.755 164.758 435.881 164.685 436.028C164.612 436.174 164.576 436.336 164.58 436.5C164.579 436.678 164.613 436.855 164.68 437.02C164.766 437.186 164.885 437.332 165.03 437.45C165.229 437.608 165.443 437.745 165.67 437.86L166.67 438.33L167.86 438.91C168.18 439.077 168.479 439.281 168.75 439.52C168.984 439.736 169.171 439.998 169.3 440.29C169.441 440.629 169.509 440.993 169.5 441.36C169.507 441.777 169.411 442.189 169.22 442.56C169.04 442.89 168.787 443.173 168.48 443.39C168.179 443.611 167.84 443.774 167.48 443.87C167.089 443.978 166.685 444.032 166.28 444.03C165.658 444.034 165.041 443.922 164.46 443.7C163.918 443.478 163.41 443.182 162.95 442.82L163.74 441.82C164.1 442.143 164.513 442.404 164.96 442.59C165.391 442.769 165.853 442.86 166.32 442.86C166.829 442.899 167.336 442.765 167.76 442.48C167.914 442.349 168.036 442.185 168.115 441.999C168.195 441.813 168.231 441.612 168.22 441.41C168.225 441.227 168.188 441.046 168.11 440.88C168.018 440.704 167.892 440.548 167.74 440.42C167.51 440.252 167.262 440.111 167 440C166.72 439.85 166.36 439.69 165.94 439.51C165.52 439.33 165.06 439.11 164.73 438.93C164.423 438.766 164.141 438.561 163.89 438.32C163.682 438.114 163.521 437.865 163.42 437.59C163.301 437.271 163.247 436.931 163.26 436.59C163.258 436.244 163.333 435.903 163.48 435.59C163.626 435.293 163.838 435.033 164.1 434.83C164.375 434.605 164.691 434.435 165.03 434.33C165.413 434.215 165.81 434.158 166.21 434.16C166.799 434.147 167.385 434.242 167.94 434.44C168.422 434.61 168.872 434.86 169.27 435.18Z" fill="black"/>
<path d="M177.43 443.82L175.04 438.82L173.41 441.07V443.79H172.05V431.45L173.41 430.7V439.31L176.88 434.37H178.39L175.9 437.72L178.9 443.82H177.43Z" fill="black"/>
<path d="M184.9 438.27C184.907 438.866 184.84 439.461 184.7 440.04C184.578 440.578 184.396 441.101 184.16 441.6C183.936 442.079 183.664 442.535 183.35 442.96C183.047 443.365 182.712 443.746 182.35 444.1C182.016 444.435 181.662 444.749 181.29 445.04C180.952 445.314 180.598 445.568 180.23 445.8L179.73 445.21C180.245 444.788 180.732 444.333 181.19 443.85C181.633 443.387 182.019 442.874 182.34 442.32C182.674 441.761 182.929 441.158 183.1 440.53C183.287 439.832 183.378 439.112 183.37 438.39C183.379 437.645 183.288 436.901 183.1 436.18C182.931 435.545 182.676 434.935 182.34 434.37C182.016 433.821 181.63 433.311 181.19 432.85C180.729 432.373 180.242 431.922 179.73 431.5L180.23 430.92C180.599 431.148 180.953 431.398 181.29 431.67C181.662 431.961 182.016 432.275 182.35 432.61C182.712 432.964 183.047 433.345 183.35 433.75C183.662 434.166 183.933 434.612 184.16 435.08C184.393 435.559 184.574 436.062 184.7 436.58C184.838 437.133 184.906 437.7 184.9 438.27Z" fill="black"/>
<path d="M265.13 508.12C248.577 508.244 232.056 506.628 215.84 503.3C207.4 501.61 203.5 495.3 205.99 486.94C215.523 454.94 225.107 422.957 234.74 390.99C236.9 383.81 241.15 380.82 248.62 381.61C259.928 382.852 271.344 382.721 282.62 381.22C285.351 380.921 288.098 381.608 290.368 383.155C292.637 384.702 294.28 387.009 295 389.66C304.653 422.147 314.257 454.653 323.81 487.18C326.18 495.28 322.18 501.59 313.91 503.18C297.865 506.51 281.517 508.165 265.13 508.12Z" fill="white"/>
<path d="M256.85 443.34C256.669 443.085 256.465 442.847 256.24 442.63C256.047 442.435 255.828 442.267 255.59 442.13C255.357 441.993 255.104 441.895 254.84 441.84C254.538 441.777 254.229 441.747 253.92 441.75C253.399 441.745 252.885 441.876 252.43 442.13C251.965 442.395 251.565 442.761 251.26 443.2C250.913 443.703 250.653 444.261 250.49 444.85C250.304 445.534 250.213 446.241 250.22 446.95C250.211 447.663 250.305 448.374 250.5 449.06C250.662 449.654 250.926 450.216 251.28 450.72C251.592 451.16 251.994 451.529 252.46 451.8C252.911 452.056 253.421 452.19 253.94 452.19C254.556 452.205 255.164 452.053 255.7 451.75C256.225 451.439 256.684 451.028 257.05 450.54L258.05 451.38C257.82 451.686 257.562 451.971 257.28 452.23C256.986 452.481 256.668 452.703 256.33 452.89C255.976 453.079 255.6 453.224 255.21 453.32C254.791 453.422 254.361 453.472 253.93 453.47C253.438 453.476 252.948 453.401 252.48 453.25C252.032 453.104 251.61 452.888 251.23 452.61C250.854 452.323 250.517 451.986 250.23 451.61C249.928 451.209 249.676 450.772 249.48 450.31C249.264 449.809 249.103 449.286 249 448.75C248.89 448.167 248.836 447.574 248.84 446.98C248.833 446.102 248.962 445.229 249.22 444.39C249.442 443.643 249.802 442.945 250.28 442.33C250.714 441.761 251.267 441.294 251.9 440.96C252.548 440.633 253.264 440.465 253.99 440.47C254.778 440.455 255.558 440.623 256.27 440.96C256.958 441.323 257.551 441.844 258 442.48L256.85 443.34Z" fill="black"/>
<path d="M264.77 442V453.32H263.36V442H259.66V440.72H268.48V442H264.77Z" fill="black"/>
<path d="M280.93 447C280.942 447.888 280.814 448.772 280.55 449.62C280.324 450.367 279.961 451.066 279.48 451.68C279.036 452.252 278.468 452.717 277.82 453.04C277.154 453.364 276.421 453.528 275.68 453.52C274.939 453.531 274.206 453.366 273.54 453.04C272.9 452.721 272.34 452.263 271.9 451.7C271.452 451.097 271.113 450.42 270.9 449.7C270.393 447.993 270.393 446.177 270.9 444.47C271.126 443.72 271.488 443.018 271.97 442.4C272.418 441.84 272.98 441.383 273.62 441.06C274.284 440.727 275.018 440.559 275.76 440.57C276.498 440.561 277.228 440.725 277.89 441.05C278.534 441.367 279.098 441.825 279.54 442.39C280.014 442.987 280.377 443.664 280.61 444.39C280.849 445.239 280.957 446.119 280.93 447ZM279.53 447C279.538 446.272 279.437 445.548 279.23 444.85C279.062 444.255 278.788 443.696 278.42 443.2C278.095 442.759 277.674 442.397 277.19 442.14C276.719 441.891 276.193 441.764 275.66 441.77C275.134 441.764 274.614 441.892 274.15 442.14C273.681 442.381 273.272 442.723 272.95 443.14C272.598 443.638 272.334 444.193 272.17 444.78C271.97 445.479 271.873 446.203 271.88 446.93C271.871 447.658 271.972 448.383 272.18 449.08C272.346 449.676 272.617 450.238 272.98 450.74C273.304 451.176 273.721 451.534 274.2 451.79C274.67 452.042 275.196 452.172 275.73 452.17C276.257 452.177 276.776 452.05 277.24 451.8C277.712 451.559 278.125 451.218 278.45 450.8C278.808 450.3 279.075 449.742 279.24 449.15C279.44 448.451 279.538 447.727 279.53 447Z" fill="black"/>
<path d="M245.23 475.44C244.89 475.22 244.557 474.97 244.23 474.69C243.855 474.398 243.501 474.08 243.17 473.74C242.809 473.386 242.474 473.005 242.17 472.6C241.865 472.184 241.597 471.743 241.37 471.28C241.138 470.796 240.954 470.29 240.82 469.77C240.686 469.217 240.619 468.649 240.62 468.08C240.619 467.484 240.686 466.89 240.82 466.31C240.954 465.774 241.138 465.251 241.37 464.75C241.595 464.277 241.863 463.825 242.17 463.4C242.474 462.995 242.809 462.614 243.17 462.26C243.501 461.92 243.855 461.602 244.23 461.31C244.59 461.03 244.923 460.78 245.23 460.56L245.74 461.15C245.223 461.569 244.735 462.024 244.28 462.51C243.84 462.975 243.455 463.488 243.13 464.04C242.802 464.601 242.55 465.203 242.38 465.83C242.185 466.526 242.091 467.247 242.1 467.97C242.089 468.713 242.183 469.454 242.38 470.17C242.55 470.804 242.802 471.412 243.13 471.98C243.452 472.53 243.838 473.04 244.28 473.5C244.738 473.98 245.225 474.431 245.74 474.85L245.23 475.44Z" fill="black"/>
<path d="M252.3 462.14V473.46H250.89V462.14H247.18V460.86H256V462.14H252.3Z" fill="black"/>
<path d="M263.74 468.46C263.74 468.62 263.74 468.76 263.74 468.87C263.74 468.98 263.74 469.09 263.74 469.2H257.44C257.466 469.662 257.55 470.119 257.69 470.56C257.809 470.921 257.989 471.259 258.22 471.56C258.43 471.841 258.705 472.067 259.02 472.22C259.333 472.368 259.674 472.447 260.02 472.45C260.271 472.452 260.522 472.431 260.77 472.39C260.987 472.35 261.201 472.293 261.41 472.22C261.616 472.139 261.816 472.046 262.01 471.94C262.2 471.82 262.41 471.7 262.63 471.55L263.26 472.55C263.001 472.728 262.73 472.888 262.45 473.03C262.204 473.169 261.946 473.286 261.68 473.38C261.41 473.472 261.132 473.539 260.85 473.58C260.519 473.632 260.185 473.655 259.85 473.65C259.234 473.649 258.628 473.491 258.09 473.19C257.797 473.012 257.528 472.797 257.29 472.55C257.023 472.273 256.8 471.955 256.63 471.61C256.424 471.206 256.276 470.775 256.19 470.33C256.072 469.788 256.015 469.235 256.02 468.68C256.014 468.002 256.115 467.327 256.32 466.68C256.487 466.119 256.763 465.596 257.13 465.14C257.464 464.719 257.888 464.378 258.37 464.14C258.857 463.908 259.391 463.792 259.93 463.8C260.493 463.791 261.05 463.911 261.56 464.15C262.029 464.386 262.437 464.728 262.75 465.15C263.083 465.59 263.331 466.089 263.48 466.62C263.649 467.219 263.736 467.838 263.74 468.46ZM262.49 468.1C262.463 467.673 262.389 467.251 262.27 466.84C262.168 466.482 262.006 466.143 261.79 465.84C261.586 465.566 261.318 465.347 261.01 465.2C260.672 465.042 260.303 464.963 259.93 464.97C259.587 464.96 259.246 465.025 258.93 465.16C258.633 465.293 258.369 465.491 258.16 465.74C257.921 466.037 257.742 466.376 257.63 466.74C257.478 467.182 257.387 467.643 257.36 468.11L262.49 468.1Z" fill="black"/>
<path d="M272.78 472.35C272.582 472.547 272.372 472.73 272.15 472.9C271.933 473.058 271.702 473.195 271.46 473.31C271.203 473.425 270.935 473.512 270.66 473.57C270.357 473.632 270.049 473.662 269.74 473.66C269.228 473.662 268.721 473.56 268.25 473.36C267.764 473.16 267.33 472.852 266.98 472.46C266.582 472.016 266.279 471.495 266.09 470.93C265.63 469.503 265.63 467.967 266.09 466.54C266.294 465.967 266.611 465.44 267.02 464.99C267.384 464.598 267.832 464.294 268.33 464.1C268.794 463.913 269.289 463.814 269.79 463.81C270.376 463.799 270.958 463.908 271.5 464.13C271.965 464.33 272.396 464.6 272.78 464.93L271.97 465.93C271.807 465.784 271.637 465.647 271.46 465.52C271.297 465.403 271.123 465.302 270.94 465.22C270.759 465.131 270.568 465.068 270.37 465.03C270.152 464.988 269.931 464.968 269.71 464.97C269.362 464.973 269.019 465.058 268.71 465.22C268.384 465.388 268.103 465.632 267.89 465.93C267.64 466.281 267.454 466.674 267.34 467.09C267.197 467.601 267.13 468.13 267.14 468.66C267.134 469.189 267.194 469.716 267.32 470.23C267.422 470.66 267.598 471.07 267.84 471.44C268.056 471.759 268.344 472.023 268.68 472.21C269.024 472.394 269.41 472.487 269.8 472.48C270.015 472.478 270.23 472.455 270.44 472.41C270.629 472.36 270.813 472.293 270.99 472.21C271.164 472.12 271.332 472.016 271.49 471.9C271.65 471.77 271.81 471.63 271.98 471.47L272.78 472.35Z" fill="black"/>
<path d="M281.1 473.46V467.93C281.161 467.145 280.972 466.361 280.56 465.69C280.355 465.446 280.095 465.253 279.801 465.13C279.507 465.006 279.188 464.955 278.87 464.98C278.555 464.979 278.243 465.036 277.95 465.15C277.666 465.267 277.413 465.449 277.21 465.68C276.983 465.95 276.813 466.263 276.71 466.6C276.582 467.031 276.521 467.48 276.53 467.93V473.46H275.18V461.1L276.53 460.34V465.16C276.665 464.962 276.822 464.781 277 464.62C277.178 464.452 277.376 464.308 277.59 464.19C277.818 464.069 278.06 463.975 278.31 463.91C278.582 463.844 278.86 463.811 279.14 463.81C279.603 463.806 280.064 463.884 280.5 464.04C280.884 464.186 281.227 464.423 281.5 464.73C281.809 465.084 282.037 465.5 282.17 465.95C282.341 466.517 282.422 467.108 282.41 467.7V473.46H281.1Z" fill="black"/>
<path d="M289.14 467.92C289.146 468.516 289.079 469.11 288.94 469.69C288.81 470.226 288.629 470.748 288.4 471.25C288.173 471.725 287.902 472.177 287.59 472.6C287.289 473.007 286.954 473.388 286.59 473.74C286.256 474.078 285.902 474.395 285.53 474.69C285.17 474.97 284.82 475.22 284.47 475.44L283.97 474.85C284.487 474.43 284.975 473.976 285.43 473.49C285.877 473.041 286.27 472.541 286.6 472C286.931 471.44 287.187 470.838 287.36 470.21C287.547 469.512 287.638 468.792 287.63 468.07C287.638 467.325 287.547 466.581 287.36 465.86C287.185 465.23 286.93 464.625 286.6 464.06C286.281 463.508 285.895 462.997 285.45 462.54C284.995 462.057 284.507 461.606 283.99 461.19L284.49 460.6C284.83 460.82 285.18 461.07 285.55 461.35C285.922 461.645 286.276 461.962 286.61 462.3C286.972 462.65 287.306 463.028 287.61 463.43C287.92 463.848 288.191 464.293 288.42 464.76C288.651 465.244 288.832 465.75 288.96 466.27C289.089 466.81 289.15 467.365 289.14 467.92Z" fill="black"/>
<path d="M349.32 350.76C352.124 350.93 354.797 352.004 356.94 353.82C382.747 376.233 408.567 398.643 434.4 421.05C439.98 425.92 439.76 433.54 434.04 439.13C418.9 453.967 401.87 466.744 383.39 477.13C373.603 482.634 363.449 487.458 353 491.57C344.79 494.82 338 491.52 335.58 482.99C326.353 450.923 317.16 418.84 308 386.74C305.93 379.53 308.27 374.45 315 371.16C324.306 366.641 332.983 360.926 340.81 354.16C343.163 352.068 346.173 350.865 349.32 350.76Z" fill="white"/>
<path d="M362.14 420.83C361.954 420.579 361.75 420.342 361.53 420.12C361.335 419.927 361.116 419.759 360.88 419.62C360.646 419.487 360.393 419.389 360.13 419.33C359.827 419.267 359.519 419.237 359.21 419.24C358.689 419.235 358.175 419.366 357.72 419.62C357.255 419.885 356.856 420.251 356.55 420.69C356.199 421.191 355.938 421.749 355.78 422.34C355.586 423.023 355.492 423.73 355.5 424.44C355.492 425.156 355.586 425.87 355.78 426.56C355.946 427.15 356.21 427.707 356.56 428.21C356.87 428.656 357.277 429.025 357.75 429.29C358.199 429.55 358.711 429.685 359.23 429.68C359.844 429.692 360.451 429.544 360.99 429.25C361.509 428.927 361.966 428.514 362.34 428.03L363.34 428.87C363.116 429.181 362.858 429.466 362.57 429.72C362.28 429.971 361.965 430.192 361.63 430.38C361.274 430.566 360.899 430.71 360.51 430.81C360.088 430.913 359.655 430.963 359.22 430.96C358.728 430.965 358.238 430.891 357.77 430.74C357.325 430.594 356.907 430.378 356.53 430.1C356.149 429.819 355.811 429.481 355.53 429.1C355.224 428.696 354.969 428.256 354.77 427.79C354.557 427.289 354.399 426.766 354.3 426.23C354.187 425.65 354.13 425.061 354.13 424.47C354.123 423.589 354.251 422.712 354.51 421.87C354.739 421.126 355.098 420.429 355.57 419.81C356.008 419.244 356.564 418.78 357.2 418.45C357.842 418.115 358.556 417.943 359.28 417.95C360.072 417.933 360.857 418.104 361.57 418.45C362.259 418.808 362.85 419.33 363.29 419.97L362.14 420.83Z" fill="black"/>
<path d="M376.81 430.76H375.46V421.15L371.34 431.09L367.34 421.15V430.76H365.98V418.16H367.56L371.42 427.98L375.33 418.16H376.86L376.81 430.76Z" fill="black"/>
<path d="M390 424.44C390.007 425.328 389.879 426.211 389.62 427.06C389.39 427.808 389.028 428.51 388.55 429.13C388.103 429.697 387.536 430.158 386.89 430.48C386.224 430.804 385.491 430.968 384.75 430.96C384.009 430.971 383.276 430.806 382.61 430.48C381.967 430.167 381.405 429.708 380.97 429.14C380.493 428.529 380.137 427.834 379.92 427.09C379.413 425.383 379.413 423.567 379.92 421.86C380.147 421.111 380.513 420.412 381 419.8C381.444 419.234 382.007 418.773 382.65 418.45C383.315 418.121 384.048 417.954 384.79 417.96C385.528 417.951 386.258 418.115 386.92 418.44C387.56 418.763 388.122 419.22 388.57 419.78C389.05 420.39 389.41 421.086 389.63 421.83C389.891 422.675 390.016 423.556 390 424.44ZM388.6 424.44C388.608 423.709 388.507 422.981 388.3 422.28C388.124 421.689 387.85 421.131 387.49 420.63C387.163 420.191 386.743 419.829 386.26 419.57C385.789 419.321 385.263 419.194 384.73 419.2C384.203 419.193 383.684 419.32 383.22 419.57C382.75 419.808 382.339 420.15 382.02 420.57C381.666 421.067 381.402 421.622 381.24 422.21C381.036 422.908 380.938 423.633 380.95 424.36C380.943 425.09 381.041 425.817 381.24 426.52C381.416 427.111 381.69 427.669 382.05 428.17C382.377 428.606 382.793 428.967 383.27 429.23C383.736 429.463 384.249 429.585 384.77 429.585C385.291 429.585 385.804 429.463 386.27 429.23C386.741 428.971 387.15 428.612 387.47 428.18C387.833 427.686 388.104 427.13 388.27 426.54C388.488 425.874 388.612 425.18 388.64 424.48L388.6 424.44Z" fill="black"/>
<path d="M389.57 290.05L420.41 294.39C443.16 297.62 465.9 300.92 488.66 304.06C498.73 305.44 502.91 311.06 500.6 321C493.338 352.538 479.728 382.265 460.6 408.37C455.82 414.91 448.6 415.9 442.49 410.62C416.777 388.42 391.11 366.167 365.49 343.86C360.56 339.57 359.78 333.73 363.27 328.15C368.946 319.05 373.417 309.251 376.57 299C378.43 293 382.63 290 389.57 290.05Z" fill="white"/>
<path d="M427.85 332.56C427.661 332.311 427.458 332.074 427.24 331.85C427.047 331.658 426.828 331.493 426.59 331.36C426.358 331.223 426.104 331.125 425.84 331.07C425.539 330.998 425.23 330.965 424.92 330.97C424.398 330.968 423.884 331.103 423.43 331.36C422.965 331.625 422.565 331.991 422.26 332.43C421.909 332.931 421.648 333.489 421.49 334.08C421.299 334.764 421.205 335.47 421.21 336.18C421.206 336.893 421.301 337.603 421.49 338.29C421.657 338.884 421.924 339.446 422.28 339.95C422.589 340.392 422.992 340.761 423.46 341.03C423.911 341.286 424.422 341.417 424.94 341.41C425.555 341.428 426.163 341.28 426.7 340.98C427.226 340.666 427.684 340.251 428.05 339.76L429.05 340.61C428.822 340.918 428.56 341.2 428.27 341.45C427.987 341.71 427.671 341.932 427.33 342.11C426.977 342.302 426.601 342.447 426.21 342.54C425.789 342.651 425.355 342.705 424.92 342.7C423.955 342.703 423.014 342.402 422.23 341.84C421.849 341.558 421.512 341.221 421.23 340.84C420.924 340.436 420.669 339.996 420.47 339.53C420.263 339.037 420.106 338.524 420 338C419.89 337.42 419.836 336.83 419.84 336.24C419.83 335.36 419.955 334.483 420.21 333.64C420.443 332.898 420.801 332.201 421.27 331.58C421.71 331.015 422.266 330.551 422.9 330.22C423.546 329.888 424.264 329.72 424.99 329.73C425.778 329.711 426.559 329.879 427.27 330.22C427.957 330.581 428.547 331.102 428.99 331.74L427.85 332.56Z" fill="black"/>
<path d="M431.74 342.5V329.89H433.14V342.5H431.74Z" fill="black"/>
<path d="M444.28 339.18C444.285 339.655 444.189 340.125 444 340.56C443.815 340.988 443.539 341.37 443.19 341.68C442.799 342.008 442.352 342.262 441.87 342.43C441.303 342.618 440.708 342.709 440.11 342.7C439.693 342.698 439.278 342.654 438.87 342.57C438.475 342.486 438.09 342.362 437.72 342.2C437.369 342.051 437.034 341.866 436.72 341.65C436.421 341.441 436.14 341.207 435.88 340.95L436.81 339.9C437.267 340.347 437.79 340.722 438.36 341.01C438.921 341.282 439.537 341.419 440.16 341.41C440.544 341.413 440.928 341.366 441.3 341.27C441.609 341.178 441.897 341.029 442.15 340.83C442.38 340.648 442.565 340.415 442.69 340.15C442.818 339.867 442.883 339.56 442.88 339.25C442.884 338.979 442.833 338.71 442.73 338.46C442.622 338.201 442.454 337.972 442.24 337.79C441.96 337.547 441.647 337.345 441.31 337.19C440.846 336.954 440.364 336.754 439.87 336.59C439.282 336.391 438.71 336.147 438.16 335.86C437.747 335.658 437.369 335.391 437.04 335.07C436.763 334.807 436.554 334.481 436.43 334.12C436.295 333.735 436.231 333.328 436.24 332.92C436.233 332.451 436.332 331.986 436.53 331.56C436.716 331.17 436.99 330.827 437.33 330.56C437.698 330.27 438.119 330.056 438.57 329.93C439.093 329.776 439.635 329.702 440.18 329.71C440.569 329.707 440.957 329.737 441.34 329.8C441.68 329.857 442.015 329.944 442.34 330.06C442.642 330.177 442.933 330.321 443.21 330.49C443.49 330.657 443.757 330.844 444.01 331.05L443.12 332.15C442.9 331.97 442.669 331.803 442.43 331.65C442.209 331.505 441.974 331.381 441.73 331.28C441.485 331.181 441.23 331.107 440.97 331.06C440.68 331.006 440.385 330.979 440.09 330.98C439.714 330.972 439.34 331.023 438.98 331.13C438.698 331.213 438.436 331.352 438.21 331.54C438.024 331.702 437.877 331.903 437.78 332.13C437.689 332.356 437.641 332.597 437.64 332.84C437.638 333.081 437.676 333.321 437.75 333.55C437.85 333.783 438 333.992 438.19 334.16C438.467 334.395 438.773 334.593 439.1 334.75C439.595 334.994 440.107 335.204 440.63 335.38C441.233 335.586 441.818 335.841 442.38 336.14C442.794 336.353 443.172 336.63 443.5 336.96C443.771 337.245 443.976 337.587 444.1 337.96C444.224 338.355 444.285 338.766 444.28 339.18Z" fill="black"/>
<path d="M457.12 336.18C457.129 337.068 456.997 337.953 456.73 338.8C456.502 339.546 456.139 340.244 455.66 340.86C455.215 341.429 454.648 341.89 454 342.21C453.336 342.542 452.602 342.71 451.86 342.7C451.119 342.71 450.386 342.545 449.72 342.22C449.086 341.897 448.529 341.44 448.09 340.88C447.614 340.268 447.254 339.573 447.03 338.83C446.774 337.981 446.649 337.097 446.66 336.21C446.648 335.322 446.776 334.438 447.04 333.59C447.264 332.844 447.624 332.146 448.1 331.53C448.545 330.961 449.112 330.5 449.76 330.18C450.426 329.854 451.159 329.689 451.9 329.7C452.625 329.691 453.343 329.85 453.997 330.164C454.651 330.478 455.223 330.938 455.67 331.51C456.149 332.122 456.512 332.817 456.74 333.56C456.999 334.409 457.127 335.292 457.12 336.18ZM455.71 336.18C455.717 335.453 455.62 334.729 455.42 334.03C455.249 333.435 454.971 332.876 454.6 332.38C454.278 331.939 453.861 331.577 453.38 331.32C452.905 331.069 452.377 330.939 451.84 330.94C451.314 330.939 450.796 331.066 450.33 331.31C449.86 331.567 449.454 331.926 449.14 332.36C448.781 332.855 448.513 333.41 448.35 334C448.15 334.699 448.053 335.423 448.06 336.15C448.051 336.878 448.152 337.603 448.36 338.3C448.528 338.895 448.802 339.454 449.17 339.95C449.488 340.39 449.902 340.753 450.38 341.01C450.846 341.243 451.359 341.365 451.88 341.365C452.401 341.365 452.914 341.243 453.38 341.01C453.86 340.76 454.275 340.4 454.59 339.96C454.949 339.465 455.217 338.91 455.38 338.32C455.589 337.636 455.7 336.925 455.71 336.21V336.18Z" fill="black"/>
<path d="M506.66 265.54C506.66 269.8 506.79 274.07 506.66 278.33C506.29 288.15 500.98 292.8 491.33 291.52C474.06 289.22 456.81 286.75 439.55 284.33C423.95 282.15 408.353 279.953 392.76 277.74C385.46 276.74 381.37 272.28 381.37 265C381.315 254.524 379.879 244.101 377.1 234C375.01 226.21 377.24 221.26 384.57 218C415.03 204.313 445.517 190.67 476.03 177.07C483.48 173.75 490.19 176.81 492.98 184.68C502.286 210.612 506.918 237.99 506.66 265.54Z" fill="white"/>
<path d="M435.87 236.2C435.684 235.949 435.48 235.712 435.26 235.49C435.065 235.297 434.846 235.129 434.61 234.99C434.376 234.857 434.123 234.759 433.86 234.7C433.557 234.637 433.249 234.607 432.94 234.61C432.419 234.605 431.905 234.736 431.45 234.99C430.987 235.258 430.588 235.623 430.28 236.06C429.929 236.561 429.668 237.119 429.51 237.71C429.316 238.393 429.222 239.1 429.23 239.81C429.227 240.526 429.321 241.239 429.51 241.93C429.676 242.52 429.94 243.077 430.29 243.58C430.6 244.026 431.007 244.395 431.48 244.66C431.93 244.92 432.441 245.055 432.96 245.05C433.574 245.062 434.181 244.914 434.72 244.62C435.239 244.297 435.696 243.884 436.07 243.4L437.07 244.24C436.846 244.551 436.588 244.836 436.3 245.09C436.01 245.341 435.695 245.562 435.36 245.75C435.004 245.936 434.629 246.08 434.24 246.18C433.818 246.283 433.385 246.333 432.95 246.33C432.458 246.335 431.968 246.261 431.5 246.11C431.055 245.964 430.637 245.748 430.26 245.47C429.879 245.189 429.541 244.851 429.26 244.47C428.954 244.066 428.699 243.626 428.5 243.16C428.287 242.659 428.129 242.136 428.03 241.6C427.92 241.02 427.866 240.43 427.87 239.84C427.859 238.959 427.984 238.083 428.24 237.24C428.469 236.496 428.828 235.799 429.3 235.18C429.738 234.614 430.294 234.15 430.93 233.82C431.575 233.484 432.293 233.312 433.02 233.32C433.809 233.304 434.59 233.476 435.3 233.82C435.991 234.175 436.583 234.698 437.02 235.34L435.87 236.2Z" fill="black"/>
<path d="M447.34 246.13V240.19H441.07V246.13H439.66V233.53H441.07V238.92H447.34V233.53H448.74V246.13H447.34Z" fill="black"/>
<path d="M459.14 246.13L456.44 240.77H453.44V246.13H452.04V233.53H457.04C457.561 233.526 458.079 233.597 458.58 233.74C459.035 233.879 459.459 234.103 459.83 234.4C460.186 234.703 460.47 235.082 460.66 235.51C460.87 236.013 460.973 236.555 460.96 237.1C460.966 237.552 460.895 238.002 460.75 238.43C460.612 238.797 460.409 239.136 460.15 239.43C459.887 239.733 459.572 239.987 459.22 240.18C458.832 240.383 458.418 240.531 457.99 240.62L460.77 246.09L459.14 246.13ZM459.37 236.13C459.255 235.831 459.062 235.568 458.81 235.37C458.557 235.179 458.268 235.043 457.96 234.97C457.632 234.896 457.296 234.859 456.96 234.86H453.42V239.55H456.77C457.143 239.557 457.516 239.52 457.88 239.44C458.197 239.367 458.496 239.231 458.76 239.04C459.024 238.856 459.223 238.593 459.33 238.29C459.464 237.942 459.528 237.572 459.52 237.2C459.543 236.82 459.492 236.44 459.37 236.08V236.13Z" fill="black"/>
<path d="M473.67 239.81C473.677 240.698 473.549 241.581 473.29 242.43C473.057 243.179 472.691 243.88 472.21 244.5C471.765 245.069 471.198 245.53 470.55 245.85C469.882 246.165 469.153 246.329 468.415 246.329C467.677 246.329 466.948 246.165 466.28 245.85C465.637 245.537 465.075 245.078 464.64 244.51C464.165 243.915 463.806 243.237 463.58 242.51C463.08 240.802 463.08 238.988 463.58 237.28C463.804 236.532 464.167 235.833 464.65 235.22C465.094 234.654 465.657 234.193 466.3 233.87C466.966 233.551 467.696 233.385 468.435 233.385C469.174 233.385 469.904 233.551 470.57 233.87C471.21 234.193 471.772 234.65 472.22 235.21C472.691 235.807 473.05 236.485 473.28 237.21C473.542 238.052 473.674 238.928 473.67 239.81ZM472.26 239.81C472.267 239.08 472.169 238.353 471.97 237.65C471.794 237.059 471.52 236.501 471.16 236C470.833 235.561 470.413 235.199 469.93 234.94C469.459 234.691 468.933 234.564 468.4 234.57C467.87 234.564 467.348 234.691 466.88 234.94C466.413 235.179 466.006 235.521 465.69 235.94C465.332 236.436 465.065 236.991 464.9 237.58C464.705 238.28 464.61 239.004 464.62 239.73C464.608 240.46 464.706 241.188 464.91 241.89C465.086 242.481 465.36 243.039 465.72 243.54C466.044 243.978 466.461 244.34 466.94 244.6C467.411 244.85 467.937 244.977 468.47 244.97C468.995 244.973 469.513 244.85 469.98 244.61C470.451 244.351 470.86 243.992 471.18 243.56C471.541 243.091 471.819 242.564 472 242C472.189 241.299 472.276 240.575 472.26 239.85V239.81Z" fill="black"/>
<path d="M337.56 168.33C337.35 165.73 338.8 163.14 340.42 160.62L389.65 84.08C391.12 81.8 392.58 79.51 394.07 77.25C398.77 70.11 405.96 68.8 412.63 73.97C431.159 88.2892 447.521 105.211 461.21 124.21C466.507 131.524 471.385 139.133 475.82 147C479.96 154.42 477.82 161.38 470.07 164.94C439.623 178.98 409.15 193 378.65 207C372.56 209.79 366.65 208.26 363.02 202.7C356.941 193.389 349.647 184.931 341.33 177.55C338.79 175.26 337.6 172.29 337.56 168.33Z" fill="white"/>
<path d="M398.45 141.83C398.266 141.574 398.059 141.337 397.83 141.12C397.64 140.925 397.425 140.757 397.19 140.62C396.956 140.487 396.703 140.389 396.44 140.33C396.137 140.267 395.829 140.237 395.52 140.24C394.998 140.232 394.484 140.363 394.03 140.62C393.561 140.879 393.16 141.246 392.86 141.69C392.509 142.191 392.248 142.749 392.09 143.34C391.717 144.718 391.717 146.172 392.09 147.55C392.256 148.143 392.52 148.704 392.87 149.21C393.184 149.648 393.586 150.016 394.05 150.29C394.504 150.547 395.018 150.682 395.54 150.68C396.156 150.694 396.763 150.542 397.3 150.24C397.821 149.924 398.279 149.514 398.65 149.03L399.65 149.87C399.423 150.179 399.165 150.464 398.88 150.72C398.572 150.977 398.237 151.198 397.88 151.38C397.527 151.563 397.155 151.708 396.77 151.81C396.348 151.913 395.915 151.963 395.48 151.96C394.988 151.965 394.498 151.891 394.03 151.74C393.585 151.594 393.167 151.378 392.79 151.1C392.409 150.818 392.072 150.481 391.79 150.1C391.484 149.699 391.229 149.263 391.03 148.8C390.812 148.3 390.655 147.777 390.56 147.24C390.447 146.66 390.39 146.071 390.39 145.48C390.383 144.599 390.511 143.722 390.77 142.88C390.996 142.135 391.356 141.437 391.83 140.82C392.269 140.252 392.825 139.784 393.46 139.45C394.104 139.123 394.817 138.955 395.54 138.96C396.328 138.945 397.108 139.113 397.82 139.45C398.513 139.812 399.106 140.337 399.55 140.98L398.45 141.83Z" fill="black"/>
<path d="M412.16 145.44C412.172 146.328 412.044 147.212 411.78 148.06C411.554 148.807 411.191 149.506 410.71 150.12C410.266 150.692 409.698 151.157 409.05 151.48C408.384 151.804 407.651 151.968 406.91 151.96C406.169 151.971 405.436 151.806 404.77 151.48C404.13 151.161 403.57 150.703 403.13 150.14C402.664 149.541 402.309 148.864 402.08 148.14C401.587 146.432 401.587 144.618 402.08 142.91C402.31 142.162 402.672 141.46 403.15 140.84C403.598 140.28 404.16 139.823 404.8 139.5C405.464 139.168 406.198 139 406.94 139.01C407.681 139.002 408.414 139.166 409.08 139.49C409.719 139.81 410.279 140.267 410.72 140.83C411.197 141.425 411.56 142.103 411.79 142.83C412.045 143.676 412.169 144.556 412.16 145.44ZM410.76 145.44C410.769 144.709 410.668 143.981 410.46 143.28C410.292 142.685 410.018 142.126 409.65 141.63C409.328 141.189 408.911 140.827 408.43 140.57C407.955 140.322 407.426 140.195 406.89 140.2C406.364 140.194 405.844 140.322 405.38 140.57C404.911 140.811 404.502 141.153 404.18 141.57C403.828 142.068 403.564 142.623 403.4 143.21C403.2 143.909 403.103 144.633 403.11 145.36C403.101 146.088 403.202 146.813 403.41 147.51C403.576 148.106 403.847 148.668 404.21 149.17C404.534 149.606 404.951 149.964 405.43 150.22C405.9 150.472 406.426 150.602 406.96 150.6C407.487 150.607 408.006 150.48 408.47 150.23C408.943 149.992 409.357 149.65 409.68 149.23C410.039 148.731 410.307 148.173 410.47 147.58C410.666 146.897 410.764 146.19 410.76 145.48V145.44Z" fill="black"/>
<path d="M424.86 145.44C424.869 146.328 424.737 147.213 424.47 148.06C424.244 148.807 423.881 149.506 423.4 150.12C422.956 150.692 422.388 151.157 421.74 151.48C420.752 151.976 419.623 152.113 418.545 151.869C417.467 151.625 416.507 151.013 415.83 150.14C415.357 149.544 414.998 148.866 414.77 148.14C414.514 147.294 414.39 146.414 414.4 145.53C414.387 144.642 414.515 143.758 414.78 142.91C415.002 142.16 415.362 141.458 415.84 140.84C416.288 140.277 416.855 139.819 417.5 139.5C418.163 139.166 418.898 138.998 419.64 139.01C420.378 139.003 421.107 139.167 421.77 139.49C422.409 139.81 422.969 140.267 423.41 140.83C423.887 141.425 424.25 142.103 424.48 142.83C424.738 143.676 424.866 144.556 424.86 145.44ZM423.45 145.44C423.457 144.71 423.36 143.982 423.16 143.28C422.985 142.686 422.707 142.128 422.34 141.63C422.018 141.189 421.601 140.827 421.12 140.57C420.645 140.322 420.116 140.195 419.58 140.2C419.054 140.194 418.534 140.322 418.07 140.57C417.603 140.809 417.196 141.151 416.88 141.57C416.521 142.065 416.253 142.62 416.09 143.21C415.89 143.909 415.793 144.633 415.8 145.36C415.791 146.088 415.892 146.813 416.1 147.51C416.265 148.109 416.539 148.672 416.91 149.17C417.231 149.605 417.644 149.964 418.12 150.22C418.59 150.472 419.116 150.602 419.65 150.6C420.177 150.607 420.696 150.48 421.16 150.23C421.633 149.992 422.047 149.65 422.37 149.23C422.73 148.731 422.997 148.173 423.16 147.58C423.356 146.897 423.454 146.19 423.45 145.48V145.44Z" fill="black"/>
<path d="M271.19 87C271.19 71.23 271.6 55.45 271.06 39.71C270.65 27.89 278.61 23.45 288.06 24.49C318.669 27.7068 348.426 36.5197 375.85 50.49C378.71 51.96 381.72 53.24 383.75 55.93C386.89 60.1 386.94 65.34 383.75 70.4C374.023 85.6267 364.273 100.84 354.5 116.04C346.413 128.64 338.333 141.247 330.26 153.86C325.84 160.75 320.49 162.45 313.08 159.18C303.535 154.896 293.474 151.871 283.15 150.18C274.63 148.82 271.25 144.6 271.25 135.83C271.21 119.563 271.19 103.287 271.19 87Z" fill="white"/>
<path d="M309.24 87.37C309.054 87.1164 308.846 86.8789 308.62 86.66C308.43 86.4651 308.215 86.2969 307.98 86.16C307.746 86.0267 307.493 85.929 307.23 85.87C306.927 85.8074 306.619 85.7772 306.31 85.78C305.789 85.7751 305.275 85.906 304.82 86.16C304.355 86.4253 303.956 86.7908 303.65 87.23C303.299 87.7308 303.038 88.2893 302.88 88.88C302.686 89.5628 302.592 90.2702 302.6 90.98C302.592 91.6964 302.686 92.4103 302.88 93.1C303.046 93.6897 303.31 94.2475 303.66 94.75C303.973 95.193 304.379 95.5618 304.85 95.83C305.3 96.0902 305.811 96.2249 306.33 96.22C306.946 96.2339 307.553 96.082 308.09 95.78C308.611 95.464 309.069 95.0536 309.44 94.57L310.44 95.41C309.99 96.0344 309.405 96.5503 308.73 96.92C308.375 97.1061 307.999 97.2504 307.61 97.35C307.188 97.4526 306.755 97.503 306.32 97.5C305.828 97.5049 305.338 97.4306 304.87 97.28C304.425 97.1337 304.007 96.9176 303.63 96.64C303.247 96.3607 302.909 96.0233 302.63 95.64C302.324 95.2394 302.069 94.8028 301.87 94.34C301.652 93.8403 301.495 93.3167 301.4 92.78C301.287 92.2002 301.23 91.6108 301.23 91.02C301.223 90.139 301.351 89.2621 301.61 88.42C301.839 87.676 302.198 86.9786 302.67 86.36C303.094 85.7959 303.637 85.3317 304.26 85C304.902 84.6651 305.616 84.4934 306.34 84.5C307.129 84.4844 307.91 84.6558 308.62 85C309.315 85.3543 309.909 85.8769 310.35 86.52L309.24 87.37Z" fill="black"/>
<path d="M314.44 86V90.18H317.89V91.45H314.44V97.3H313V84.7H320.4V86H314.44Z" fill="black"/>
<path d="M332.82 91C332.829 91.8884 332.697 92.7727 332.43 93.62C332.204 94.3702 331.842 95.072 331.36 95.69C330.911 96.2682 330.335 96.7344 329.675 97.052C329.016 97.3695 328.292 97.5297 327.56 97.52C326.833 97.5325 326.113 97.3743 325.459 97.0582C324.804 96.7422 324.232 96.277 323.79 95.7C323.31 95.0901 322.95 94.3944 322.73 93.65C322.474 92.8041 322.349 91.9238 322.36 91.04C322.347 90.152 322.475 89.2677 322.74 88.42C322.96 87.6726 323.32 86.9737 323.8 86.36C324.244 85.7874 324.811 85.3225 325.46 85C326.126 84.6806 326.856 84.5148 327.595 84.5148C328.334 84.5148 329.064 84.6806 329.73 85C330.369 85.3195 330.929 85.7773 331.37 86.34C331.853 86.9494 332.216 87.645 332.44 88.39C332.7 89.2353 332.828 90.1156 332.82 91ZM331.41 91C331.417 90.2699 331.319 89.5425 331.12 88.84C330.945 88.2464 330.667 87.688 330.3 87.19C329.978 86.7492 329.561 86.3869 329.08 86.13C328.605 85.8811 328.076 85.754 327.54 85.76C327.014 85.7544 326.494 85.8816 326.03 86.13C325.563 86.3687 325.156 86.7107 324.84 87.13C324.481 87.625 324.213 88.1804 324.05 88.77C323.85 89.469 323.753 90.1931 323.76 90.92C323.751 91.6477 323.852 92.3726 324.06 93.07C324.225 93.6688 324.499 94.2318 324.87 94.73C325.193 95.1656 325.606 95.527 326.08 95.79C326.546 96.0232 327.059 96.1446 327.58 96.1446C328.101 96.1446 328.614 96.0232 329.08 95.79C329.551 95.5481 329.964 95.2069 330.29 94.79C330.649 94.295 330.917 93.7395 331.08 93.15C331.297 92.454 331.409 91.7292 331.41 91Z" fill="black"/>
</g>
<defs>
<pattern id="pattern0" patternContentUnits="objectBoundingBox" width="1" height="1">
<use xlink:href="#image0_96_2" transform="scale(0.0004158)"/>
</pattern>
<clipPath id="clip0_96_2">
<rect width="529.43" height="531.78" fill="white"/>
</clipPath>
</defs>
</svg>
