<svg xmlns="http://www.w3.org/2000/svg" xmlns:xlink="http://www.w3.org/1999/xlink" viewBox="0 0 387.93 354.54"><defs><style>.cls-1{mask:url(#mask);filter:url(#luminosity-noclip-9);}.cls-10,.cls-12,.cls-14,.cls-16,.cls-2,.cls-20,.cls-22,.cls-26,.cls-28,.cls-31,.cls-33,.cls-36,.cls-38,.cls-4,.cls-52,.cls-55,.cls-6,.cls-71,.cls-8{mix-blend-mode:multiply;}.cls-2{fill:url(#radial-gradient);}.cls-3{mask:url(#mask-2);filter:url(#luminosity-noclip-14);}.cls-4{fill:url(#radial-gradient-2);}.cls-5{mask:url(#mask-3);filter:url(#luminosity-noclip-15);}.cls-6{fill:url(#radial-gradient-3);}.cls-7{mask:url(#mask-4);filter:url(#luminosity-noclip-16);}.cls-8{fill:url(#radial-gradient-4);}.cls-9{mask:url(#mask-5);filter:url(#luminosity-noclip-10);}.cls-10{fill:url(#radial-gradient-5);}.cls-11{mask:url(#mask-6);filter:url(#luminosity-noclip-11);}.cls-12{fill:url(#radial-gradient-6);}.cls-13{mask:url(#mask-7);filter:url(#luminosity-noclip-12);}.cls-14{fill:url(#radial-gradient-7);}.cls-15{mask:url(#mask-8);filter:url(#luminosity-noclip-13);}.cls-16{fill:url(#radial-gradient-8);}.cls-17{isolation:isolate;}.cls-18{fill:#f9b233;}.cls-19{mask:url(#mask-9);}.cls-20{fill:url(#radial-gradient-9);}.cls-21{mask:url(#mask-10);}.cls-22{fill:url(#radial-gradient-10);}.cls-23{fill:#fff;}.cls-24{fill:#ea5b0c;}.cls-25{mask:url(#mask-11);}.cls-26{fill:url(#radial-gradient-11);}.cls-27{mask:url(#mask-12);}.cls-28{fill:url(#radial-gradient-12);}.cls-29{fill:#7b930f;}.cls-30{mask:url(#mask-13);}.cls-31{fill:url(#radial-gradient-13);}.cls-32{mask:url(#mask-14);}.cls-33{fill:url(#radial-gradient-14);}.cls-34{fill:#00b1c3;}.cls-35{mask:url(#mask-15);}.cls-36{fill:url(#radial-gradient-15);}.cls-37{mask:url(#mask-16);}.cls-38{fill:url(#radial-gradient-16);}.cls-39{fill:#a9c811;}.cls-40{fill:#e74645;}.cls-41{fill:#0d3953;}.cls-42{fill:#3c3c3b;}.cls-43{fill:#d0413e;}.cls-44{fill:#b38326;}.cls-45{fill:#d4842c;}.cls-46{fill:#bf7827;}.cls-47{fill:none;stroke:#eca331;stroke-width:0.22px;}.cls-47,.cls-54{stroke-miterlimit:10;}.cls-48{fill:#fcc133;}.cls-49{fill:#fecc53;}.cls-50{fill:#007a2f;}.cls-51{fill:#006827;}.cls-52{fill:#dadada;}.cls-53{fill:#00742d;}.cls-54{fill:#cfa251;stroke:#432918;stroke-width:0.17px;}.cls-56{fill:#b2b2b2;}.cls-57{fill:#009c3d;}.cls-58{fill:#352e35;}.cls-59{fill:#433a44;}.cls-60{fill:#504652;}.cls-61{fill:#2b242a;}.cls-62{fill:#706f6f;}.cls-63{fill:#878787;}.cls-64{fill:#1a1418;}.cls-65{fill:#c6c6c6;}.cls-66{fill:#9d9d9c;}.cls-67{fill:#8a8989;}.cls-68{fill:#fecc31;}.cls-69{fill:#3e363f;}.cls-70{fill:#201a1f;}.cls-71{opacity:0.5;}.cls-100,.cls-101,.cls-102,.cls-103,.cls-104,.cls-105,.cls-106,.cls-107,.cls-108,.cls-109,.cls-110,.cls-111,.cls-112,.cls-113,.cls-72,.cls-73,.cls-74,.cls-75,.cls-76,.cls-77,.cls-78,.cls-79,.cls-80,.cls-81,.cls-82,.cls-83,.cls-84,.cls-85,.cls-86,.cls-87,.cls-88,.cls-89,.cls-90,.cls-91,.cls-92,.cls-93,.cls-94,.cls-95,.cls-96,.cls-97,.cls-98,.cls-99{fill:#5f5e5e;}.cls-72{opacity:0;}.cls-73{opacity:0.02;}.cls-74{opacity:0.05;}.cls-75{opacity:0.07;}.cls-76{opacity:0.1;}.cls-77{opacity:0.12;}.cls-78{opacity:0.15;}.cls-79{opacity:0.17;}.cls-80{opacity:0.2;}.cls-81{opacity:0.22;}.cls-82{opacity:0.24;}.cls-83{opacity:0.27;}.cls-84{opacity:0.29;}.cls-85{opacity:0.32;}.cls-86{opacity:0.34;}.cls-87{opacity:0.37;}.cls-88{opacity:0.39;}.cls-89{opacity:0.41;}.cls-90{opacity:0.44;}.cls-91{opacity:0.46;}.cls-92{opacity:0.49;}.cls-93{opacity:0.51;}.cls-94{opacity:0.54;}.cls-95{opacity:0.56;}.cls-96{opacity:0.59;}.cls-97{opacity:0.61;}.cls-98{opacity:0.63;}.cls-99{opacity:0.66;}.cls-100{opacity:0.68;}.cls-101{opacity:0.71;}.cls-102{opacity:0.73;}.cls-103{opacity:0.76;}.cls-104{opacity:0.78;}.cls-105{opacity:0.8;}.cls-106{opacity:0.83;}.cls-107{opacity:0.85;}.cls-108{opacity:0.88;}.cls-109{opacity:0.9;}.cls-110{opacity:0.93;}.cls-111{opacity:0.95;}.cls-112{opacity:0.98;}.cls-114{filter:url(#luminosity-noclip-8);}.cls-115{filter:url(#luminosity-noclip-7);}.cls-116{filter:url(#luminosity-noclip-6);}.cls-117{filter:url(#luminosity-noclip-5);}.cls-118{filter:url(#luminosity-noclip-4);}.cls-119{filter:url(#luminosity-noclip-3);}.cls-120{filter:url(#luminosity-noclip-2);}.cls-121{filter:url(#luminosity-noclip);}</style><filter id="luminosity-noclip" x="119.74" y="-8279.51" width="80.22" height="32766" filterUnits="userSpaceOnUse" color-interpolation-filters="sRGB"><feFlood flood-color="#fff" result="bg"/><feBlend in="SourceGraphic" in2="bg"/></filter><mask id="mask" x="119.74" y="-8279.51" width="80.22" height="32766" maskUnits="userSpaceOnUse"><g class="cls-121"/></mask><radialGradient id="radial-gradient" cx="-1050.1" cy="-1513.59" r="40.11" gradientTransform="translate(-1353.73 1114.08) rotate(90)" gradientUnits="userSpaceOnUse"><stop offset="0.57" stop-color="#fff"/><stop offset="0.62" stop-color="#d0d0d0"/><stop offset="0.7" stop-color="#929292"/><stop offset="0.78" stop-color="#5e5e5e"/><stop offset="0.84" stop-color="#353535"/><stop offset="0.91" stop-color="#181818"/><stop offset="0.96" stop-color="#060606"/><stop offset="1"/></radialGradient><filter id="luminosity-noclip-2" x="195.18" y="-8279.51" width="73.02" height="32766" filterUnits="userSpaceOnUse" color-interpolation-filters="sRGB"><feFlood flood-color="#fff" result="bg"/><feBlend in="SourceGraphic" in2="bg"/></filter><mask id="mask-2" x="195.18" y="-8279.51" width="73.02" height="32766" maskUnits="userSpaceOnUse"><g class="cls-120"/></mask><radialGradient id="radial-gradient-2" cx="-1023.9" cy="-1585.43" r="36.51" xlink:href="#radial-gradient"/><filter id="luminosity-noclip-3" x="259.21" y="-8279.51" width="80.22" height="32766" filterUnits="userSpaceOnUse" color-interpolation-filters="sRGB"><feFlood flood-color="#fff" result="bg"/><feBlend in="SourceGraphic" in2="bg"/></filter><mask id="mask-3" x="259.21" y="-8279.51" width="80.22" height="32766" maskUnits="userSpaceOnUse"><g class="cls-119"/></mask><radialGradient id="radial-gradient-3" cx="-1062.81" cy="-1653.06" r="40.11" xlink:href="#radial-gradient"/><filter id="luminosity-noclip-4" x="263.58" y="-8279.51" width="73.02" height="32766" filterUnits="userSpaceOnUse" color-interpolation-filters="sRGB"><feFlood flood-color="#fff" result="bg"/><feBlend in="SourceGraphic" in2="bg"/></filter><mask id="mask-4" x="263.58" y="-8279.51" width="73.02" height="32766" maskUnits="userSpaceOnUse"><g class="cls-118"/></mask><radialGradient id="radial-gradient-4" cx="-1075.43" cy="-1653.83" r="36.51" xlink:href="#radial-gradient"/><filter id="luminosity-noclip-5" x="124.12" y="-8279.51" width="73.02" height="32766" filterUnits="userSpaceOnUse" color-interpolation-filters="sRGB"><feFlood flood-color="#fff" result="bg"/><feBlend in="SourceGraphic" in2="bg"/></filter><mask id="mask-5" x="124.12" y="-8279.51" width="73.02" height="32766" maskUnits="userSpaceOnUse"><g class="cls-117"/></mask><radialGradient id="radial-gradient-5" cx="-1062.72" cy="-1514.36" r="36.51" xlink:href="#radial-gradient"/><filter id="luminosity-noclip-6" x="48.5" y="-8279.51" width="80.22" height="32766" filterUnits="userSpaceOnUse" color-interpolation-filters="sRGB"><feFlood flood-color="#fff" result="bg"/><feBlend in="SourceGraphic" in2="bg"/></filter><mask id="mask-6" x="48.5" y="-8279.51" width="80.22" height="32766" maskUnits="userSpaceOnUse"><g class="cls-116"/></mask><radialGradient id="radial-gradient-6" cx="-1015.12" cy="-1442.35" r="40.11" xlink:href="#radial-gradient"/><filter id="luminosity-noclip-7" x="52.87" y="-8279.51" width="73.02" height="32766" filterUnits="userSpaceOnUse" color-interpolation-filters="sRGB"><feFlood flood-color="#fff" result="bg"/><feBlend in="SourceGraphic" in2="bg"/></filter><mask id="mask-7" x="52.87" y="-8279.51" width="73.02" height="32766" maskUnits="userSpaceOnUse"><g class="cls-115"/></mask><radialGradient id="radial-gradient-7" cx="-1027.74" cy="-1443.12" r="36.51" xlink:href="#radial-gradient"/><filter id="luminosity-noclip-8" x="190.81" y="-8279.51" width="80.22" height="32766" filterUnits="userSpaceOnUse" color-interpolation-filters="sRGB"><feFlood flood-color="#fff" result="bg"/><feBlend in="SourceGraphic" in2="bg"/></filter><mask id="mask-8" x="190.81" y="-8279.51" width="80.22" height="32766" maskUnits="userSpaceOnUse"><g class="cls-114"/></mask><radialGradient id="radial-gradient-8" cx="-1011.28" cy="-1584.65" r="40.11" xlink:href="#radial-gradient"/><filter id="luminosity-noclip-9" x="119.74" y="23.88" width="80.22" height="80.22" filterUnits="userSpaceOnUse" color-interpolation-filters="sRGB"><feFlood flood-color="#fff" result="bg"/><feBlend in="SourceGraphic" in2="bg"/></filter><mask id="mask-9" x="119.74" y="23.88" width="80.22" height="80.22" maskUnits="userSpaceOnUse"><g class="cls-1"><path class="cls-2" d="M159.85,104.09A40.11,40.11,0,1,1,200,64,40.11,40.11,0,0,1,159.85,104.09Z"/></g></mask><radialGradient id="radial-gradient-9" cx="-1050.1" cy="-1513.59" r="40.11" gradientTransform="translate(-1353.73 1114.08) rotate(90)" gradientUnits="userSpaceOnUse"><stop offset="0.57" stop-color="#1d1d1b"/><stop offset="1" stop-color="#1d1d1b"/></radialGradient><filter id="luminosity-noclip-10" x="124.12" y="14.85" width="73.02" height="73.02" filterUnits="userSpaceOnUse" color-interpolation-filters="sRGB"><feFlood flood-color="#fff" result="bg"/><feBlend in="SourceGraphic" in2="bg"/></filter><mask id="mask-10" x="124.12" y="14.85" width="73.02" height="73.02" maskUnits="userSpaceOnUse"><g class="cls-9"><path class="cls-10" d="M160.63,87.87a36.51,36.51,0,1,1,36.51-36.51A36.5,36.5,0,0,1,160.63,87.87Z"/></g></mask><radialGradient id="radial-gradient-10" cx="-1062.72" cy="-1514.36" r="36.51" xlink:href="#radial-gradient-9"/><filter id="luminosity-noclip-11" x="48.5" y="58.85" width="80.22" height="80.22" filterUnits="userSpaceOnUse" color-interpolation-filters="sRGB"><feFlood flood-color="#fff" result="bg"/><feBlend in="SourceGraphic" in2="bg"/></filter><mask id="mask-11" x="48.5" y="58.85" width="80.22" height="80.22" maskUnits="userSpaceOnUse"><g class="cls-11"><path class="cls-12" d="M88.61,139.07A40.11,40.11,0,1,1,128.72,99,40.11,40.11,0,0,1,88.61,139.07Z"/></g></mask><radialGradient id="radial-gradient-11" cx="-1015.12" cy="-1442.35" r="40.11" xlink:href="#radial-gradient-9"/><filter id="luminosity-noclip-12" x="52.87" y="49.83" width="73.02" height="73.02" filterUnits="userSpaceOnUse" color-interpolation-filters="sRGB"><feFlood flood-color="#fff" result="bg"/><feBlend in="SourceGraphic" in2="bg"/></filter><mask id="mask-12" x="52.87" y="49.83" width="73.02" height="73.02" maskUnits="userSpaceOnUse"><g class="cls-13"><path class="cls-14" d="M89.38,122.85A36.51,36.51,0,1,1,125.9,86.34,36.52,36.52,0,0,1,89.38,122.85Z"/></g></mask><radialGradient id="radial-gradient-12" cx="-1027.74" cy="-1443.12" r="36.51" xlink:href="#radial-gradient-9"/><filter id="luminosity-noclip-13" x="190.81" y="62.69" width="80.22" height="80.22" filterUnits="userSpaceOnUse" color-interpolation-filters="sRGB"><feFlood flood-color="#fff" result="bg"/><feBlend in="SourceGraphic" in2="bg"/></filter><mask id="mask-13" x="190.81" y="62.69" width="80.22" height="80.22" maskUnits="userSpaceOnUse"><g class="cls-15"><path class="cls-16" d="M230.92,142.91A40.11,40.11,0,1,1,271,102.8,40.11,40.11,0,0,1,230.92,142.91Z"/></g></mask><radialGradient id="radial-gradient-13" cx="-1011.28" cy="-1584.65" r="40.11" xlink:href="#radial-gradient-9"/><filter id="luminosity-noclip-14" x="195.18" y="53.67" width="73.02" height="73.02" filterUnits="userSpaceOnUse" color-interpolation-filters="sRGB"><feFlood flood-color="#fff" result="bg"/><feBlend in="SourceGraphic" in2="bg"/></filter><mask id="mask-14" x="195.18" y="53.67" width="73.02" height="73.02" maskUnits="userSpaceOnUse"><g class="cls-3"><path class="cls-4" d="M231.69,126.69A36.51,36.51,0,1,1,268.2,90.18,36.51,36.51,0,0,1,231.69,126.69Z"/></g></mask><radialGradient id="radial-gradient-14" cx="-1023.9" cy="-1585.43" r="36.51" xlink:href="#radial-gradient-9"/><filter id="luminosity-noclip-15" x="259.21" y="11.16" width="80.22" height="80.22" filterUnits="userSpaceOnUse" color-interpolation-filters="sRGB"><feFlood flood-color="#fff" result="bg"/><feBlend in="SourceGraphic" in2="bg"/></filter><mask id="mask-15" x="259.21" y="11.16" width="80.22" height="80.22" maskUnits="userSpaceOnUse"><g class="cls-5"><path class="cls-6" d="M299.32,91.38a40.11,40.11,0,1,1,40.11-40.11A40.11,40.11,0,0,1,299.32,91.38Z"/></g></mask><radialGradient id="radial-gradient-15" cx="-1062.81" cy="-1653.06" r="40.11" xlink:href="#radial-gradient-9"/><filter id="luminosity-noclip-16" x="263.58" y="2.14" width="73.02" height="73.02" filterUnits="userSpaceOnUse" color-interpolation-filters="sRGB"><feFlood flood-color="#fff" result="bg"/><feBlend in="SourceGraphic" in2="bg"/></filter><mask id="mask-16" x="263.58" y="2.14" width="73.02" height="73.02" maskUnits="userSpaceOnUse"><g class="cls-7"><path class="cls-8" d="M300.09,75.16a36.51,36.51,0,1,1,36.52-36.51A36.52,36.52,0,0,1,300.09,75.16Z"/></g></mask><radialGradient id="radial-gradient-16" cx="-1075.43" cy="-1653.83" r="36.51" xlink:href="#radial-gradient-9"/></defs><g class="cls-17"><g id="Layer_2" data-name="Layer 2"><g id="Capa_1" data-name="Capa 1"><rect class="cls-18" x="137.61" y="68.24" width="44.48" height="166.51"/><g class="cls-19"><path class="cls-20" d="M159.85,104.09A40.11,40.11,0,1,1,200,64,40.11,40.11,0,0,1,159.85,104.09Z"/></g><path class="cls-18" d="M160.63,90a38.65,38.65,0,1,1,38.65-38.65A38.64,38.64,0,0,1,160.63,90Z"/><g class="cls-21"><path class="cls-22" d="M160.63,87.87a36.51,36.51,0,1,1,36.51-36.51A36.5,36.5,0,0,1,160.63,87.87Z"/></g><path class="cls-23" d="M160.63,78.67a27.31,27.31,0,1,1,27.3-27.31A27.31,27.31,0,0,1,160.63,78.67Z"/><rect class="cls-24" x="66.37" y="103.22" width="44.48" height="166.51"/><g class="cls-25"><path class="cls-26" d="M88.61,139.07A40.11,40.11,0,1,1,128.72,99,40.11,40.11,0,0,1,88.61,139.07Z"/></g><circle class="cls-24" cx="89.38" cy="86.34" r="38.65" transform="translate(-9.88 11.57) rotate(-7.02)"/><g class="cls-27"><path class="cls-28" d="M89.38,122.85A36.51,36.51,0,1,1,125.9,86.34,36.52,36.52,0,0,1,89.38,122.85Z"/></g><path class="cls-23" d="M89.38,113.64a27.3,27.3,0,1,1,27.31-27.3A27.3,27.3,0,0,1,89.38,113.64Z"/><rect class="cls-29" x="208.68" y="107.06" width="44.48" height="166.51"/><g class="cls-30"><path class="cls-31" d="M230.92,142.91A40.11,40.11,0,1,1,271,102.8,40.11,40.11,0,0,1,230.92,142.91Z"/></g><circle class="cls-29" cx="231.69" cy="90.18" r="38.65" transform="translate(105.56 304.44) rotate(-80.78)"/><g class="cls-32"><path class="cls-33" d="M231.69,126.69A36.51,36.51,0,1,1,268.2,90.18,36.51,36.51,0,0,1,231.69,126.69Z"/></g><path class="cls-23" d="M231.69,117.49A27.31,27.31,0,1,1,259,90.18,27.31,27.31,0,0,1,231.69,117.49Z"/><rect class="cls-34" x="277.08" y="55.53" width="44.48" height="166.51"/><g class="cls-35"><path class="cls-36" d="M299.32,91.38a40.11,40.11,0,1,1,40.11-40.11A40.11,40.11,0,0,1,299.32,91.38Z"/></g><path class="cls-34" d="M300.09,77.3a38.65,38.65,0,1,1,38.66-38.65A38.65,38.65,0,0,1,300.09,77.3Z"/><g class="cls-37"><path class="cls-38" d="M300.09,75.16a36.51,36.51,0,1,1,36.52-36.51A36.52,36.52,0,0,1,300.09,75.16Z"/></g><path class="cls-23" d="M300.09,66a27.3,27.3,0,1,1,27.31-27.3A27.3,27.3,0,0,1,300.09,66Z"/><polygon class="cls-39" points="75.21 94.62 75.21 82.2 76.86 82.57 78.38 79.58 80.15 78.72 80.89 82.02 83.81 79.52 86.31 81.45 88.69 80.68 90.58 81.04 93.45 76.83 93.75 79.03 95.4 77.2 96.68 78.54 98.39 75.52 100.4 75.86 101.93 73.6 104.18 72.81 105.14 70.86 105.14 94.62 75.21 94.62"/><polygon class="cls-40" points="75.21 94.62 75.21 85.8 79.18 81.71 80.03 84.4 83.38 84.34 83.81 86.84 85.4 87.41 86.44 86.35 88.63 87.41 90.77 84.28 93.02 84.7 95.22 86.41 97.29 85.5 98.88 83.18 101.56 83.18 103.51 74.58 105.14 72.14 105.14 94.62 75.21 94.62"/><rect class="cls-41" x="73.38" y="95.29" width="34.56" height="0.98"/><rect class="cls-41" x="73.38" y="62.9" width="0.98" height="32.39"/><rect class="cls-39" x="77.6" y="98.6" width="4.5" height="4.5"/><rect class="cls-40" x="77.6" y="104.27" width="4.5" height="4.5"/><path class="cls-42" d="M86.57,101.06a1.51,1.51,0,0,1-.11.56,1.32,1.32,0,0,1-.32.46,1.48,1.48,0,0,1-2.09,0,1.47,1.47,0,0,1-.32-.46,1.48,1.48,0,0,1,0-1.12,1.63,1.63,0,0,1,.32-.47,1.72,1.72,0,0,1,.48-.31,1.51,1.51,0,0,1,1.13,0,1.72,1.72,0,0,1,.48.31,1.36,1.36,0,0,1,.32.47A1.47,1.47,0,0,1,86.57,101.06ZM85.1,102.2a1.07,1.07,0,0,0,.43-.09,1.27,1.27,0,0,0,.37-.25,1.12,1.12,0,0,0,.24-.37,1,1,0,0,0,.09-.43,1.12,1.12,0,0,0-.09-.44,1.31,1.31,0,0,0-.24-.37,1.15,1.15,0,0,0-.37-.25,1.22,1.22,0,0,0-.87,0,1,1,0,0,0-.36.25,1.15,1.15,0,0,0-.25.37,1.11,1.11,0,0,0-.08.44,1,1,0,0,0,.08.43,1.15,1.15,0,0,0,.25.37,1.15,1.15,0,0,0,.8.34Z"/><path class="cls-42" d="M87.43,101.2v1.23h-.32V99.68h.57a2.41,2.41,0,0,1,.45,0,.63.63,0,0,1,.25.1.67.67,0,0,1,.21.26,1,1,0,0,1,.07.36,1.06,1.06,0,0,1-.07.37.67.67,0,0,1-.21.26.63.63,0,0,1-.25.1,2.15,2.15,0,0,1-.45,0h-.25Zm0-.3h.16a1.2,1.2,0,0,0,.57-.1.39.39,0,0,0,.15-.35.43.43,0,0,0-.15-.37,1.06,1.06,0,0,0-.57-.11h-.16Z"/><path class="cls-42" d="M89.55,102.43V100h-.78v-.31h1.88V100h-.77v2.44Z"/><path class="cls-42" d="M91,102.43V99.68h.33v2.75Z"/><path class="cls-42" d="M94.84,101.06a1.51,1.51,0,0,1-.11.56,1.32,1.32,0,0,1-.32.46,1.48,1.48,0,0,1-2.09,0,1.47,1.47,0,0,1-.32-.46,1.48,1.48,0,0,1,0-1.12,1.63,1.63,0,0,1,.32-.47,1.72,1.72,0,0,1,.48-.31,1.51,1.51,0,0,1,1.13,0,1.72,1.72,0,0,1,.48.31,1.36,1.36,0,0,1,.32.47A1.47,1.47,0,0,1,94.84,101.06Zm-1.47,1.14a1.07,1.07,0,0,0,.43-.09,1.11,1.11,0,0,0,.36-.25,1.15,1.15,0,0,0,.25-.37,1,1,0,0,0,.09-.43,1.12,1.12,0,0,0-.09-.44,1.15,1.15,0,0,0-.25-.37,1.11,1.11,0,0,0-.36-.25,1.22,1.22,0,0,0-.87,0,1,1,0,0,0-.36.25,1.15,1.15,0,0,0-.25.37,1.12,1.12,0,0,0-.09.44,1,1,0,0,0,.09.43,1,1,0,0,0,.25.37,1.07,1.07,0,0,0,.36.25A1.08,1.08,0,0,0,93.37,102.2Z"/><path class="cls-42" d="M95.37,102.43V99.57l2,2.2V99.68h.31v2.86l-2-2.18v2.07Z"/><path class="cls-42" d="M100.31,102.51a.79.79,0,0,1-.7-.39,2.23,2.23,0,0,1,0-2.09.78.78,0,0,1,.69-.38.81.81,0,0,1,.71.37,1.85,1.85,0,0,1,.25,1,1.91,1.91,0,0,1-.25,1.06A.8.8,0,0,1,100.31,102.51Zm0-.27a.5.5,0,0,0,.46-.3,1.92,1.92,0,0,0,.15-.86,2,2,0,0,0-.15-.87.5.5,0,0,0-.46-.3.51.51,0,0,0-.46.31,2.36,2.36,0,0,0,0,1.71A.51.51,0,0,0,100.31,102.24Z"/><path class="cls-42" d="M102.5,102.43V100h-.57l.19-.29h.7v2.73Z"/><path class="cls-42" d="M86.57,106.38a1.46,1.46,0,0,1-.11.55,1.36,1.36,0,0,1-.32.47,1.52,1.52,0,0,1-.48.31,1.36,1.36,0,0,1-.56.11,1.38,1.38,0,0,1-.57-.11,1.44,1.44,0,0,1-.8-.78,1.46,1.46,0,0,1,0-1.11,1.51,1.51,0,0,1,.32-.47,1.37,1.37,0,0,1,.48-.31,1.51,1.51,0,0,1,1.13,0,1.37,1.37,0,0,1,.48.31,1.32,1.32,0,0,1,.32.46A1.56,1.56,0,0,1,86.57,106.38Zm-1.47,1.13a1.08,1.08,0,0,0,.8-.33,1.12,1.12,0,0,0,.24-.37,1.07,1.07,0,0,0,.09-.43,1.13,1.13,0,0,0-.09-.45,1.26,1.26,0,0,0-.24-.36,1.15,1.15,0,0,0-.37-.25,1.07,1.07,0,0,0-.43-.09,1.08,1.08,0,0,0-.44.09,1,1,0,0,0-.36.25,1.17,1.17,0,0,0-.25,1.24,1.27,1.27,0,0,0,.25.37,1.15,1.15,0,0,0,.37.25A1.18,1.18,0,0,0,85.1,107.51Z"/><path class="cls-42" d="M87.43,106.51v1.24h-.32V105h.57a2.41,2.41,0,0,1,.45,0,.64.64,0,0,1,.25.11.61.61,0,0,1,.21.26,1,1,0,0,1,0,.72.61.61,0,0,1-.21.26.64.64,0,0,1-.25.11,2.34,2.34,0,0,1-.45,0h-.25Zm0-.3h.16a1.09,1.09,0,0,0,.57-.1.37.37,0,0,0,.15-.34.42.42,0,0,0-.15-.37,1.06,1.06,0,0,0-.57-.11h-.16Z"/><path class="cls-42" d="M89.55,107.75V105.3h-.78V105h1.88v.31h-.77v2.45Z"/><path class="cls-42" d="M91,107.75V105h.33v2.76Z"/><path class="cls-42" d="M94.84,106.38a1.46,1.46,0,0,1-.11.55,1.36,1.36,0,0,1-.32.47,1.52,1.52,0,0,1-.48.31,1.36,1.36,0,0,1-.56.11,1.38,1.38,0,0,1-.57-.11,1.44,1.44,0,0,1-.8-.78,1.46,1.46,0,0,1,0-1.11,1.51,1.51,0,0,1,.32-.47,1.37,1.37,0,0,1,.48-.31,1.51,1.51,0,0,1,1.13,0,1.37,1.37,0,0,1,.48.31,1.32,1.32,0,0,1,.32.46A1.56,1.56,0,0,1,94.84,106.38Zm-1.47,1.13a1.26,1.26,0,0,0,.43-.08,1.11,1.11,0,0,0,.36-.25,1.15,1.15,0,0,0,.25-.37,1.07,1.07,0,0,0,.09-.43,1.13,1.13,0,0,0-.09-.45,1.23,1.23,0,0,0-.61-.61,1.07,1.07,0,0,0-.43-.09,1.08,1.08,0,0,0-.44.09,1,1,0,0,0-.36.25,1.15,1.15,0,0,0-.34.81,1.07,1.07,0,0,0,.09.43,1.1,1.1,0,0,0,.25.37,1.23,1.23,0,0,0,.36.25A1.27,1.27,0,0,0,93.37,107.51Z"/><path class="cls-42" d="M95.37,107.75v-2.87l2,2.21V105h.31v2.87l-2-2.18v2.07Z"/><path class="cls-42" d="M100.31,107.82a.8.8,0,0,1-.7-.38,1.85,1.85,0,0,1-.26-1,1.9,1.9,0,0,1,.26-1,.8.8,0,0,1,.69-.38.82.82,0,0,1,.71.38,2.33,2.33,0,0,1,0,2.1A.78.78,0,0,1,100.31,107.82Zm0-.27a.51.51,0,0,0,.46-.29,2,2,0,0,0,.15-.87,1.92,1.92,0,0,0-.15-.86.5.5,0,0,0-.92,0,1.86,1.86,0,0,0-.16.86,1.88,1.88,0,0,0,.16.86A.5.5,0,0,0,100.31,107.55Z"/><path class="cls-42" d="M103.32,107.44v.31h-1.66l.58-.69.17-.2a2.38,2.38,0,0,0,.67-1.11.44.44,0,0,0-.15-.35.56.56,0,0,0-.39-.14.52.52,0,0,0-.4.15.61.61,0,0,0-.14.42v0h-.31v-.07a.78.78,0,0,1,.23-.61,1,1,0,0,1,1.26,0,.71.71,0,0,1,.23.56,1.07,1.07,0,0,1-.16.54,3.89,3.89,0,0,1-.54.7l-.43.47Z"/><path class="cls-43" d="M210.38,86.36c0,4.9,9.8,8.88,21.88,8.88s21.87-4,21.87-8.88V79.8H210.38V86"/><path class="cls-40" d="M210.38,79.8c0,4.9,9.8,8.88,21.88,8.88s21.87-4,21.87-8.88-9.79-8.88-21.87-8.88S210.38,74.89,210.38,79.8Z"/><path class="cls-44" d="M224.2,88.06v6.56s-12.94-1.87-13.82-7.87v-7S209.75,85.51,224.2,88.06Z"/><path class="cls-18" d="M224.2,88.06a34,34,0,0,1-9.26-2.86s-4.56-2.14-4.56-5.4a4,4,0,0,1,.25-1.35s1.3-5,13.05-6.83l8.58,8.18-8.06,8.26"/><rect class="cls-18" x="218.59" y="98.36" width="4.87" height="4.87"/><rect class="cls-40" x="218.59" y="104.5" width="4.87" height="4.88"/><path class="cls-42" d="M228.31,101a1.54,1.54,0,0,1-.12.61,1.56,1.56,0,0,1-.35.5,1.51,1.51,0,0,1-.52.34,1.58,1.58,0,0,1-.61.12,1.62,1.62,0,0,1-1.13-.46,1.68,1.68,0,0,1-.35-.5,1.59,1.59,0,0,1,0-1.21,1.6,1.6,0,0,1,.35-.51,1.49,1.49,0,0,1,.52-.33,1.62,1.62,0,0,1,.61-.12,1.58,1.58,0,0,1,.61.12,1.49,1.49,0,0,1,.52.33,1.6,1.6,0,0,1,.35.51A1.53,1.53,0,0,1,228.31,101Zm-1.6,1.24a1.28,1.28,0,0,0,.47-.1,1.18,1.18,0,0,0,.4-.27,1.2,1.2,0,0,0,.26-.4,1,1,0,0,0,.1-.47,1.28,1.28,0,0,0-.1-.47,1.2,1.2,0,0,0-.26-.4,1.18,1.18,0,0,0-.4-.27,1.23,1.23,0,0,0-.47-.09,1.27,1.27,0,0,0-.47.09,1.05,1.05,0,0,0-.39.27,1.09,1.09,0,0,0-.27.4,1.27,1.27,0,0,0-.09.47,1.19,1.19,0,0,0,.09.47,1.18,1.18,0,0,0,.27.4,1.14,1.14,0,0,0,.39.27A1.1,1.1,0,0,0,226.71,102.26Z"/><path class="cls-42" d="M229.23,101.17v1.34h-.34v-3h.62a2.72,2.72,0,0,1,.49,0,.81.81,0,0,1,.27.11.69.69,0,0,1,.22.28,1,1,0,0,1,.08.4,1,1,0,0,1-.08.39.69.69,0,0,1-.22.28,1.11,1.11,0,0,1-.27.12,2.93,2.93,0,0,1-.49,0h-.28Zm0-.32h.18a1.23,1.23,0,0,0,.62-.11.42.42,0,0,0,.16-.37A.48.48,0,0,0,230,100a1.19,1.19,0,0,0-.61-.11h-.18Z"/><path class="cls-42" d="M231.53,102.51V99.86h-.84v-.34h2v.34h-.84v2.65Z"/><path class="cls-42" d="M233.13,102.51v-3h.35v3Z"/><path class="cls-42" d="M237.26,101a1.54,1.54,0,0,1-.12.61,1.39,1.39,0,0,1-.34.5,1.62,1.62,0,0,1-1.13.46,1.58,1.58,0,0,1-.61-.12,1.51,1.51,0,0,1-.52-.34,1.68,1.68,0,0,1-.35-.5,1.59,1.59,0,0,1,0-1.21,1.6,1.6,0,0,1,.35-.51,1.49,1.49,0,0,1,.52-.33,1.58,1.58,0,0,1,.61-.12,1.62,1.62,0,0,1,.61.12,1.49,1.49,0,0,1,.52.33,1.43,1.43,0,0,1,.34.51A1.53,1.53,0,0,1,237.26,101Zm-1.59,1.24a1.26,1.26,0,0,0,.86-.37,1.09,1.09,0,0,0,.27-.4,1.19,1.19,0,0,0,.09-.47,1.27,1.27,0,0,0-.09-.47,1.27,1.27,0,0,0-.67-.67,1.18,1.18,0,0,0-.46-.09,1.28,1.28,0,0,0-.48.09,1.25,1.25,0,0,0-.39.27,1.09,1.09,0,0,0-.27.4,1.27,1.27,0,0,0-.09.47,1.19,1.19,0,0,0,.09.47,1.27,1.27,0,0,0,.67.67A1.07,1.07,0,0,0,235.67,102.26Z"/><path class="cls-42" d="M237.84,102.51v-3.1l2.19,2.38V99.52h.34v3.11l-2.19-2.36v2.24Z"/><path class="cls-42" d="M243.19,102.59a.87.87,0,0,1-.76-.41,2,2,0,0,1-.28-1.14,2,2,0,0,1,.28-1.13.85.85,0,0,1,.75-.42.89.89,0,0,1,.77.41,2.54,2.54,0,0,1,0,2.28A.89.89,0,0,1,243.19,102.59Zm0-.29a.54.54,0,0,0,.49-.32,2,2,0,0,0,.17-.94,2,2,0,0,0-.17-.94.54.54,0,0,0-.49-.32.55.55,0,0,0-.5.33,2.11,2.11,0,0,0-.17.93,2.18,2.18,0,0,0,.17.93A.55.55,0,0,0,243.19,102.3Z"/><path class="cls-42" d="M245.56,102.51V99.86H245l.2-.31h.75v3Z"/><path class="cls-42" d="M228.31,106.78a1.58,1.58,0,0,1-.12.61,1.68,1.68,0,0,1-.35.5,1.51,1.51,0,0,1-.52.34,1.58,1.58,0,0,1-.61.12,1.61,1.61,0,0,1-1.48-1,1.56,1.56,0,0,1,0-1.2,1.6,1.6,0,0,1,.35-.51,1.51,1.51,0,0,1,.52-.34,1.62,1.62,0,0,1,.61-.12,1.58,1.58,0,0,1,.61.12,1.51,1.51,0,0,1,.52.34,1.56,1.56,0,0,1,.35.5A1.58,1.58,0,0,1,228.31,106.78Zm-1.6,1.23a1.27,1.27,0,0,0,.47-.09,1.18,1.18,0,0,0,.4-.27,1.31,1.31,0,0,0,.26-.4,1.07,1.07,0,0,0,.1-.47,1.33,1.33,0,0,0-.1-.48,1.15,1.15,0,0,0-.66-.66,1.23,1.23,0,0,0-.47-.09,1.27,1.27,0,0,0-.47.09,1.16,1.16,0,0,0-.39.26,1.26,1.26,0,0,0-.27,1.35,1.18,1.18,0,0,0,.27.4,1.14,1.14,0,0,0,.39.27A1.27,1.27,0,0,0,226.71,108Z"/><path class="cls-42" d="M229.23,106.93v1.34h-.34v-3h.62a2,2,0,0,1,.49,0,.81.81,0,0,1,.27.11.69.69,0,0,1,.22.28,1,1,0,0,1,.08.39,1,1,0,0,1-.08.4.69.69,0,0,1-.22.28.81.81,0,0,1-.27.11,2,2,0,0,1-.49,0h-.28Zm0-.32h.18a1.23,1.23,0,0,0,.62-.11.44.44,0,0,0,.16-.38.46.46,0,0,0-.17-.4,1.19,1.19,0,0,0-.61-.11h-.18Z"/><path class="cls-42" d="M231.53,108.27v-2.65h-.84v-.34h2v.34h-.84v2.65Z"/><path class="cls-42" d="M233.13,108.27v-3h.35v3Z"/><path class="cls-42" d="M237.26,106.78a1.58,1.58,0,0,1-.12.61,1.48,1.48,0,0,1-.34.5,1.62,1.62,0,0,1-1.13.46,1.58,1.58,0,0,1-.61-.12,1.51,1.51,0,0,1-.52-.34,1.6,1.6,0,0,1-.35-.51,1.56,1.56,0,0,1,0-1.2,1.6,1.6,0,0,1,.35-.51,1.51,1.51,0,0,1,.52-.34,1.58,1.58,0,0,1,.61-.12,1.62,1.62,0,0,1,.61.12,1.51,1.51,0,0,1,.52.34,1.39,1.39,0,0,1,.34.5A1.58,1.58,0,0,1,237.26,106.78ZM235.67,108a1.24,1.24,0,0,0,1.13-.76,1.23,1.23,0,0,0,.09-.47,1.32,1.32,0,0,0-.09-.48,1.18,1.18,0,0,0-.27-.4,1.2,1.2,0,0,0-.4-.26,1.18,1.18,0,0,0-.46-.09,1.28,1.28,0,0,0-.48.09,1.4,1.4,0,0,0-.39.26,1.26,1.26,0,0,0-.27,1.35,1.27,1.27,0,0,0,.67.67A1.23,1.23,0,0,0,235.67,108Z"/><path class="cls-42" d="M237.84,108.27v-3.11l2.19,2.39v-2.27h.34v3.1L238.18,106v2.25Z"/><path class="cls-42" d="M243.19,108.35a.87.87,0,0,1-.76-.41,2.46,2.46,0,0,1,0-2.28.86.86,0,0,1,.75-.41.89.89,0,0,1,.77.41,2,2,0,0,1,.27,1.14,2.09,2.09,0,0,1-.27,1.14A.89.89,0,0,1,243.19,108.35Zm0-.29a.54.54,0,0,0,.49-.32,2.68,2.68,0,0,0,0-1.88.54.54,0,0,0-.49-.32.55.55,0,0,0-.5.33,2.6,2.6,0,0,0,0,1.85A.54.54,0,0,0,243.19,108.06Z"/><path class="cls-42" d="M246.45,107.93v.34h-1.8l.63-.75.18-.21a2.6,2.6,0,0,0,.73-1.21.49.49,0,0,0-.16-.38.65.65,0,0,0-.43-.14.56.56,0,0,0-.43.16.61.61,0,0,0-.15.45v0h-.34v-.08a.83.83,0,0,1,.25-.66.93.93,0,0,1,.69-.24,1,1,0,0,1,.68.22.79.79,0,0,1,.24.61,1.18,1.18,0,0,1-.16.58,4.16,4.16,0,0,1-.59.76l-.47.51Z"/><path class="cls-18" d="M317.26,51.53c-.17,2.72-9.29,4.36-20.38,3.66s-20-3.57-19.8-6.29c.07-1,.18-3.55.18-3.55s13.22-.45,20.25,0c7.42.47,19.8,2.4,19.8,2.4S317.32,50.64,317.26,51.53Z"/><path class="cls-45" d="M317.31,47.74c-.17,2.71-9.29,4.35-20.38,3.65S277,47.92,277.18,45.2s9.29-4.35,20.37-3.65S317.48,45,317.31,47.74Z"/><path class="cls-46" d="M314.4,47.55c-.15,2.35-8,3.77-17.64,3.17s-17.25-3-17.1-5.36,8-3.77,17.64-3.17S314.55,45.2,314.4,47.55Z"/><path class="cls-18" d="M296.56,43.18l0-.45.52,0,0,.43c.31,0,.56,0,.76,0l.82.07,0-.43.52,0,0,.45a7.92,7.92,0,0,1,2.44.59c.52.25.78.51.76.76s-.14.29-.37.36a2.08,2.08,0,0,1-.8.09,1.79,1.79,0,0,1-.74-.18c-.2-.1-.29-.22-.29-.36s.26-.33.73-.38c.23,0,.34-.06.34-.09s-.17-.14-.51-.26a8.42,8.42,0,0,0-1.57-.32L299,45.83q3.38.78,3.3,2c0,.35-.32.66-.91.94a7,7,0,0,1-2.6.5l-.06,1-.52,0,.06-.93c-.59,0-1.11,0-1.58-.06l-.05.89-.52,0,.06-.92a8.28,8.28,0,0,1-2.74-.72c-.57-.31-.84-.61-.82-.89s.13-.28.38-.39a2,2,0,0,1,.93-.13,2.24,2.24,0,0,1,.79.19c.24.1.36.23.35.37s-.13.25-.35.32A2,2,0,0,1,294,48l-.17,0-.16,0c-.09,0-.14,0-.14.07s.22.24.68.44a7.38,7.38,0,0,0,2,.48l.17-2.71q-3.19-.69-3.12-1.74C293.29,43.7,294.4,43.28,296.56,43.18Zm-.12,2,.11-1.8c-1.34.09-2,.35-2.06.79S295.12,44.93,296.44,45.23ZM298.29,49l.15-2.3-1.56-.37L296.72,49l.4,0C297.32,49,297.71,49,298.29,49Zm-1.22-5.59L297,45.36c.3.08.82.19,1.55.34l.14-2.19-.76-.07h-.81ZM299,46.83,298.81,49c1.49-.11,2.24-.42,2.28-.93S300.4,47.16,299,46.83Z"/><line class="cls-47" x1="278.99" y1="51.07" x2="279.2" y2="47.8"/><line class="cls-47" x1="281.81" y1="52.34" x2="282.07" y2="48.98"/><line class="cls-47" x1="282.97" y1="52.79" x2="283.18" y2="49.38"/><line class="cls-47" x1="283.71" y1="53.03" x2="283.94" y2="49.55"/><line class="cls-47" x1="287.69" y1="54.09" x2="287.92" y2="50.44"/><line class="cls-47" x1="289.01" y1="54.17" x2="289.24" y2="50.57"/><line class="cls-47" x1="290.47" y1="54.41" x2="290.7" y2="50.76"/><line class="cls-47" x1="294.34" y1="54.84" x2="294.56" y2="51.38"/><line class="cls-47" x1="295.09" y1="55.03" x2="295.32" y2="51.43"/><line class="cls-47" x1="296.09" y1="54.95" x2="296.31" y2="51.49"/><line class="cls-47" x1="302.15" y1="55.38" x2="302.39" y2="51.59"/><line class="cls-47" x1="304.34" y1="55.23" x2="304.58" y2="51.54"/><line class="cls-47" x1="306.68" y1="55.1" x2="306.91" y2="51.45"/><line class="cls-47" x1="309.16" y1="54.92" x2="309.4" y2="51.18"/><line class="cls-47" x1="312.24" y1="54.31" x2="312.47" y2="50.66"/><line class="cls-47" x1="313.01" y1="54.12" x2="313.25" y2="50.43"/><line class="cls-47" x1="313.98" y1="53.85" x2="314.21" y2="50.15"/><line class="cls-47" x1="316.08" y1="52.98" x2="316.32" y2="49.24"/><path class="cls-18" d="M313,51.46c-1,2.53-10.19,1.23-20.5-2.9s-17.85-9.63-16.84-12.16c.37-.92,1.28-3.32,1.28-3.32s12.69,3.71,19.23,6.33c6.9,2.76,18.07,8.46,18.07,8.46S313.34,50.62,313,51.46Z"/><path class="cls-45" d="M314.24,47.87c-1,2.52-10.19,1.23-20.5-2.9s-17.85-9.52-16.84-12,10.19-1.23,20.5,2.89S315.25,45.34,314.24,47.87Z"/><path class="cls-46" d="M311.53,46.78c-.88,2.19-8.82,1.07-17.75-2.5S278.34,36,279.21,33.84,288,32.78,297,36.35,312.41,44.59,311.53,46.78Z"/><path class="cls-18" d="M296.06,37.11l.17-.42.48.2-.16.39.71.26.75.32.16-.39.48.19-.17.41a8.32,8.32,0,0,1,2.13,1.33c.42.4.58.73.49,1s-.22.23-.47.23a2.26,2.26,0,0,1-.78-.16,2.12,2.12,0,0,1-.65-.4c-.16-.16-.21-.31-.16-.44s.35-.23.81-.14c.22,0,.34,0,.35,0s-.11-.18-.4-.4a7.58,7.58,0,0,0-1.4-.79l-.84,2.11c2,1.2,2.81,2.17,2.52,2.89-.13.32-.52.53-1.16.61a7.09,7.09,0,0,1-2.63-.34l-.37.92-.48-.19.35-.87a15.17,15.17,0,0,1-1.48-.55l-.33.83-.48-.19.34-.85a8.45,8.45,0,0,1-2.38-1.54c-.44-.47-.61-.84-.5-1.11s.22-.22.48-.25a2.1,2.1,0,0,1,.93.17,2.18,2.18,0,0,1,.69.43c.2.17.27.33.22.46s-.2.19-.43.19a1.91,1.91,0,0,1-.75-.16l-.15-.07-.15-.08c-.09,0-.14,0-.16,0s.14.3.52.64a7.23,7.23,0,0,0,1.77,1.08l1-2.52c-1.88-1.1-2.69-2-2.43-2.63S294,36.53,296.06,37.11ZM295.29,39l.67-1.67c-1.3-.34-2-.3-2.19.1S294.14,38.32,295.29,39Zm.59,4.17.85-2.14-1.36-.84-1,2.43.37.16Zm.58-5.69-.72,1.81,1.37.8.82-2-.7-.29-.44-.17Zm.72,3.82-.8,2c1.44.37,2.26.31,2.45-.17S298.46,42.1,297.18,41.32Z"/><line class="cls-47" x1="276.79" y1="39.06" x2="278.01" y2="36.02"/><line class="cls-47" x1="279.07" y1="41.14" x2="280.37" y2="38.03"/><line class="cls-47" x1="280.03" y1="41.94" x2="281.3" y2="38.77"/><line class="cls-47" x1="280.67" y1="42.4" x2="281.97" y2="39.16"/><line class="cls-47" x1="284.11" y1="44.64" x2="285.47" y2="41.25"/><line class="cls-47" x1="285.34" y1="45.14" x2="286.68" y2="41.79"/><line class="cls-47" x1="286.65" y1="45.81" x2="288.01" y2="42.42"/><line class="cls-47" x1="290.2" y1="47.43" x2="291.48" y2="44.22"/><line class="cls-47" x1="290.85" y1="47.85" x2="292.19" y2="44.5"/><line class="cls-47" x1="291.82" y1="48.09" x2="293.11" y2="44.87"/><line class="cls-47" x1="297.44" y1="50.39" x2="298.85" y2="46.87"/><line class="cls-47" x1="299.57" y1="50.93" x2="300.95" y2="47.5"/><line class="cls-47" x1="301.84" y1="51.53" x2="303.19" y2="48.14"/><line class="cls-47" x1="304.25" y1="52.14" x2="305.64" y2="48.66"/><line class="cls-47" x1="307.37" y1="52.52" x2="308.72" y2="49.13"/><line class="cls-47" x1="308.16" y1="52.59" x2="309.54" y2="49.15"/><line class="cls-47" x1="309.16" y1="52.63" x2="310.54" y2="49.19"/><line class="cls-47" x1="311.43" y1="52.46" x2="312.82" y2="48.98"/><path class="cls-18" d="M323.47,41.85c-.17,2.72-9.29,4.36-20.38,3.66s-20-3.57-19.8-6.29c.07-1,.18-3.55.18-3.55s13.21-.45,20.24,0c7.43.47,19.81,2.39,19.81,2.39S323.53,41,323.47,41.85Z"/><path class="cls-48" d="M323.52,38.05c-.17,2.72-9.29,4.36-20.38,3.66s-19.93-3.47-19.76-6.19,9.3-4.36,20.38-3.66S323.69,35.33,323.52,38.05Z"/><path class="cls-49" d="M320.61,37.87c-.15,2.35-8.05,3.77-17.64,3.16s-17.25-3-17.1-5.35,8.05-3.77,17.64-3.17S320.76,35.52,320.61,37.87Z"/><path class="cls-18" d="M302.83,33.53l0-.45.52,0,0,.42.76,0,.81.07,0-.42.52,0,0,.44a8.38,8.38,0,0,1,2.43.59c.53.26.78.51.77.77s-.14.28-.38.36a2,2,0,0,1-.79.09,2,2,0,0,1-.74-.18c-.2-.1-.3-.22-.29-.36s.26-.33.73-.39c.22,0,.34-.05.34-.09s-.17-.13-.51-.25a7.65,7.65,0,0,0-1.58-.32l-.14,2.27c2.25.53,3.35,1.18,3.3,2,0,.35-.33.66-.91.94a7.44,7.44,0,0,1-2.6.5l-.07,1-.51,0,.06-.94a15.25,15.25,0,0,1-1.58-.06l-.06.9-.51,0,.06-.92a8.43,8.43,0,0,1-2.75-.72c-.56-.31-.84-.61-.82-.9s.14-.28.38-.38a1.93,1.93,0,0,1,.94-.13,2.47,2.47,0,0,1,.79.18c.24.11.35.23.35.37s-.13.25-.35.33a2.31,2.31,0,0,1-.76.08l-.17,0-.16,0q-.14,0-.15.06t.69.45a7,7,0,0,0,2,.47l.17-2.71c-2.13-.45-3.17-1-3.13-1.73S300.67,33.62,302.83,33.53Zm-.13,2,.12-1.8c-1.35.09-2,.35-2.06.78S301.38,35.27,302.7,35.58Zm.64-1.81-.13,1.94c.31.08.82.19,1.56.33l.14-2.18-.76-.07-.47,0Zm1.22,5.59.15-2.31-1.56-.37L303,39.3l.4,0Zm.66-2.19-.14,2.16c1.48-.11,2.24-.42,2.27-.94S306.67,37.51,305.22,37.17Z"/><line class="cls-47" x1="285.2" y1="41.38" x2="285.42" y2="37.88"/><line class="cls-47" x1="288.02" y1="42.66" x2="288.28" y2="39.3"/><line class="cls-47" x1="289.18" y1="43.11" x2="289.39" y2="39.7"/><line class="cls-47" x1="289.92" y1="43.35" x2="290.17" y2="39.46"/><line class="cls-47" x1="293.9" y1="44.4" x2="294.13" y2="40.76"/><line class="cls-47" x1="295.22" y1="44.49" x2="295.45" y2="40.89"/><line class="cls-47" x1="296.68" y1="44.72" x2="296.91" y2="41.08"/><line class="cls-47" x1="300.55" y1="45.16" x2="300.77" y2="41.7"/><line class="cls-47" x1="301.3" y1="45.35" x2="301.52" y2="41.75"/><line class="cls-47" x1="302.3" y1="45.27" x2="302.52" y2="41.81"/><line class="cls-47" x1="308.35" y1="45.7" x2="308.59" y2="41.91"/><line class="cls-47" x1="310.55" y1="45.55" x2="310.78" y2="41.86"/><line class="cls-47" x1="312.89" y1="45.41" x2="313.12" y2="41.77"/><line class="cls-47" x1="315.37" y1="45.24" x2="315.61" y2="41.5"/><line class="cls-47" x1="318.45" y1="44.62" x2="318.68" y2="40.98"/><line class="cls-47" x1="319.22" y1="44.44" x2="319.46" y2="40.74"/><line class="cls-47" x1="320.19" y1="44.16" x2="320.42" y2="40.47"/><line class="cls-47" x1="322.29" y1="43.3" x2="322.52" y2="39.56"/><path class="cls-50" d="M177.06,65c-3.5-1-3.58-5.24-3.58-5.24C173.3,41.6,162.3,37.84,162.3,37.84h-3.06s-11,3.76-11.17,21.92c0,0-.09,4.19-3.58,5.24,0,0,1.36,1.12,5.49.72a34.82,34.82,0,0,0,21.59.09S175.67,66.08,177.06,65Z"/><path class="cls-51" d="M164.58,37.05s.56-1.75,6-4.19c0,0-.61-1.22-4.73-2.07,0,0-2.86,2.85-3,6.26Z"/><path class="cls-51" d="M156.53,37.05s-.56-1.75-6-4.19c0,0,.61-1.22,4.73-2.07,0,0,2.86,2.85,3.05,6.26Z"/><path class="cls-52" d="M154.63,33.27A8.21,8.21,0,0,1,156,34.42c.38.43.7.9,1,1.36l0,0,0,0,.17.2c.16.19.31.37.45.56a2.87,2.87,0,0,1,.28.43h.3c-.19-3.41-3.05-6.26-3.05-6.26a14.16,14.16,0,0,0-3.25,1A11.85,11.85,0,0,1,154.63,33.27Z"/><path class="cls-53" d="M157.9,37.05A11.74,11.74,0,0,0,152,30.41a19.25,19.25,0,0,1,8.72-1.55s.22,2.63.22,8.19Z"/><path class="cls-52" d="M173.48,59.76c-.1-10.2-3.61-15.86-6.68-18.85a32.88,32.88,0,0,1,.17,3.58c0,.69,0,1.38.08,2.06s.15,1.29.19,1.94c.15,2.09.06,4.18.17,6.27a33,33,0,0,1-.08,6.59,7.71,7.71,0,0,1-1,3c-.08.13-.17.25-.26.38l.11,0a16.33,16.33,0,0,0,2.47-.84c.73-.34,1.47-1,2.33-.85a10.08,10.08,0,0,1,1.45.3,6.83,6.83,0,0,0,1.17.27c.42,0,.83,0,1.25,0A6.77,6.77,0,0,1,173.48,59.76Z"/><path class="cls-52" d="M146.64,63.89a6.74,6.74,0,0,0,.75-.17c.11,0,.23-.07.34-.12l.18-.07a5.12,5.12,0,0,0,.52-.27l.25-.17,0,0,0,0a4.07,4.07,0,0,0,.42-.41l.14-.16.09-.13a5.13,5.13,0,0,0,.48-.85s.05-.12.05-.14l.06-.17.12-.34c.07-.23.13-.47.18-.71.12-.52.21-1,.28-1.56.16-1.08.27-2.17.5-3.23a15.5,15.5,0,0,1,1.43-3.69,12.92,12.92,0,0,1,2.72-3.75,16.24,16.24,0,0,1,4.21-2.49,18.77,18.77,0,0,0,2.13-1.12,8.74,8.74,0,0,0,1.73-1.48,9.36,9.36,0,0,0,1.18-1.62,7.77,7.77,0,0,0,.73-1.65,11.69,11.69,0,0,0-2.91-1.69h-3.06s-11,3.76-11.17,21.92a6.52,6.52,0,0,1-1.93,4.35h.13A.67.67,0,0,1,146.64,63.89Z"/><path class="cls-52" d="M174.38,65.15A9.08,9.08,0,0,1,173,65c-.43-.08-.85-.21-1.27-.32-.21,0-.41-.11-.62-.14a.74.74,0,0,0-.32,0,3.52,3.52,0,0,0-.82.38,13.24,13.24,0,0,1-2.41,1,22.25,22.25,0,0,1-2.4.62,25.19,25.19,0,0,1-5,.46,29.59,29.59,0,0,1-5.47-.56,13.73,13.73,0,0,1-2.56-.78,3.8,3.8,0,0,1-1.11-.66c-.21-.18-.4-.38-.6-.57l-.12.09a4.15,4.15,0,0,1-.86.51,7.66,7.66,0,0,1-2.26.62c-.25,0-.5,0-.76,0a13.61,13.61,0,0,0,3.53,0,34.82,34.82,0,0,0,21.59.09s4.1.27,5.49-.81l-.18-.06A11.57,11.57,0,0,1,174.38,65.15Z"/><path class="cls-54" d="M157.28,38.89c.08.23.06.38-.12.38h0a.69.69,0,0,1-.56-.38,1.8,1.8,0,0,1-.24-1.46.76.76,0,0,1,.58-.38h0c.17,0,.19.16.1.38A2.18,2.18,0,0,0,157.28,38.89Z"/><path class="cls-54" d="M158,38.89c.06.23,0,.38-.17.38h0a.63.63,0,0,1-.52-.38,2.11,2.11,0,0,1-.23-1.46.65.65,0,0,1,.53-.38h0c.17,0,.22.16.15.38A2.6,2.6,0,0,0,158,38.89Z"/><path class="cls-54" d="M158.71,38.89c0,.23,0,.38-.2.38h0a.55.55,0,0,1-.48-.38,2.6,2.6,0,0,1-.24-1.46.59.59,0,0,1,.49-.38h0c.18,0,.25.16.19.38A3.56,3.56,0,0,0,158.71,38.89Z"/><path class="cls-54" d="M159.47,38.89c0,.23-.08.38-.25.38h0a.48.48,0,0,1-.44-.38,3.39,3.39,0,0,1-.23-1.46.5.5,0,0,1,.44-.38h0c.18,0,.27.16.24.38A5,5,0,0,0,159.47,38.89Z"/><path class="cls-54" d="M160.14,38.89c0,.23-.11.38-.28.38h0a.43.43,0,0,1-.4-.38,5,5,0,0,1-.24-1.46.46.46,0,0,1,.41-.38h0c.18,0,.29.16.27.38A10.58,10.58,0,0,0,160.14,38.89Z"/><path class="cls-54" d="M160.9,38.89a.36.36,0,0,1-.33.38h0a.38.38,0,0,1-.36-.38,12.34,12.34,0,0,1-.24-1.46.42.42,0,0,1,.37-.38h0a.35.35,0,0,1,.32.38C160.73,37.89,160.82,38.43,160.9,38.89Z"/><path class="cls-54" d="M161.57,38.89a.39.39,0,0,1-.37.38h0a.34.34,0,0,1-.31-.38c-.08-.46-.17-1-.24-1.46a.35.35,0,0,1,.33-.38h0a.38.38,0,0,1,.35.38A10.58,10.58,0,0,1,161.57,38.89Z"/><path class="cls-54" d="M162.33,38.89a.45.45,0,0,1-.42.38h0c-.17,0-.29-.15-.27-.38a9.26,9.26,0,0,0-.24-1.46c0-.22.11-.38.29-.38h0a.45.45,0,0,1,.4.38A5.71,5.71,0,0,1,162.33,38.89Z"/><path class="cls-54" d="M163,38.89a.5.5,0,0,1-.45.38h0c-.17,0-.27-.15-.23-.38a5.71,5.71,0,0,0-.24-1.46c0-.22.07-.38.25-.38h0a.49.49,0,0,1,.43.38A3.56,3.56,0,0,1,163,38.89Z"/><path class="cls-54" d="M163.75,38.89a.56.56,0,0,1-.49.38h0c-.17,0-.24-.15-.19-.38a3.4,3.4,0,0,0-.24-1.46c0-.22,0-.38.21-.38h0a.57.57,0,0,1,.48.38A2.68,2.68,0,0,1,163.75,38.89Z"/><path class="cls-54" d="M164.43,38.89a.65.65,0,0,1-.53.38h0c-.18,0-.22-.15-.15-.38a2.69,2.69,0,0,0-.24-1.46c-.07-.22,0-.38.16-.38h0a.63.63,0,0,1,.52.38A2.18,2.18,0,0,1,164.43,38.89Z"/><path class="cls-54" d="M165.18,38.89a.73.73,0,0,1-.57.38h0c-.18,0-.2-.15-.11-.38a2.07,2.07,0,0,0-.24-1.46c-.08-.22,0-.38.13-.38h0a.74.74,0,0,1,.56.38A1.83,1.83,0,0,1,165.18,38.89Z"/><path class="cls-54" d="M156.73,39.67c0,.13-.07.21-.3.21h0c-.22,0-.47-.08-.53-.21a1.19,1.19,0,0,1-.29-.81c.06-.13.32-.22.54-.22h0c.22,0,.34.09.29.22A1.43,1.43,0,0,0,156.73,39.67Z"/><path class="cls-54" d="M157.65,39.67c0,.13-.1.21-.32.21h0c-.22,0-.47-.08-.51-.21a1.36,1.36,0,0,1-.29-.81c.05-.13.29-.22.52-.22h0c.22,0,.35.09.31.22A1.7,1.7,0,0,0,157.65,39.67Z"/><path class="cls-54" d="M158.47,39.67c0,.13-.12.21-.35.21h0c-.22,0-.45-.08-.48-.21a1.7,1.7,0,0,1-.29-.81c0-.13.27-.22.49-.22h0c.23,0,.37.09.34.22A2.09,2.09,0,0,0,158.47,39.67Z"/><path class="cls-54" d="M159.38,39.67c0,.13-.14.21-.36.21h0c-.22,0-.44-.08-.47-.21a2.48,2.48,0,0,1-.29-.81c0-.13.25-.22.48-.22h0c.22,0,.37.09.35.22A4,4,0,0,0,159.38,39.67Z"/><path class="cls-54" d="M160.2,39.67c0,.13-.16.21-.38.21h0c-.22,0-.43-.08-.45-.21a4,4,0,0,1-.29-.81c0-.13.23-.22.45-.22h0c.23,0,.39.09.38.22A7.2,7.2,0,0,0,160.2,39.67Z"/><path class="cls-54" d="M161.12,39.67c0,.13-.19.21-.41.21h0c-.22,0-.41-.08-.42-.21a7.2,7.2,0,0,1-.29-.81c0-.13.21-.22.43-.22h0c.22,0,.4.09.4.22S161,39.41,161.12,39.67Z"/><path class="cls-54" d="M161.94,39.67c0,.13-.21.21-.43.21h0c-.22,0-.4-.08-.4-.21s-.2-.56-.29-.81.18-.22.41-.22h0c.22,0,.41.09.42.22A7.81,7.81,0,0,1,161.94,39.67Z"/><path class="cls-54" d="M162.85,39.67c0,.13-.23.21-.45.21h0c-.22,0-.39-.08-.38-.21a4.9,4.9,0,0,0-.29-.81c0-.13.17-.22.39-.22h0c.22,0,.42.09.44.22A3.15,3.15,0,0,1,162.85,39.67Z"/><path class="cls-54" d="M163.67,39.67c0,.13-.25.21-.47.21h0c-.22,0-.38-.08-.36-.21a3.15,3.15,0,0,0-.29-.81c0-.13.14-.22.37-.22h0c.22,0,.43.09.46.22A2.33,2.33,0,0,1,163.67,39.67Z"/><path class="cls-54" d="M164.59,39.67c0,.13-.28.21-.5.21h0c-.22,0-.36-.08-.33-.21a2.33,2.33,0,0,0-.29-.81c0-.13.12-.22.34-.22h0c.22,0,.45.09.49.22A1.73,1.73,0,0,1,164.59,39.67Z"/><path class="cls-54" d="M165.41,39.67c0,.13-.3.21-.52.21h0c-.22,0-.35-.08-.31-.21a1.73,1.73,0,0,0-.29-.81c0-.13.1-.22.32-.22h0c.22,0,.46.09.51.22A1.39,1.39,0,0,1,165.41,39.67Z"/><path class="cls-54" d="M166.32,39.67c-.06.13-.32.21-.54.21h0c-.22,0-.33-.08-.29-.21a1.26,1.26,0,0,0-.29-.81c0-.13.08-.22.3-.22h0c.22,0,.48.09.53.22A1.12,1.12,0,0,1,166.32,39.67Z"/><path class="cls-52" d="M164.08,35.19a11,11,0,0,1,1.2-1.43,11.55,11.55,0,0,1,1.36-1.06,11,11,0,0,1,1.41-.92l.51-.23a17,17,0,0,0-2.68-.76s-2.86,2.85-3,6.26h0A8.64,8.64,0,0,1,164.08,35.19Z"/><path class="cls-52" d="M159.52,29.87a11,11,0,0,0-.06,1.73,17.19,17.19,0,0,0,.16,3.59,6,6,0,0,0,.76,1.86h.6c0-5.56-.22-8.19-.22-8.19-.36,0-.7,0-1,0C159.66,29.17,159.58,29.52,159.52,29.87Z"/><path class="cls-50" d="M163,37.05s1.37-4.93,5.87-7a16.43,16.43,0,0,0-8-1.66s-1,2.19-.34,8.69Z"/><g class="cls-55"><path class="cls-56" d="M159.65,61.85V59.56a4.55,4.55,0,0,1-2.17-.7,1.67,1.67,0,0,1-.76-1.4,1.13,1.13,0,0,1,.31-.84,1.06,1.06,0,0,1,.8-.32,1,1,0,0,1,.73.27,1,1,0,0,1,.27.74.88.88,0,0,1-.05.33.63.63,0,0,1-.16.26,1.09,1.09,0,0,1-.25.15c-.11.05-.16.1-.16.16s.13.31.4.43a2.79,2.79,0,0,0,1,.17V55.15l-.56-.26a4.26,4.26,0,0,1-1.67-1.18,2.47,2.47,0,0,1-.54-1.59,2.43,2.43,0,0,1,.72-1.81,3.58,3.58,0,0,1,2.05-.91V48.32h.77V49.4a3.89,3.89,0,0,1,2.08.59,1.62,1.62,0,0,1,.75,1.4,1.09,1.09,0,0,1-.28.76,1,1,0,0,1-.73.3,1.13,1.13,0,0,1-.78-.25.79.79,0,0,1-.3-.64.93.93,0,0,1,.25-.61.88.88,0,0,0,.24-.39c0-.15-.1-.27-.29-.37a1.69,1.69,0,0,0-.76-.15h-.19v3.15l.4.21.44.21a5.28,5.28,0,0,1,1.45.89,2.3,2.3,0,0,1,.58.86,3.1,3.1,0,0,1,.2,1.12,2.8,2.8,0,0,1-.8,2.07,3.84,3.84,0,0,1-2.27,1v2.29Zm0-8.94V50.12a2.1,2.1,0,0,0-1,.47,1.08,1.08,0,0,0-.35.81,1.22,1.22,0,0,0,.35.8A3.36,3.36,0,0,0,159.68,52.91Zm.73,5.87a2.46,2.46,0,0,0,1.26-.56,1.37,1.37,0,0,0,0-2,3.57,3.57,0,0,0-1.26-.77Z"/></g><path class="cls-57" d="M160.19,61.85V59.56a4.47,4.47,0,0,1-2.16-.7,1.68,1.68,0,0,1-.77-1.4,1.17,1.17,0,0,1,.31-.84,1.09,1.09,0,0,1,.8-.32.93.93,0,0,1,1,1,1.14,1.14,0,0,1,0,.33.65.65,0,0,1-.17.26.83.83,0,0,1-.24.15c-.11.05-.17.1-.17.16s.14.31.41.43a2.73,2.73,0,0,0,1,.17V55.15l-.55-.26A4.31,4.31,0,0,1,158,53.71a2.52,2.52,0,0,1-.53-1.59,2.43,2.43,0,0,1,.72-1.81,3.52,3.52,0,0,1,2-.91V48.32H161V49.4a3.93,3.93,0,0,1,2.09.59,1.63,1.63,0,0,1,.74,1.4,1.05,1.05,0,0,1-.28.76.92.92,0,0,1-.72.3,1.17,1.17,0,0,1-.79-.25.81.81,0,0,1-.29-.64A1,1,0,0,1,162,51a.88.88,0,0,0,.24-.39c0-.15-.09-.27-.29-.37a1.66,1.66,0,0,0-.76-.15H161v3.15l.4.21c.09.05.23.12.44.21a5.36,5.36,0,0,1,1.44.89,2.32,2.32,0,0,1,.59.86,3.1,3.1,0,0,1,.19,1.12,2.8,2.8,0,0,1-.79,2.07,3.84,3.84,0,0,1-2.27,1v2.29Zm0-8.94V50.12a2.1,2.1,0,0,0-1,.47,1,1,0,0,0-.35.81,1.17,1.17,0,0,0,.35.8A3.43,3.43,0,0,0,160.22,52.91Zm.73,5.87a2.46,2.46,0,0,0,1.27-.56,1.37,1.37,0,0,0,0-2,3.54,3.54,0,0,0-1.27-.77Z"/><rect class="cls-58" x="37.31" y="291.17" width="8.2" height="12.19"/><rect class="cls-58" x="29.11" y="288.63" width="8.2" height="17.14"/><rect class="cls-58" x="342.42" y="291.17" width="8.2" height="12.19"/><rect class="cls-58" x="350.62" y="288.63" width="8.2" height="17.14"/><path class="cls-58" d="M113.73,177.41a4,4,0,0,1-4,4H73a4,4,0,0,1-4-4h0a4,4,0,0,1,4-4h36.73a4,4,0,0,1,4,4Z"/><path class="cls-58" d="M302.45,177.41a4,4,0,0,1-4,4H261.76a4,4,0,0,1-4-4h0a4,4,0,0,1,4-4h36.73a4,4,0,0,1,4,4Z"/><path class="cls-59" d="M346,243.82c0,23.16-14.93,41.95-33.34,41.95H65c-18.42,0-33.34-18.79-33.34-41.95V219.35c0-23.16,14.92-41.94,33.34-41.94h247.7c18.41,0,33.34,18.78,33.34,41.94Z"/><path class="cls-60" d="M79.13,185.31s246.05-5.52,238-5.52H69.47a33.34,33.34,0,0,0-33.34,33.34v19.45C36.13,247,41.32,184.51,79.13,185.31Z"/><polygon class="cls-61" points="41.83 285.76 346 285.76 346 308.89 340.96 317.56 47.83 317.56 41.83 308.89 41.83 285.76"/><rect class="cls-58" x="41.83" y="285.77" width="304.16" height="5.41"/><path class="cls-62" d="M92.18,317.63a24.4,24.4,0,0,0,.17-2.73,22.35,22.35,0,1,0-44.69,0,24.4,24.4,0,0,0,.17,2.73Z"/><path class="cls-63" d="M70.09,299.29a16.58,16.58,0,1,0,16.57,16.58A16.57,16.57,0,0,0,70.09,299.29Zm7.42,29.93-6-9.55-2.11.61-1.93,10.63a15.18,15.18,0,0,1-7.24-3.33l6.7-8.66-.49-2.12L55.2,319.27a15.89,15.89,0,0,1-.39-3.4,14.81,14.81,0,0,1,.28-2.85l11.07,1.44.75-1.38-7-8.55A15.3,15.3,0,0,1,63.78,302l4.74,9.91,2-.52L73.44,301a15.22,15.22,0,0,1,5.19,2.22l-5.76,9.5,1.27,1.42,10.35-3.34a15.4,15.4,0,0,1,.89,5.1c0,.32,0,.63,0,.95l-11.41-.27L73.3,318l8.37,7.84A15.48,15.48,0,0,1,77.51,329.22Z"/><path class="cls-64" d="M70.09,295.42a20.45,20.45,0,1,0,20.45,20.45A20.44,20.44,0,0,0,70.09,295.42Zm0,37a16.58,16.58,0,1,1,16.57-16.57A16.57,16.57,0,0,1,70.09,332.44Z"/><path class="cls-65" d="M75,315.87A4.92,4.92,0,1,1,70.09,311,4.91,4.91,0,0,1,75,315.87Z"/><path class="cls-66" d="M72.87,315.87a2.78,2.78,0,1,1-2.78-2.79A2.77,2.77,0,0,1,72.87,315.87Z"/><path class="cls-56" d="M70.09,299.29a16.58,16.58,0,1,0,16.57,16.58A16.57,16.57,0,0,0,70.09,299.29Zm0,31.86a15.29,15.29,0,1,1,15.29-15.28A15.28,15.28,0,0,1,70.09,331.15Z"/><path class="cls-62" d="M142.79,317.63a22.35,22.35,0,1,0-44.52-2.73,24.4,24.4,0,0,0,.17,2.73Z"/><path class="cls-63" d="M120.7,299.29a16.58,16.58,0,1,0,16.57,16.58A16.57,16.57,0,0,0,120.7,299.29Zm7.42,29.93-6-9.55-2.11.61-1.93,10.63a15.18,15.18,0,0,1-7.24-3.33l6.7-8.66-.49-2.12-11.29,2.47a15.89,15.89,0,0,1-.39-3.4,14.81,14.81,0,0,1,.28-2.85l11.07,1.44.75-1.38-7-8.55a15.3,15.3,0,0,1,3.91-2.57l4.74,9.91,2-.52L124.05,301a15.22,15.22,0,0,1,5.19,2.22l-5.76,9.5,1.27,1.42,10.35-3.34a15.39,15.39,0,0,1,.88,5.1c0,.32,0,.63,0,.95l-11.41-.27-.62,1.44,8.37,7.84A15.48,15.48,0,0,1,128.12,329.22Z"/><path class="cls-64" d="M120.7,295.42a20.45,20.45,0,1,0,20.45,20.45A20.44,20.44,0,0,0,120.7,295.42Zm0,37a16.58,16.58,0,1,1,16.57-16.57A16.57,16.57,0,0,1,120.7,332.44Z"/><path class="cls-65" d="M125.62,315.87A4.92,4.92,0,1,1,120.7,311,4.91,4.91,0,0,1,125.62,315.87Z"/><path class="cls-66" d="M123.48,315.87a2.78,2.78,0,1,1-2.78-2.79A2.77,2.77,0,0,1,123.48,315.87Z"/><path class="cls-56" d="M120.7,299.29a16.58,16.58,0,1,0,16.57,16.58A16.57,16.57,0,0,0,120.7,299.29Zm0,31.86A15.29,15.29,0,1,1,136,315.87,15.28,15.28,0,0,1,120.7,331.15Z"/><path class="cls-62" d="M281.94,317.58a22.34,22.34,0,1,0-44.34,0Z"/><path class="cls-63" d="M259.86,299.24a16.58,16.58,0,1,0,16.57,16.57A16.58,16.58,0,0,0,259.86,299.24Zm7.41,29.93-5.95-9.55-2.11.61-1.93,10.63a15.15,15.15,0,0,1-7.24-3.34l6.7-8.66-.49-2.11L245,319.21a15.14,15.14,0,0,1-.4-3.4,14.78,14.78,0,0,1,.28-2.84l11.08,1.44.75-1.37-7-8.56a15.25,15.25,0,0,1,3.9-2.57l4.74,9.91,2-.53,2.92-10.38a15.1,15.1,0,0,1,5.2,2.23l-5.76,9.5,1.27,1.42,10.34-3.34a15.38,15.38,0,0,1,.89,5.09c0,.33,0,.64-.05.95l-11.41-.26-.61,1.44,8.36,7.84A15.33,15.33,0,0,1,267.27,329.17Z"/><path class="cls-64" d="M259.86,295.37a20.45,20.45,0,1,0,20.45,20.44A20.44,20.44,0,0,0,259.86,295.37Zm0,37a16.58,16.58,0,1,1,16.57-16.58A16.58,16.58,0,0,1,259.86,332.39Z"/><path class="cls-65" d="M264.77,315.81a4.92,4.92,0,1,1-4.91-4.91A4.91,4.91,0,0,1,264.77,315.81Z"/><path class="cls-66" d="M262.64,315.81a2.78,2.78,0,1,1-2.78-2.77A2.78,2.78,0,0,1,262.64,315.81Z"/><path class="cls-56" d="M259.86,299.24a16.58,16.58,0,1,0,16.57,16.57A16.58,16.58,0,0,0,259.86,299.24Zm0,31.86a15.29,15.29,0,1,1,15.28-15.29A15.29,15.29,0,0,1,259.86,331.1Z"/><path class="cls-62" d="M332.55,317.58a22.34,22.34,0,1,0-44.34,0Z"/><path class="cls-63" d="M310.47,299.24A16.58,16.58,0,1,0,327,315.81,16.57,16.57,0,0,0,310.47,299.24Zm7.41,29.93-5.95-9.55-2.11.61-1.93,10.63a15.15,15.15,0,0,1-7.24-3.34l6.7-8.66-.49-2.11-11.29,2.46a15.74,15.74,0,0,1-.38-3.4,14.78,14.78,0,0,1,.27-2.84l11.08,1.44.75-1.37-7-8.56a15.25,15.25,0,0,1,3.9-2.57l4.74,9.91,2-.53,2.92-10.38a15.1,15.1,0,0,1,5.2,2.23l-5.76,9.5,1.27,1.42,10.34-3.34a15.38,15.38,0,0,1,.89,5.09c0,.33,0,.64-.05.95l-11.41-.26-.61,1.44,8.36,7.84A15.33,15.33,0,0,1,317.88,329.17Z"/><path class="cls-64" d="M310.47,295.37a20.45,20.45,0,1,0,20.45,20.44A20.44,20.44,0,0,0,310.47,295.37Zm0,37A16.58,16.58,0,1,1,327,315.81,16.57,16.57,0,0,1,310.47,332.39Z"/><path class="cls-65" d="M315.38,315.81a4.92,4.92,0,1,1-4.91-4.91A4.91,4.91,0,0,1,315.38,315.81Z"/><path class="cls-66" d="M313.25,315.81a2.78,2.78,0,1,1-2.78-2.77A2.78,2.78,0,0,1,313.25,315.81Z"/><path class="cls-56" d="M310.47,299.24A16.58,16.58,0,1,0,327,315.81,16.57,16.57,0,0,0,310.47,299.24Zm0,31.86a15.29,15.29,0,1,1,15.28-15.29A15.28,15.28,0,0,1,310.47,331.1Z"/><rect class="cls-67" x="161.63" y="300.21" width="54.36" height="21.47" rx="3.65"/><path class="cls-66" d="M171.14,321.44a1.76,1.76,0,0,1-1.9,1.55h0a1.75,1.75,0,0,1-1.89-1.55v-21a1.74,1.74,0,0,1,1.89-1.55h0a1.75,1.75,0,0,1,1.9,1.55Z"/><path class="cls-66" d="M184.17,321.44a1.76,1.76,0,0,1-1.9,1.55h0a1.75,1.75,0,0,1-1.89-1.55v-21a1.75,1.75,0,0,1,1.89-1.55h0a1.75,1.75,0,0,1,1.9,1.55Z"/><path class="cls-66" d="M197.2,321.44a1.76,1.76,0,0,1-1.9,1.55h0a1.76,1.76,0,0,1-1.9-1.55v-21a1.75,1.75,0,0,1,1.9-1.55h0a1.75,1.75,0,0,1,1.9,1.55Z"/><path class="cls-66" d="M210.23,321.44a1.76,1.76,0,0,1-1.9,1.55h0a1.76,1.76,0,0,1-1.9-1.55v-21a1.76,1.76,0,0,1,1.9-1.55h0a1.75,1.75,0,0,1,1.9,1.55Z"/><path class="cls-58" d="M220.4,284.79a3.33,3.33,0,0,1-3.28,3.38h0a3.33,3.33,0,0,1-3.28-3.38V178.39a3.34,3.34,0,0,1,3.28-3.39h0a3.34,3.34,0,0,1,3.28,3.39Z"/><path class="cls-58" d="M246.13,284.79a3.33,3.33,0,0,1-3.28,3.38h0a3.33,3.33,0,0,1-3.28-3.38V178.39a3.34,3.34,0,0,1,3.28-3.39h0a3.34,3.34,0,0,1,3.28,3.39Z"/><path class="cls-58" d="M249.92,196.85a3.6,3.6,0,0,1-3.41,3.76H214.88a3.6,3.6,0,0,1-3.41-3.76h0a3.59,3.59,0,0,1,3.41-3.76h31.63a3.6,3.6,0,0,1,3.41,3.76Z"/><path class="cls-58" d="M249.61,217.49a3.6,3.6,0,0,1-3.41,3.76H214.57a3.6,3.6,0,0,1-3.41-3.76h0a3.59,3.59,0,0,1,3.41-3.76H246.2a3.6,3.6,0,0,1,3.41,3.76Z"/><path class="cls-58" d="M249.3,238.13a3.6,3.6,0,0,1-3.41,3.76H214.26a3.6,3.6,0,0,1-3.41-3.76h0a3.6,3.6,0,0,1,3.41-3.76h31.63a3.59,3.59,0,0,1,3.41,3.76Z"/><path class="cls-58" d="M249,258.77a3.6,3.6,0,0,1-3.41,3.76H214a3.6,3.6,0,0,1-3.41-3.76h0A3.6,3.6,0,0,1,214,255h31.64a3.6,3.6,0,0,1,3.41,3.76Z"/><path class="cls-58" d="M248.69,279.41a3.6,3.6,0,0,1-3.41,3.76H213.64a3.6,3.6,0,0,1-3.41-3.76h0a3.6,3.6,0,0,1,3.41-3.76h31.64a3.6,3.6,0,0,1,3.41,3.76Z"/><path class="cls-68" d="M150.8,233.29a34.05,34.05,0,1,1-34.05-34A34,34,0,0,1,150.8,233.29Z"/><path class="cls-58" d="M130.79,237.3a13.55,13.55,0,1,1-27.1,0c0-7.48,13.55-25,13.55-25S130.79,229.82,130.79,237.3Z"/><path class="cls-69" d="M117.78,249a12.68,12.68,0,0,1-12.93-12.42C104.85,229.67,124.92,249,117.78,249Z"/><path class="cls-70" d="M296.74,238.09a14,14,0,0,1-4.3,10.3,14.45,14.45,0,0,1-10.37,4.3,14.15,14.15,0,0,1-10.36-4.3,13.8,13.8,0,0,1-4.31-10.3,14.7,14.7,0,0,1,14.67-14.67,14.68,14.68,0,0,1,14.67,14.67Zm-5.54,0a9.18,9.18,0,0,0-15.65-6.46,9.09,9.09,0,0,0-2.67,6.46,8.79,8.79,0,0,0,2.67,6.45,9.22,9.22,0,0,0,13,0A8.79,8.79,0,0,0,291.2,238.09Z"/><path class="cls-70" d="M305.54,218.07a3,3,0,0,1-5.11,2.15,2.83,2.83,0,0,1-.88-2.15,3,3,0,0,1,5.14-2.12A2.93,2.93,0,0,1,305.54,218.07Zm-5.73,33.25V225.57a1.47,1.47,0,0,1,.13-.66,1.21,1.21,0,0,1,1.17-.71H304a1,1,0,0,1,.75.23,1.59,1.59,0,0,1,.36.48,1.47,1.47,0,0,1,.13.66v25.75a1.39,1.39,0,0,1-.13.65,1.06,1.06,0,0,1-1.11.66h-2.93a1.11,1.11,0,0,1-1.17-.66A1.39,1.39,0,0,1,299.81,251.32Z"/><path class="cls-70" d="M308.35,250.93v-34.1a2.61,2.61,0,0,1,.13-.85,1.76,1.76,0,0,1,.36-.58,1.14,1.14,0,0,1,.75-.33h2.93a1,1,0,0,1,.78.3,2.25,2.25,0,0,1,.39.61,2.61,2.61,0,0,1,.13.85v34.1a2.27,2.27,0,0,1-.13.85,1.08,1.08,0,0,1-1.11.85h-3a1.08,1.08,0,0,1-1.11-.85A2.27,2.27,0,0,1,308.35,250.93Z"/><path class="cls-23" d="M295.55,236.91a14,14,0,0,1-4.3,10.3,14.41,14.41,0,0,1-10.37,4.3,14.11,14.11,0,0,1-10.36-4.3,13.78,13.78,0,0,1-4.3-10.3,14.68,14.68,0,0,1,14.66-14.67,14.68,14.68,0,0,1,14.67,14.67Zm-5.54,0a9.18,9.18,0,0,0-15.65-6.46,9.09,9.09,0,0,0-2.67,6.46,9.16,9.16,0,0,0,18.32,0Z"/><path class="cls-23" d="M304.35,216.89a3,3,0,0,1-5.12,2.16,3,3,0,0,1,4.28-4.28A3,3,0,0,1,304.35,216.89Zm-5.74,33.25V224.39a1.39,1.39,0,0,1,.14-.65,1.2,1.2,0,0,1,1.17-.72h2.93a1,1,0,0,1,.75.23,1.88,1.88,0,0,1,.36.49,1.39,1.39,0,0,1,.13.65v25.75a1.47,1.47,0,0,1-.13.66,1.07,1.07,0,0,1-1.11.65h-2.93a1.12,1.12,0,0,1-1.17-.65A1.46,1.46,0,0,1,298.61,250.14Z"/><path class="cls-23" d="M307.16,249.75v-34.1a2.55,2.55,0,0,1,.13-.84,2,2,0,0,1,.35-.59,1.19,1.19,0,0,1,.75-.32h2.94a1,1,0,0,1,.78.29,2.15,2.15,0,0,1,.39.62,2.55,2.55,0,0,1,.13.84v34.1a2.27,2.27,0,0,1-.13.85,1.07,1.07,0,0,1-1.11.85h-3a1.06,1.06,0,0,1-1.1-.85A2.27,2.27,0,0,1,307.16,249.75Z"/><g class="cls-71"><path class="cls-72" d="M387.93,338.28c0,9-86.84,16.26-194,16.26S0,347.26,0,338.28,86.83,322,194,322,387.93,329.3,387.93,338.28Z"/><path class="cls-73" d="M384.61,338.28c0,8.83-85.36,16-190.64,16s-190.65-7.15-190.65-16,85.36-16,190.65-16S384.61,329.46,384.61,338.28Z"/><path class="cls-74" d="M381.27,338.28C381.27,347,297.4,354,194,354S6.65,347,6.65,338.28s83.87-15.7,187.32-15.7S381.27,329.61,381.27,338.28Z"/><path class="cls-75" d="M377.94,338.28c0,8.52-82.37,15.43-184,15.43S10,346.8,10,338.28s82.37-15.42,184-15.42S377.94,329.77,377.94,338.28Z"/><path class="cls-76" d="M374.61,338.28c0,8.37-80.88,15.14-180.64,15.14S13.3,346.65,13.3,338.28,94.19,323.14,194,323.14,374.61,329.92,374.61,338.28Z"/><path class="cls-77" d="M371.3,338.28c0,8.21-79.4,14.87-177.33,14.87S16.63,346.49,16.63,338.28,96,323.42,194,323.42,371.3,330.07,371.3,338.28Z"/><path class="cls-78" d="M368,338.28c0,8.06-77.89,14.59-174,14.59S20,346.34,20,338.28,97.87,323.7,194,323.7,368,330.23,368,338.28Z"/><path class="cls-79" d="M364.64,338.28c0,7.9-76.41,14.31-170.67,14.31S23.28,346.18,23.28,338.28,99.7,324,194,324,364.64,330.38,364.64,338.28Z"/><path class="cls-80" d="M361.32,338.28c0,7.75-74.93,14-167.35,14S26.61,346,26.61,338.28s74.92-14,167.36-14S361.32,330.53,361.32,338.28Z"/><path class="cls-81" d="M358,338.28c0,7.6-73.43,13.75-164,13.75s-164-6.15-164-13.75,73.43-13.75,164-13.75S358,330.69,358,338.28Z"/><path class="cls-82" d="M354.66,338.28c0,7.44-72,13.47-160.69,13.47s-160.7-6-160.7-13.47,71.94-13.47,160.7-13.47S354.66,330.84,354.66,338.28Z"/><path class="cls-83" d="M351.33,338.28c0,7.28-70.45,13.2-157.36,13.2s-157.38-5.92-157.38-13.2S107.05,325.09,194,325.09,351.33,331,351.33,338.28Z"/><path class="cls-84" d="M348,338.28c0,7.14-69,12.91-154,12.91S39.91,345.42,39.91,338.28s69-12.91,154.06-12.91S348,331.15,348,338.28Z"/><path class="cls-85" d="M344.68,338.28c0,7-67.47,12.63-150.71,12.63S43.24,345.26,43.24,338.28,110.73,325.65,194,325.65,344.68,331.3,344.68,338.28Z"/><path class="cls-86" d="M341.36,338.28c0,6.83-66,12.36-147.39,12.36s-147.4-5.53-147.4-12.36,66-12.35,147.4-12.35S341.36,331.46,341.36,338.28Z"/><path class="cls-87" d="M338,338.28c0,6.67-64.5,12.08-144.06,12.08S49.9,345,49.9,338.28,114.39,326.21,194,326.21,338,331.61,338,338.28Z"/><path class="cls-88" d="M334.7,338.28c0,6.52-63,11.8-140.73,11.8S53.22,344.8,53.22,338.28s63-11.79,140.75-11.79S334.7,331.77,334.7,338.28Z"/><path class="cls-89" d="M331.38,338.28c0,6.36-61.52,11.52-137.41,11.52S56.55,344.64,56.55,338.28,118.08,326.77,194,326.77,331.38,331.92,331.38,338.28Z"/><path class="cls-90" d="M328.06,338.28c0,6.21-60.05,11.24-134.09,11.24s-134.09-5-134.09-11.24S119.91,327,194,327,328.06,332.08,328.06,338.28Z"/><path class="cls-91" d="M324.72,338.28c0,6.05-58.55,11-130.75,11s-130.77-4.91-130.77-11,58.55-11,130.77-11S324.72,332.23,324.72,338.28Z"/><path class="cls-92" d="M321.4,338.28c0,5.9-57,10.68-127.43,10.68S66.53,344.18,66.53,338.28,123.58,327.6,194,327.6,321.4,332.38,321.4,338.28Z"/><path class="cls-93" d="M318.08,338.28c0,5.75-55.57,10.4-124.11,10.4S69.86,344,69.86,338.28s55.55-10.4,124.11-10.4S318.08,332.54,318.08,338.28Z"/><path class="cls-94" d="M314.74,338.28c0,5.59-54.07,10.13-120.77,10.13S73.18,343.87,73.18,338.28,127.26,328.16,194,328.16,314.74,332.69,314.74,338.28Z"/><path class="cls-95" d="M311.42,338.28c0,5.44-52.59,9.85-117.45,9.85s-117.46-4.41-117.46-9.85,52.59-9.84,117.46-9.84S311.42,332.85,311.42,338.28Z"/><path class="cls-96" d="M308.09,338.28c0,5.29-51.1,9.57-114.12,9.57s-114.14-4.28-114.14-9.57,51.1-9.56,114.14-9.56S308.09,333,308.09,338.28Z"/><path class="cls-97" d="M304.76,338.28c0,5.14-49.6,9.29-110.79,9.29s-110.81-4.15-110.81-9.29S132.77,329,194,329,304.76,333.15,304.76,338.28Z"/><path class="cls-98" d="M301.44,338.28c0,5-48.12,9-107.47,9s-107.49-4-107.49-9,48.12-9,107.49-9S301.44,333.31,301.44,338.28Z"/><path class="cls-99" d="M298.11,338.28c0,4.82-46.63,8.73-104.14,8.73S89.81,343.1,89.81,338.28s46.63-8.73,104.16-8.73S298.11,333.46,298.11,338.28Z"/><path class="cls-100" d="M294.79,338.28c0,4.67-45.14,8.45-100.82,8.45S93.15,343,93.15,338.28s45.14-8.45,100.82-8.45S294.79,333.62,294.79,338.28Z"/><path class="cls-101" d="M291.46,338.28c0,4.52-43.66,8.17-97.49,8.17s-97.5-3.65-97.5-8.17,43.65-8.17,97.5-8.17S291.46,333.77,291.46,338.28Z"/><path class="cls-102" d="M288.13,338.28c0,4.36-42.16,7.9-94.16,7.9s-94.18-3.54-94.18-7.9S142,330.39,194,330.39,288.13,333.92,288.13,338.28Z"/><path class="cls-103" d="M284.81,338.28c0,4.21-40.68,7.62-90.84,7.62s-90.84-3.41-90.84-7.62,40.66-7.61,90.84-7.61S284.81,334.08,284.81,338.28Z"/><path class="cls-104" d="M281.47,338.28c0,4.05-39.17,7.34-87.5,7.34s-87.53-3.29-87.53-7.34S145.63,331,194,331,281.47,334.23,281.47,338.28Z"/><path class="cls-105" d="M278.15,338.28c0,3.9-37.7,7.06-84.18,7.06s-84.2-3.16-84.2-7.06,37.69-7.06,84.2-7.06S278.15,334.39,278.15,338.28Z"/><path class="cls-106" d="M274.83,338.28c0,3.74-36.21,6.78-80.86,6.78s-80.88-3-80.88-6.78,36.21-6.77,80.88-6.77S274.83,334.54,274.83,338.28Z"/><path class="cls-107" d="M271.5,338.28c0,3.59-34.72,6.5-77.53,6.5s-77.55-2.91-77.55-6.5,34.72-6.5,77.55-6.5S271.5,334.69,271.5,338.28Z"/><path class="cls-108" d="M268.18,338.28c0,3.44-33.23,6.22-74.21,6.22s-74.22-2.78-74.22-6.22S153,332.06,194,332.06,268.18,334.85,268.18,338.28Z"/><path class="cls-109" d="M264.84,338.28c0,3.29-31.73,5.94-70.87,5.94s-70.9-2.65-70.9-5.94,31.75-5.94,70.9-5.94S264.84,335,264.84,338.28Z"/><path class="cls-110" d="M261.52,338.28c0,3.13-30.24,5.66-67.55,5.66s-67.56-2.53-67.56-5.66,30.25-5.66,67.56-5.66S261.52,335.15,261.52,338.28Z"/><path class="cls-111" d="M258.19,338.28c0,3-28.75,5.39-64.22,5.39s-64.23-2.41-64.23-5.39,28.75-5.38,64.23-5.38S258.19,335.31,258.19,338.28Z"/><path class="cls-112" d="M254.86,338.28c0,2.82-27.26,5.11-60.89,5.11s-60.91-2.29-60.91-5.11,27.27-5.1,60.91-5.1S254.86,335.46,254.86,338.28Z"/><path class="cls-113" d="M251.54,338.28c0,2.67-25.77,4.83-57.57,4.83S136.4,341,136.4,338.28s25.77-4.82,57.57-4.82S251.54,335.62,251.54,338.28Z"/></g></g></g></g></svg>