<svg width="28" height="30" viewBox="0 0 28 30" fill="none" xmlns="http://www.w3.org/2000/svg">
<path d="M4.00033 26.6663H9.00033V16.6663H19.0003V26.6663H24.0003V11.6663L14.0003 4.16634L4.00033 11.6663V26.6663ZM4.00033 29.9997C3.08366 29.9997 2.29866 29.673 1.64533 29.0197C0.991995 28.3663 0.665884 27.5819 0.666995 26.6663V11.6663C0.666995 11.1386 0.785328 10.6386 1.02199 10.1663C1.25866 9.69412 1.58477 9.30523 2.00033 8.99967L12.0003 1.49967C12.3059 1.27745 12.6253 1.11079 12.9587 0.999674C13.292 0.888563 13.6392 0.833008 14.0003 0.833008C14.3614 0.833008 14.7087 0.888563 15.042 0.999674C15.3753 1.11079 15.6948 1.27745 16.0003 1.49967L26.0003 8.99967C26.417 9.30523 26.7437 9.69412 26.9803 10.1663C27.217 10.6386 27.3348 11.1386 27.3337 11.6663V26.6663C27.3337 27.583 27.007 28.368 26.3537 29.0213C25.7003 29.6747 24.9159 30.0008 24.0003 29.9997H15.667V19.9997H12.3337V29.9997H4.00033Z" fill="black"/>
</svg>
