<svg width="36" height="31" viewBox="0 0 36 31" fill="none" xmlns="http://www.w3.org/2000/svg">
<path d="M1.33325 16.0001H4.66659M31.3333 16.0001H34.6666M2.99992 29.3501L3.01659 29.3318M7.99992 22.6835L8.01659 22.6651M12.9999 29.3501L13.0166 29.3318M22.9999 29.3501L23.0166 29.3318M27.9999 22.6835L28.0166 22.6651M32.9999 29.3501L33.0166 29.3318M18.6599 1.66012L23.8333 6.83345C24.9871 7.9872 25.7729 9.45721 26.0913 11.0576C26.4097 12.6579 26.2464 14.3168 25.622 15.8243C24.9976 17.3319 23.9402 18.6204 22.5835 19.5269C21.2267 20.4335 19.6316 20.9174 17.9999 20.9174C16.3682 20.9174 14.7731 20.4335 13.4164 19.5269C12.0597 18.6204 11.0022 17.3319 10.3778 15.8243C9.75343 14.3168 9.5901 12.6579 9.9085 11.0576C10.2269 9.45721 11.0127 7.9872 12.1666 6.83345L17.3399 1.66012C17.4266 1.57344 17.5295 1.50468 17.6427 1.45777C17.756 1.41086 17.8773 1.38672 17.9999 1.38672C18.1225 1.38672 18.2439 1.41086 18.3571 1.45777C18.4704 1.50468 18.5732 1.57344 18.6599 1.66012Z" stroke="black" stroke-width="2.5" stroke-linecap="round" stroke-linejoin="round"/>
</svg>
