<svg width="36" height="36" viewBox="0 0 36 36" fill="none" xmlns="http://www.w3.org/2000/svg">
<path d="M27 30.7391V3.875C26.9986 3.37816 26.8006 2.90209 26.4492 2.55077C26.0979 2.19945 25.6218 2.00144 25.125 2H3.875C3.37816 2.00144 2.90209 2.19945 2.55077 2.55077C2.19945 2.90209 2.00144 3.37816 2 3.875V31.375C2.00247 32.203 2.33251 32.9965 2.91802 33.582C3.50354 34.1675 4.29696 34.4975 5.125 34.5H30.75" stroke="black" stroke-width="2.5" stroke-linejoin="round"/>
<path d="M30.75 34.5C29.7554 34.5 28.8016 34.1049 28.0983 33.4017C27.3951 32.6984 27 31.7446 27 30.75V8.25H32.625C33.1223 8.25 33.5992 8.44754 33.9508 8.79917C34.3025 9.15081 34.5 9.62772 34.5 10.125V30.75C34.5 31.7446 34.1049 32.6984 33.4017 33.4017C32.6984 34.1049 31.7446 34.5 30.75 34.5Z" stroke="black" stroke-width="2.5" stroke-linejoin="round"/>
<path d="M17 8.25H22M17 13.25H22M7 18.25H22M7 23.25H22M7 28.25H22" stroke="black" stroke-width="2.5" stroke-linecap="round" stroke-linejoin="round"/>
<path d="M12 14.5H7C6.66848 14.5 6.35054 14.3683 6.11612 14.1339C5.8817 13.8995 5.75 13.5815 5.75 13.25V8.25C5.75 7.91848 5.8817 7.60054 6.11612 7.36612C6.35054 7.1317 6.66848 7 7 7H12C12.3315 7 12.6495 7.1317 12.8839 7.36612C13.1183 7.60054 13.25 7.91848 13.25 8.25V13.25C13.25 13.5815 13.1183 13.8995 12.8839 14.1339C12.6495 14.3683 12.3315 14.5 12 14.5Z" fill="black"/>
</svg>
