<svg width="24" height="25" viewBox="0 0 24 25" fill="none" xmlns="http://www.w3.org/2000/svg">
<path d="M14.7188 15.29C14.7188 15.29 15.0349 14.9739 15.6671 14.3417C16.2993 13.7095 16.6154 12.504 16.6154 10.7251C16.6154 8.94629 15.9832 7.42465 14.7188 6.16023C13.4543 4.89581 11.9327 4.2636 10.1538 4.2636C8.375 4.2636 6.85337 4.89581 5.58894 6.16023C4.32452 7.42465 3.69231 8.94629 3.69231 10.7251C3.69231 12.504 4.32452 14.0256 5.58894 15.29C6.85337 16.5545 8.375 17.1867 10.1538 17.1867C11.9327 17.1867 13.4543 16.5545 14.7188 15.29ZM24 22.7251C24 23.2251 23.8173 23.6578 23.4519 24.0232C23.0865 24.3886 22.6538 24.5713 22.1538 24.5713C21.6346 24.5713 21.2019 24.3886 20.8558 24.0232L15.9087 19.0905C14.1875 20.2828 12.2692 20.879 10.1538 20.879C8.77885 20.879 7.46394 20.6122 6.20913 20.0785C4.95433 19.5448 3.8726 18.8237 2.96394 17.915C2.05529 17.0064 1.33413 15.9247 0.800481 14.6698C0.266827 13.415 0 12.1001 0 10.7251C0 9.35014 0.266827 8.03523 0.800481 6.78042C1.33413 5.52562 2.05529 4.44389 2.96394 3.53523C3.8726 2.62658 4.95433 1.90542 6.20913 1.37177C7.46394 0.838116 8.77885 0.571289 10.1538 0.571289C11.5288 0.571289 12.8438 0.838116 14.0986 1.37177C15.3534 1.90542 16.4351 2.62658 17.3438 3.53523C18.2524 4.44389 18.9736 5.52562 19.5072 6.78042C20.0409 8.03523 20.3077 9.35014 20.3077 10.7251C20.3077 12.8405 19.7115 14.7588 18.5192 16.4799L23.4663 21.4271C23.8221 21.7828 24 22.2155 24 22.7251Z" fill="#008083"/>
</svg>
