<svg width="18" height="20" viewBox="0 0 18 20" fill="none" xmlns="http://www.w3.org/2000/svg">
<mask id="path-1-inside-1_52_57" fill="white">
<path d="M15.3128 11.6519V5.89698C15.3128 3.05506 12.2932 0 8.59874 0C4.90424 0 1.8847 3.05506 1.8847 5.89698V11.6163"/>
</mask>
<path d="M16.3128 11.6519V5.89698H14.3128V11.6519H16.3128ZM16.3128 5.89698C16.3128 4.13095 15.3871 2.40581 14.0181 1.14673C12.6375 -0.12301 10.7235 -1 8.59874 -1V1C10.1685 1 11.6114 1.65054 12.6642 2.61881C13.7286 3.59774 14.3128 4.82109 14.3128 5.89698H16.3128ZM8.59874 -1C6.47399 -1 4.55994 -0.12301 3.17935 1.14673C1.81035 2.40581 0.884705 4.13095 0.884705 5.89698H2.8847C2.8847 4.82109 3.46883 3.59774 4.53323 2.61881C5.58602 1.65054 7.02899 1 8.59874 1V-1ZM0.884705 5.89698V11.6163H2.8847V5.89698H0.884705Z" fill="black" mask="url(#path-1-inside-1_52_57)"/>
<mask id="path-3-inside-2_52_57" fill="white">
<path d="M2.52411 18.4725L4.12269 16.9449L8.45661 20L12.4353 16.9449L14.0339 18.4725"/>
</mask>
<path d="M4.12269 16.9449L4.69884 16.1276L4.02653 15.6537L3.43183 16.222L4.12269 16.9449ZM8.45661 20L7.88046 20.8173L8.48195 21.2413L9.06564 20.7932L8.45661 20ZM12.4353 16.9449L13.1262 16.222L12.5063 15.6296L11.8263 16.1518L12.4353 16.9449ZM3.21497 19.1955L4.81355 17.6679L3.43183 16.222L1.83325 17.7495L3.21497 19.1955ZM3.54653 17.7623L7.88046 20.8173L9.03277 19.1827L4.69884 16.1276L3.54653 17.7623ZM9.06564 20.7932L13.0443 17.7381L11.8263 16.1518L7.84759 19.2069L9.06564 20.7932ZM11.7444 17.6679L13.343 19.1955L14.7247 17.7495L13.1262 16.222L11.7444 17.6679Z" fill="black" mask="url(#path-3-inside-2_52_57)"/>
<path d="M0.500814 10.6904L0.501921 10.6738V10.6572V8.84544C0.501921 8.5532 0.739875 8.31525 1.03212 8.31525H1.42022V11.1518H0.996592C0.684462 11.1518 0.486656 10.9028 0.500814 10.6904Z" stroke="black"/>
<path d="M16.3429 11.1518H15.8127V8.31525H16.3429C16.6352 8.31525 16.8731 8.5532 16.8731 8.84544V10.6572C16.8731 10.9026 16.6466 11.1518 16.3429 11.1518Z" stroke="black"/>
<mask id="path-7-inside-3_52_57" fill="white">
<path d="M9.59338 13.9609H10.9078H12.7905C13.7852 13.9609 14.7088 13.4281 15.0641 12.611L15.3483 12.0426V11.2611"/>
</mask>
<path d="M15.0641 12.611L14.1696 12.1638L14.1577 12.1877L14.147 12.2123L15.0641 12.611ZM15.3483 12.0426L16.2427 12.4898L16.3483 12.2787V12.0426H15.3483ZM9.59338 14.9609H10.9078V12.9609H9.59338V14.9609ZM10.9078 14.9609H12.7905V12.9609H10.9078V14.9609ZM12.7905 14.9609C14.1038 14.9609 15.4377 14.2597 15.9811 13.0097L14.147 12.2123C13.98 12.5965 13.4666 12.9609 12.7905 12.9609V14.9609ZM15.9585 13.0582L16.2427 12.4898L14.4538 11.5954L14.1696 12.1638L15.9585 13.0582ZM16.3483 12.0426V11.2611H14.3483V12.0426H16.3483Z" fill="black" mask="url(#path-7-inside-3_52_57)"/>
<mask id="path-9-inside-4_52_57" fill="white">
<path d="M5.61469 3.09058C5.61469 5.68383 10.5525 8.84546 13.3589 9.09413V10.2664C13.3589 12.54 12.2577 14.7424 10.3394 15.9503C9.34471 16.5186 8.1369 16.5542 7.14222 15.9503C7.1067 15.9503 7.07118 15.9147 7.03565 15.8792C5.15288 14.778 4.01611 12.7531 4.01611 10.5861V7.74422C4.30031 6.78507 5.43707 5.57725 6.46727 5.22202"/>
</mask>
<path d="M13.3589 9.09413H14.3589V8.17882L13.4472 8.09803L13.3589 9.09413ZM10.3394 15.9503L10.8355 16.8185L10.8541 16.8079L10.8722 16.7965L10.3394 15.9503ZM7.14222 15.9503L7.6612 15.0955L7.42203 14.9503H7.14222V15.9503ZM7.03565 15.8792L7.74276 15.1721L7.6517 15.081L7.54054 15.016L7.03565 15.8792ZM4.01611 7.74422L3.05732 7.46013L3.01611 7.59919V7.74422H4.01611ZM4.61469 3.09058C4.61469 4.04766 5.06249 4.94297 5.63472 5.69383C6.21725 6.4582 7.00172 7.16999 7.84867 7.78207C9.51611 8.98711 11.623 9.94423 13.2707 10.0902L13.4472 8.09803C12.2885 7.99536 10.5232 7.24733 9.02015 6.16107C8.28185 5.62751 7.65645 5.04711 7.22544 4.48155C6.78413 3.90248 6.61469 3.43012 6.61469 3.09058H4.61469ZM12.3589 9.09413V10.2664H14.3589V9.09413H12.3589ZM12.3589 10.2664C12.3589 12.232 11.4051 14.0975 9.80657 15.104L10.8722 16.7965C13.1102 15.3874 14.3589 12.8479 14.3589 10.2664H12.3589ZM9.84324 15.082C9.13507 15.4867 8.31742 15.4939 7.6612 15.0955L6.62325 16.805C7.95637 17.6144 9.55435 17.5506 10.8355 16.8185L9.84324 15.082ZM7.14222 14.9503C7.30213 14.9503 7.43057 14.9904 7.51639 15.028C7.59995 15.0645 7.6586 15.1053 7.68893 15.128C7.73914 15.1657 7.77359 15.2029 7.74276 15.1721L6.32855 16.5863C6.33324 16.591 6.40322 16.6638 6.48894 16.7281C6.56416 16.7845 6.79817 16.9503 7.14222 16.9503V14.9503ZM7.54054 15.016C5.97002 14.0974 5.01611 12.4044 5.01611 10.5861H3.01611C3.01611 13.1018 4.33574 15.4585 6.53077 16.7424L7.54054 15.016ZM5.01611 10.5861V7.74422H3.01611V10.5861H5.01611ZM4.97491 8.02831C5.05622 7.75389 5.3005 7.34717 5.68264 6.9499C6.06234 6.55516 6.47517 6.27707 6.79326 6.16739L6.14128 4.27664C5.42917 4.5222 4.75852 5.02564 4.24124 5.56341C3.7264 6.09864 3.2602 6.7754 3.05732 7.46013L4.97491 8.02831Z" fill="black" mask="url(#path-9-inside-4_52_57)"/>
<path d="M9.05785 13.3242V14.2069H7.39355V13.3242H9.05785Z" stroke="black"/>
</svg>
