<svg width="308" height="139" viewBox="0 0 308 139" fill="none" xmlns="http://www.w3.org/2000/svg">
<path d="M234.599 1.7106L305.396 63.3956C309.643 66.2155 307.755 72.7952 306.281 75.7326C274.925 106.078 254.294 116.869 214.245 129.487C166.538 141.978 139.984 142.363 93.0069 129.487C55.1937 118.93 31.0099 103.881 3.62671 76.6138C-3.22739 69.7887 1.41434 64.8643 3.18423 62.5144C25.308 42.9808 70.5291 3.3849 74.4229 1.26999C79.2902 -1.37365 82.8454 0.784528 85.4848 1.7106C101.382 7.28816 146.541 44.6553 223.537 1.7106C226.82 -0.12047 232.092 0.682514 234.599 1.7106Z" fill="#D9D9D9"/>
</svg>
