<svg width="32" height="32" viewBox="0 0 32 32" fill="none" xmlns="http://www.w3.org/2000/svg">
<g clip-path="url(#clip0_50_52)">
<path d="M21.3333 18.6666C23.1014 18.6666 24.7971 19.369 26.0474 20.6192C27.2976 21.8695 28 23.5652 28 25.3333V26.6666C28 27.3739 27.719 28.0521 27.2189 28.5522C26.7189 29.0523 26.0406 29.3333 25.3333 29.3333H6.66667C5.95942 29.3333 5.28115 29.0523 4.78105 28.5522C4.28095 28.0521 4 27.3739 4 26.6666V25.3333C4 23.5652 4.70238 21.8695 5.95262 20.6192C7.20286 19.369 8.89856 18.6666 10.6667 18.6666H21.3333ZM26.6667 10.6666C27.0203 10.6666 27.3594 10.8071 27.6095 11.0572C27.8595 11.3072 28 11.6463 28 12V13.3333H29.3333C29.687 13.3333 30.0261 13.4738 30.2761 13.7238C30.5262 13.9739 30.6667 14.313 30.6667 14.6666C30.6667 15.0202 30.5262 15.3594 30.2761 15.6094C30.0261 15.8595 29.687 16 29.3333 16H28V17.3333C28 17.6869 27.8595 18.0261 27.6095 18.2761C27.3594 18.5261 27.0203 18.6666 26.6667 18.6666C26.313 18.6666 25.9739 18.5261 25.7239 18.2761C25.4738 18.0261 25.3333 17.6869 25.3333 17.3333V16H24C23.6464 16 23.3072 15.8595 23.0572 15.6094C22.8071 15.3594 22.6667 15.0202 22.6667 14.6666C22.6667 14.313 22.8071 13.9739 23.0572 13.7238C23.3072 13.4738 23.6464 13.3333 24 13.3333H25.3333V12C25.3333 11.6463 25.4738 11.3072 25.7239 11.0572C25.9739 10.8071 26.313 10.6666 26.6667 10.6666ZM16 2.66663C17.7681 2.66663 19.4638 3.369 20.714 4.61925C21.9643 5.86949 22.6667 7.56518 22.6667 9.33329C22.6667 11.1014 21.9643 12.7971 20.714 14.0473C19.4638 15.2976 17.7681 16 16 16C14.2319 16 12.5362 15.2976 11.286 14.0473C10.0357 12.7971 9.33333 11.1014 9.33333 9.33329C9.33333 7.56518 10.0357 5.86949 11.286 4.61925C12.5362 3.369 14.2319 2.66663 16 2.66663Z" fill="#df7b2e"/>
</g>
<defs>
<clipPath id="clip0_50_52">
<rect width="32" height="32" fill="white"/>
</clipPath>
</defs>
</svg>
