<svg width="34" height="34" viewBox="0 0 34 34" fill="none" xmlns="http://www.w3.org/2000/svg">
<path d="M17.0007 28.9999C12.834 28.9999 9.15065 26.8666 7.00065 23.6666C7.05065 20.3333 13.6673 18.4999 17.0007 18.4999C20.334 18.4999 26.9507 20.3333 27.0007 23.6666C25.8988 25.3073 24.4104 26.6518 22.6666 27.5819C20.9228 28.5119 18.977 28.9989 17.0007 28.9999ZM17.0007 5.33325C18.3267 5.33325 19.5985 5.86004 20.5362 6.79772C21.4739 7.7354 22.0007 9.00717 22.0007 10.3333C22.0007 11.6593 21.4739 12.9311 20.5362 13.8688C19.5985 14.8065 18.3267 15.3333 17.0007 15.3333C15.6746 15.3333 14.4028 14.8065 13.4651 13.8688C12.5274 12.9311 12.0007 11.6593 12.0007 10.3333C12.0007 9.00717 12.5274 7.7354 13.4651 6.79772C14.4028 5.86004 15.6746 5.33325 17.0007 5.33325ZM17.0007 0.333252C14.812 0.333252 12.6447 0.764348 10.6226 1.60193C8.6005 2.4395 6.76318 3.66716 5.21554 5.21481C2.08993 8.34041 0.333984 12.5796 0.333984 16.9999C0.333984 21.4202 2.08993 25.6594 5.21554 28.785C6.76318 30.3327 8.6005 31.5603 10.6226 32.3979C12.6447 33.2355 14.812 33.6666 17.0007 33.6666C21.4209 33.6666 25.6602 31.9106 28.7858 28.785C31.9114 25.6594 33.6673 21.4202 33.6673 16.9999C33.6673 7.78325 26.1673 0.333252 17.0007 0.333252Z" fill="#3f3f3f"/>
</svg>
