<svg width="209" height="70" viewBox="0 0 209 70" fill="none" xmlns="http://www.w3.org/2000/svg">
<path d="M9.1529 16.5344C6.22226 17.718 1.09363 21.7758 1.71357 22.3957C1.88265 22.6212 3.00982 22.3394 4.24971 21.7758C7.46214 20.3668 14.1688 20.4795 17.494 22.0012C25.7787 25.7209 29.9492 34.4564 27.3567 42.5157C26.7931 44.0938 26.5113 45.5027 26.6241 45.6718C27.1876 46.2354 31.5272 40.4868 32.3163 38.1198C33.4434 34.7946 33.4434 29.835 32.3163 26.5099C31.1327 23.072 27.5821 19.0706 23.9752 17.2671C19.9737 15.1818 13.3798 14.9 9.1529 16.5344Z" fill="#3f3f3f"/>
<path d="M3.74214 25.8335C-5.10616 37.387 2.72768 54.4637 16.8737 54.52C20.9315 54.52 23.2422 53.7874 26.7928 51.4203C28.9344 49.955 31.3578 47.1371 30.8506 46.6298C30.7379 46.5171 29.6107 46.968 28.3145 47.5879C24.8766 49.2787 20.9879 49.5605 17.0991 48.3206C12.7595 46.968 7.40544 41.8957 5.99648 37.7252C4.92567 34.5691 4.75659 28.8205 5.65833 26.228C6.72914 23.1283 5.88376 23.0156 3.74214 25.8335Z" fill="#3f3f3f"/>
<path d="M24.1994 33.7239C24.1994 30.6241 23.3385 28.9143 21.8059 27.3818C20.2734 25.8493 18.1948 24.9883 16.0275 24.9883C13.8601 24.9883 11.7815 25.8493 10.249 27.3818C8.71644 28.9143 7.85547 30.6241 7.85547 33.7239L16.0275 33.7239H24.1994Z" fill="#3f3f3f"/>
<path d="M24.1994 34.8509C24.1994 37.9506 23.3385 39.6604 21.8059 41.1929C20.2734 42.7255 18.1948 43.5864 16.0275 43.5864C13.8601 43.5864 11.7815 42.7255 10.249 41.1929C8.71644 39.6604 7.85547 37.9506 7.85547 34.8509L16.0275 34.8509H24.1994Z" fill="#3f3f3f"/>
<path d="M51.0841 46.4826L50.5769 35.9436L69.457 16.049H79.6016L62.5813 34.3655L57.509 39.776L51.0841 46.4826ZM42.9121 55.5V16.049H51.9859V55.5H42.9121ZM69.9079 55.5L55.8746 38.3106L61.8486 31.8294L80.5596 55.5H69.9079ZM89.083 55.5V13.682H97.8749V55.5H89.083ZM111.107 55.5V25.1791H119.899V55.5H111.107ZM115.503 20.9522C113.887 20.9522 112.572 20.4826 111.558 19.5432C110.543 18.6039 110.036 17.4392 110.036 16.049C110.036 14.6588 110.543 13.4941 111.558 12.5548C112.572 11.6155 113.887 11.1458 115.503 11.1458C117.118 11.1458 118.433 11.5967 119.448 12.4984C120.462 13.3626 120.97 14.4898 120.97 15.8799C120.97 17.3453 120.462 18.5664 119.448 19.5432C118.471 20.4826 117.156 20.9522 115.503 20.9522ZM151.56 24.7282C153.965 24.7282 156.106 25.2167 157.985 26.1936C159.901 27.1329 161.404 28.5982 162.494 30.5895C163.583 32.5433 164.128 35.0606 164.128 38.1416V55.5H155.336V39.4942C155.336 37.052 154.791 35.2485 153.702 34.0838C152.65 32.919 151.147 32.3366 149.193 32.3366C147.803 32.3366 146.544 32.6372 145.417 33.2384C144.327 33.802 143.463 34.6849 142.824 35.8872C142.223 37.0895 141.923 38.63 141.923 40.5086V55.5H133.131V25.1791H141.528V33.5765L139.95 31.0404C141.04 29.0115 142.599 27.4522 144.628 26.3626C146.657 25.273 148.967 24.7282 151.56 24.7282ZM192.438 55.9509C188.981 55.9509 185.937 55.2746 183.307 53.922C180.715 52.5694 178.705 50.7283 177.277 48.3988C175.849 46.0318 175.135 43.3453 175.135 40.3395C175.135 37.2962 175.831 34.6098 177.221 32.2803C178.648 29.9132 180.583 28.0722 183.026 26.7571C185.468 25.4045 188.229 24.7282 191.31 24.7282C194.279 24.7282 196.946 25.367 199.313 26.6444C201.718 27.8843 203.615 29.6878 205.005 32.0548C206.396 34.3843 207.091 37.1835 207.091 40.4523C207.091 40.7904 207.072 41.1849 207.034 41.6358C206.997 42.0491 206.959 42.4436 206.922 42.8193H182.293V37.6907H202.3L198.919 39.2124C198.919 37.6343 198.599 36.2629 197.961 35.0982C197.322 33.9335 196.439 33.0317 195.312 32.393C194.185 31.7167 192.87 31.3785 191.367 31.3785C189.864 31.3785 188.53 31.7167 187.365 32.393C186.238 33.0317 185.355 33.9522 184.716 35.1546C184.078 36.3193 183.758 37.7095 183.758 39.3251V40.6777C183.758 42.3309 184.115 43.7962 184.829 45.0737C185.581 46.3136 186.614 47.2717 187.929 47.948C189.281 48.5867 190.859 48.906 192.663 48.906C194.279 48.906 195.688 48.6618 196.89 48.1734C198.13 47.6849 199.257 46.9523 200.271 45.9754L204.949 51.0477C203.559 52.6257 201.812 53.8468 199.708 54.711C197.604 55.5376 195.18 55.9509 192.438 55.9509Z" fill="#3e3e3e"/>
</svg>
