<svg width="40" height="40" viewBox="0 0 40 40" fill="none" xmlns="http://www.w3.org/2000/svg">
<path fill-rule="evenodd" clip-rule="evenodd" d="M5.33341 2.66675C4.62617 2.66675 3.94789 2.9477 3.4478 3.4478C2.9477 3.94789 2.66675 4.62617 2.66675 5.33341V34.6667C2.66675 35.374 2.9477 36.0523 3.4478 36.5524C3.94789 37.0525 4.62617 37.3334 5.33341 37.3334H34.6667C35.374 37.3334 36.0523 37.0525 36.5524 36.5524C37.0525 36.0523 37.3334 35.374 37.3334 34.6667V5.33341C37.3334 4.62617 37.0525 3.94789 36.5524 3.4478C36.0523 2.9477 35.374 2.66675 34.6667 2.66675H5.33341ZM8.13341 16.0001H13.2001V32.0001H8.13341V16.0001ZM13.5334 10.6801C13.5334 11.4404 13.2314 12.1695 12.6938 12.7071C12.1562 13.2447 11.427 13.5467 10.6667 13.5467C9.90646 13.5467 9.17731 13.2447 8.63971 12.7071C8.1021 12.1695 7.80008 11.4404 7.80008 10.6801C7.80008 9.91979 8.1021 9.19065 8.63971 8.65304C9.17731 8.11544 9.90646 7.81342 10.6667 7.81342C11.427 7.81342 12.1562 8.11544 12.6938 8.65304C13.2314 9.19065 13.5334 9.91979 13.5334 10.6801ZM32.0001 22.2854C32.0001 17.4721 28.8881 15.6001 25.7974 15.6001C24.7873 15.551 23.7816 15.7632 22.8774 16.2161C22.1921 16.5627 21.4747 17.3467 20.9201 18.7174H20.7787V16.0001H16.0001V32.0134H21.0827V23.4934C21.0107 22.6214 21.2881 21.4934 21.8587 20.8241C22.4321 20.1521 23.2454 19.9921 23.8667 19.9121H24.0614C25.6774 19.9121 26.8774 20.9121 26.8774 23.4321V32.0107H31.9601L32.0001 22.2854Z" fill="white"/>
</svg>
