<svg width="35" height="25" viewBox="0 0 35 25" fill="none" xmlns="http://www.w3.org/2000/svg">
<path d="M34.9919 8.66766C35.0706 6.39196 34.5729 4.13328 33.5451 2.10135C32.8478 1.2676 31.88 0.704954 30.8105 0.511446C26.3866 0.110035 21.9444 -0.0544901 17.503 0.0185753C13.0777 -0.0578064 8.65151 0.10141 4.24317 0.495547C3.37161 0.654087 2.56505 1.06289 1.9219 1.67208C0.490988 2.9917 0.331998 5.24937 0.173007 7.15725C-0.057669 10.5876 -0.057669 14.0295 0.173007 17.4598C0.219003 18.5337 0.37889 19.5996 0.649979 20.6397C0.841682 21.4427 1.22954 22.1856 1.77881 22.8019C2.42633 23.4434 3.25168 23.8754 4.14777 24.042C7.57547 24.4652 11.0292 24.6405 14.4822 24.5667C20.0468 24.6462 24.9278 24.5667 30.6992 24.1215C31.6173 23.9652 32.4659 23.5326 33.1318 22.8814C33.5769 22.4361 33.9093 21.8911 34.1016 21.2915C34.6702 19.5468 34.9495 17.7208 34.9283 15.8858C34.9919 14.9955 34.9919 9.62161 34.9919 8.66766ZM13.9098 16.8398V6.99826L23.322 11.9429C20.6828 13.4056 17.2009 15.0591 13.9098 16.8398Z" fill="white"/>
</svg>
